
<?xml version="1.0" standalone="no"?>
<!DOCTYPE svg PUBLIC "-//W3C//DTD SVG 1.1//EN" "https://www.w3.org/Graphics/SVG/1.1/DTD/svg11.dtd">
<svg xmlns="http://www.w3.org/2000/svg">
    <metadata>Generated by Fontastic.me</metadata>
    <defs>
        <font id="gaxondrift" horiz-adv-x="512">
            <font-face font-family="gaxondrift" units-per-em="512" ascent="480" descent="-32"/>
            <missing-glyph horiz-adv-x="512"/>

            <glyph glyph-name="addnew" unicode="&#97;"
                   d="M512 164c0 51-38 92-85 98l0 90c0 2 0 6-2 6l-143 150c-5 2-7 4-11 4l-260 0c-7 0-11-4-11-11l0-490c0-7 4-11 11-11l405 0c6 0 11 4 11 11l0 55c47 7 85 47 85 98z m-122 199l-113 0 0 117z m-369-342l0 470 235 0 0-139c0-6 4-11 11-11l138 0 0-79c-51-4-91-47-91-98 0-51 40-96 91-98l0-43-384 0z m391 64c-43 0-79 37-79 79 0 43 34 79 79 79 45 0 79-36 79-79 0-42-34-79-79-79z m36 84l-23 0 0 25c0 7-5 11-11 11-7 0-11-4-11-11l0-25-21 0c-7 0-11-5-11-11 0-7 4-11 11-11l21 0 0-21c0-7 4-11 11-11 6 0 11 4 11 11l0 21 23 0c6 0 11 4 11 11 0 6-5 11-11 11z m-183 130l-116 0c-6 0-10-5-10-11 0-6 4-11 10-11l118 0c6 0 10 5 10 11 0 6-6 11-12 11z m0-86l-116 0c-6 0-10-4-10-10 0-7 4-11 10-11l118 0c6 0 10 4 10 11 0 6-6 10-12 10z m0-85l-116 0c-6 0-10-4-10-11 0-6 4-10 10-10l118 0c6 0 10 4 10 10 0 7-6 11-12 11z m-165 160c0 9-6 17-15 17-8 0-15-8-15-17 0-9 7-17 15-17 9 0 15 8 15 17z m0-81c0 9-6 17-15 17-8 0-15-8-15-17 0-9 7-17 15-17 9 0 15 8 15 17z m0-90c0 10-6 17-15 17-8 0-15-7-15-17 0-9 7-17 15-17 9 0 15 8 15 17z"/>
            <glyph glyph-name="alert" unicode="&#98;"
                   d="M474 107l-427 0c-26 0-47 21-47 47l0 204c0 26 21 47 47 47l427 0c23 0 38-17 38-47l0-204c0-30-15-47-38-47z m-427 277c-15 0-26-11-26-26l0-204c0-15 11-26 26-26l427 0c4 0 17 0 17 26l0 204c0 26-13 26-17 26z m75-128l23 23c4 5 4 11 0 15-4 5-11 5-15 0l-23-25-28 25c-4 5-11 5-13 0-4-4-4-10 0-12l28-26-28-26c-4-4-4-10 0-15 2-2 7-2 9-2 2 0 4 0 6 2l28 26 23-23c2-3 5-3 7-3 2 0 4 0 6 3 4 4 4 10 0 12z m294-21l-194 0c-7 0-11 4-11 10 0 7 4 11 11 11l194 0c6 0 11-4 11-11 0-6-5-10-11-10z"/>
            <glyph glyph-name="amchart" unicode="&#99;"
                   d="M102 175c-42 0-85 2-87 2-9 0-15 6-15 15 0 9 6 15 15 15 43 0 60 32 79 66 17 32 34 62 70 62 32 0 54-26 71-53 10 19 19 34 34 34 21 0 36-19 45-32 4-5 8-13 12-15 3 2 11 13 15 19 9 13 20 28 34 28 13 0 22-13 39-37 21-29 51-72 81-74 8 0 15-7 15-15 0-9-7-15-15-15l-203 0c-25 0-42 21-57 47-15-21-37-43-69-47-17 0-40 0-64 0z m-19 30c28 0 60 0 81 2 26 2 43 23 56 45-17 27-34 53-56 53-17 0-27-17-42-47-11-17-24-38-39-53z m171 47c13-24 28-45 40-45l143 0c-19 17-34 40-47 58-4 6-10 14-15 21-2-4-6-9-8-13-11-15-21-32-41-32-17 0-27 15-36 26-6 8-13 17-19 19-4-4-9-15-13-24-2-2-2-6-4-10z m117 38z"/>
            <glyph glyph-name="apps" unicode="&#100;"
                   d="M0 512l128 0 0-128-128 0z m192 0l128 0 0-128-128 0z m192 0l128 0 0-128-128 0z m-384-192l128 0 0-128-128 0z m192 0l128 0 0-128-128 0z m192 0l128 0 0-128-128 0z m-384-192l128 0 0-128-128 0z m192 0l128 0 0-128-128 0z m192 0l128 0 0-128-128 0z"/>
            <glyph glyph-name="archive" unicode="&#101;"
                   d="M448 369c2 4-66 75-66 75-2 2-7 4-9 4l-234 0c-2 0-7-2-9-2 0 0-68-71-66-75 0-4 0-6 0-8l0-278c0-23 19-42 43-42l298 0c24 0 43 19 43 42l0 278c0 2 0 4 0 6z m-192-241l-85 85 42 0 0 43 86 0 0-43 42 0z m-134 277l21 22 226 0 21-22z"/>
            <glyph glyph-name="arrow-down" unicode="&#102;"
                   d="M382 201l-17 12-88-104 0 339-21 0 0-343-109 108-17-15 137-134z"/>
            <glyph glyph-name="arrow-left" unicode="&#103;"
                   d="M201 130l12 17-104 88 339 0 0 21-343 0 108 109-15 17-134-137z"/>
            <glyph glyph-name="arrow-long-down" unicode="&#104;"
                   d="M365 149l-88-104 0 467-21 0 0-471-109 108-17-15 137-134 115 137z"/>
            <glyph glyph-name="arrow-long-left" unicode="&#105;"
                   d="M137 130l12 17-104 88 467 0 0 21-471 0 108 109-15 17-134-137z"/>
            <glyph glyph-name="arrow-long-right" unicode="&#106;"
                   d="M375 382l-12-17 104-88-467 0 0-21 471 0-108-109 15-17 134 137z"/>
            <glyph glyph-name="arrow-long-top" unicode="&#107;"
                   d="M130 375l17-12 88 104 0-467 21 0 0 471 109-108 17 15-137 134z"/>
            <glyph glyph-name="arrow-right" unicode="&#108;"
                   d="M311 382l-12-17 104-88-339 0 0-21 343 0-108-109 15-17 134 137z"/>
            <glyph glyph-name="arrow-up" unicode="&#109;"
                   d="M130 311l17-12 88 104 0-339 21 0 0 343 109-108 17 15-137 134z"/>
            <glyph glyph-name="assignment" unicode="&#110;"
                   d="M416 442l-75 0c-6 6-15 10-25 10l-19 0c2 5 2 9 2 11 0 23-20 43-43 43-23 0-43-20-43-43 0-4 0-6 2-11l-21 0c-8 0-17-2-23-10l-75 0c-30 0-53-24-53-54l0-341c0-30 23-53 53-53l320 0c30 0 53 23 53 53l0 341c0 30-23 54-53 54z m32-395c0-17-15-32-32-32l-320 0c-17 0-32 15-32 32l0 341c0 17 15 32 32 32l64 0c0 0 0-2 0-2l0-15c0-19 15-34 34-34l122 0c19 0 34 15 34 34l0 15c0 0 0 2 0 2l64 0c17 0 32-15 32-32l0-341z m-267 267l-64 0c-6 0-10-5-10-11l0-64c0-6 4-11 10-11l64 0c7 0 11 7 11 11l0 64c0 6-4 11-11 11z m-10-64l-43 0 0 42 43 0z m10-86l-64 0c-6 0-10-4-10-10l0-64c0-7 4-11 10-11l64 0c7 0 11 6 11 11l0 64c0 6-4 10-11 10z m-10-64l-43 0 0 43 43 0z m202 192l-128 0c-6 0-10-4-10-10 0-7 4-11 10-11l128 0c7 0 11 4 11 11 0 6-4 10-11 10z m0-149l-128 0c-6 0-10-4-10-11 0-6 4-10 10-10l128 0c7 0 11 4 11 10 0 7-4 11-11 11z"/>
            <glyph glyph-name="attach" unicode="&#111;"
                   d="M196 68c-25 0-51 11-70 30-39 39-39 103 0 143l121 122c0 0 3 2 3 2 23 19 57 21 83 4 2 0 4-2 4-2l6-6c3-3 3-3 3-5 19-27 15-64-9-89l-111-111c-4-5-11-5-15 0-4 4-4 10 0 15l111 111c9 8 15 21 15 34 0 10-4 23-11 32-19 15-49 13-66-5l-119-119c-30-30-30-81 0-113 30-30 79-32 109-2l2 2 123 124c43 42 43 113 0 155-42 43-115 45-157 3l-118-118c-4-4-10-4-15 0-4 4-4 11 0 15l118 117c51 52 136 50 187-2 52-51 52-134 0-185l-125-126c-20-17-45-26-69-26z"/>
            <glyph glyph-name="attach-h" unicode="&#112;"
                   d="M425 356c19-17 29-42 29-68 0-26-10-51-29-68-20-19-45-28-71-28l-173 0c-32 2-62 28-66 60l0 8c4 32 34 58 71 58l155 0 0-21-155 0c-13 0-26-5-35-15-8-9-12-20-14-30 2-24 23-43 49-43l168 0c21 0 41 9 56 24 15 14 23 34 23 53 0 40-34 75-75 77l-179 0c-60 0-109-47-109-107 0-60 49-109 109-109l167 0 0-21-167 0c-70 0-130 60-130 130 0 73 58 128 130 128l179 0c26 0 49-11 67-28z"/>
            <glyph glyph-name="attach-v" unicode="&#113;"
                   d="M335 94c-17-19-43-30-68-30-26 0-52 11-69 30-19 19-27 45-27 70l0 173c0 32 25 62 57 66l9 0c34-4 60-34 60-70l0-156-22 0 0 156c0 13-4 25-15 34-8 8-19 13-30 15-23-2-42-24-42-49l0-169c0-21 8-40 23-55 15-15 34-24 54-24 40 0 74 34 76 75l0 179c0 60-47 109-106 109-58 0-107-49-107-109l0-166-21 0 0 166c0 71 59 130 130 130 68 0 126-57 126-130l0-179c-2-26-13-49-28-66z"/>
            <glyph glyph-name="attendance" unicode="&#114;"
                   d="M467 358l-143 150c-4 2-6 4-8 4l-263 0c-6 0-10-4-10-11l0-490c0-7 4-11 10-11l406 0c6 0 10 4 10 11l0 341c0 2 0 6-2 6z m-34 5l-113 0 0 117z m-369-342l0 470 235 0 0-139c0-6 4-11 10-11l139 0 0-320z m196 297l-100-79-36 36c-5 4-11 4-15 0-4-4-4-10 0-15l42-42c3-5 7-5 9-5 2 0 4 0 6 2l107 86c4 4 6 10 2 15-4 4-10 6-15 2z m135-62l-107 0c-6 0-11-4-11-11 0-6 5-10 11-10l107 0c6 0 10 4 10 10 0 7-4 11-10 11z m0-128l-107 0c-6 0-11-4-11-11 0-6 5-10 11-10l107 0c6 0 10 4 10 10 0 7-4 11-10 11z m-162 41c-5 4-11 4-15 0l-35-35-34 35c-4 4-10 4-15 0-4-5-4-11 0-15l35-35-35-34c-4-4-4-10 0-15-2-6 3-6 5-6 2 0 6 0 8 2l34 34 34-34c3-2 5-2 9-2 4 0 6 0 9 2 4 4 4 11 0 15l-35 34 35 34c2 7 2 15 0 20z"/>
            <glyph glyph-name="badges" unicode="&#115;"
                   d="M491 373c0-64-53-117-118-117-64 0-117 53-117 117 0 65 53 118 117 118 65 0 118-53 118-118z m-124-175c-90 0-164 75-164 165 0 15 2 27 6 40l-136 0c-28 2-52-21-52-49l0-281c0-28 24-52 52-52l305 0c27 0 51 24 51 52l0 138c-22-8-41-13-62-13z"/>
            <glyph glyph-name="basic-components" unicode="&#116;"
                   d="M0 512l213 0 0-213-213 0z m0-299l213 0 0-213-213 0z m214 148l151 151 151-151-151-151z m85-148l213 0 0-213-213 0z"/>
            <glyph glyph-name="birthday-new" unicode="&#117;"
                   d="M499 51l-13 0 0 115c0 21-10 39-25 52l0 76c0 36-28 64-64 64l-13 0 0 18c15 8 26 31 26 59 0 33-29 59-31 62-5 5-13 5-18 0 0 0-31-29-31-62 0-28 10-51 26-61l0-16-90 0 0 18c16 8 26 31 26 62 0 33-28 59-31 61-5 5-13 5-18 0 0 0-31-28-31-61 0-28 11-51 26-62l0-18-84 0 0 18c15 8 25 31 25 59 0 33-28 59-31 62-5 5-12 5-17 0 0 0-29-26-29-62 0-28 11-51 26-61l0-16-13 0c-36 0-64-28-64-64l0-76c-15-13-25-31-25-52l0-115-13 0c-8 0-13-5-13-13 0-7 5-12 13-12l153 0c8 0 13 5 13 12 0 8-5 13-13 13l-115 0 0 74c13-2 23-10 33-20 13-13 31-28 62-28 33 0 49 15 64 28 13 13 23 23 46 23 23 0 33-10 46-23 15-13 31-28 64-28 33 0 49 15 64 28 10 10 18 18 33 20l0-74-192 0c-7 0-12-5-12-13 0-7 5-12 12-12l231 0c7 0 13 5 13 12 0 8-8 13-16 13z m-128 417c5-7 13-20 13-33 0-25-10-38-13-38-2 0-13 15-13 38 0 13 8 26 13 33z m-115 0c5-7 13-20 13-33 0-25-10-38-13-38-3 0-13 15-13 38 0 13 8 26 13 33z m-115 0c5-7 13-20 13-33 0-25-11-38-13-38-3 0-13 15-13 38 0 13 8 26 13 33z m320-314c-23-6-39-18-51-29-13-12-23-23-46-23-24 0-34 11-47 23-12 13-28 29-61 29-33 0-49-16-64-29-13-12-23-23-46-23-23 0-33 11-46 23-13 13-26 26-51 29l0 12c2 21 20 39 41 39l102 0c8 0 13 5 13 13 0 7-5 12-13 12l-102 0c-6 0-8 0-13-2l0 66c0 21 18 39 38 39l282 0c20 0 38-18 38-39l0-66c-5 0-7 2-13 2l-128 0c-7 0-12-5-12-12 0-8 5-13 12-13l128 0c21 0 39-18 39-39z m-282 12c0-7-6-12-13-12-7 0-12 5-12 12 0 7 5 13 12 13 7 0 13-6 13-13z m103-76c0-7-6-13-13-13-7 0-13 6-13 13 0 7 6 12 13 12 7 0 13-5 13-12z m-52-52c0-7-5-12-12-12-7 0-13 5-13 12 0 7 6 13 13 13 7 0 12-6 12-13z m26 180c0-7-6-13-13-13-7 0-13 6-13 13 0 7 6 12 13 12 7 0 13-5 13-12z m128-52c0-7-6-12-13-12-7 0-13 5-13 12 0 7 6 13 13 13 7 0 13-6 13-13z m-256 128c0-7-6-12-13-12-7 0-13 5-13 12 0 7 6 13 13 13 7 0 13-6 13-13z m282 0c0-7-6-12-13-12-7 0-13 5-13 12 0 7 6 13 13 13 7 0 13-6 13-13z m-154 0c0-7-6-12-13-12-7 0-13 5-13 12 0 7 6 13 13 13 7 0 13-6 13-13z m77-25c0-7-6-13-13-13-7 0-13 6-13 13 0 7 6 13 13 13 7 0 13-6 13-13z m-154 0c0-7-6-13-13-13-7 0-12 6-12 13 0 7 5 13 12 13 7 0 13-6 13-13z m-77-103c0-7-5-12-12-12-7 0-13 5-13 12 0 7 6 13 13 13 7 0 12-6 12-13z"/>
            <glyph glyph-name="bitcoin" unicode="&#118;"
                   d="M343 299c0 23-19 42-42 42l-22 0 0 32c0 7-4 11-10 11-7 0-11-4-11-11l0-32-21 0 0 32c0 7-4 11-11 11-6 0-11-4-11-11l0-32-32 0c-6 0-10-4-10-10l0-128c0-7 4-11 10-11l32 0 0-32c0-6 5-11 11-11 7 0 11 5 11 11l0 32 21 0 0-32c0-6 4-11 11-11 4 0 10 5 10 11l0 32 22 0c21 0 40 19 42 43 0 12-6 23-14 32 8 8 14 19 14 32z m-21-64c0-13-11-22-21-22l-107 0 0 43 107 0c13 0 21-9 21-21z m-128 42l0 43 107 0c13 0 21-9 21-21 0-13-11-22-21-22z m258-27c-6 0-10-5-13-11-14-85-89-149-177-149-98 0-179 81-179 179 0 98 81 179 179 179 62 0 122-34 154-90 4-6 11-8 17-4 6 4 9 11 4 17-36 62-102 100-175 100-111 0-202-91-202-204 0-113 91-205 202-205 101 0 184 72 201 175 0 6-4 10-11 13z m5 49c0-6-5-11-11-11-6 0-11 5-11 11 0 6 5 10 11 10 6 0 11-4 11-10z"/>
            <glyph glyph-name="blankpage" unicode="&#119;"
                   d="M437 469l-362 0c-30 0-54-23-54-53l0-320c0-30 24-53 54-53l362 0c30 0 54 23 54 53l0 320c0 30-24 53-54 53z m-362-21l362 0c17 0 32-15 32-32l0-53-426 0 0 53c0 17 15 32 32 32z m362-384l-362 0c-17 0-32 15-32 32l0 245 426 0 0-245c0-17-15-32-32-32z m-330 341c0-11-10-21-22-21-11 0-21 10-21 21 0 12 10 22 21 22 12 0 22-10 22-22z m64 0c0-11-10-21-22-21-11 0-21 10-21 21 0 12 10 22 21 22 12 0 22-10 22-22z m64 0c0-11-10-21-22-21-11 0-21 10-21 21 0 12 10 22 21 22 12 0 22-10 22-22z"/>
            <glyph glyph-name="box-check" unicode="&#120;"
                   d="M435 491l-358 0c-30 0-56-26-56-56l0-358c0-30 26-56 56-56l358 0c30 0 56 26 56 56l0 358c0 30-26 56-56 56z m-72-148l-137-157c0-7-2-7-6-7-2 0-7 2-9 4l-64 67c-4 4-4 10 0 15 4 4 11 4 15 0l56-58 128 149c4 5 10 5 15 2 4-4 4-10 2-15z"/>
            <glyph glyph-name="box-check-o" unicode="&#121;"
                   d="M435 21l-358 0c-30 0-56 26-56 56l0 358c0 30 26 56 56 56l358 0c30 0 56-26 56-56l0-358c0-30-26-56-56-56z m-358 448c-17 0-34-17-34-34l0-358c0-17 17-34 34-34l358 0c19 0 34 15 34 34l0 358c0 17-17 34-34 34z m143-290c-2 0-7 2-9 4l-64 67c-4 4-4 10 0 15 4 4 11 4 15 0l56-58 128 149c4 5 10 5 15 2 4-4 4-10 2-15l-137-157c0-7-2-7-6-7z"/>
            <glyph glyph-name="box-o" unicode="&#122;"
                   d="M435 21l-358 0c-30 0-56 26-56 56l0 358c0 30 26 56 56 56l358 0c30 0 56-26 56-56l0-358c0-30-26-56-56-56z m-358 448c-17 0-34-17-34-34l0-358c0-17 17-34 34-34l358 0c19 0 34 15 34 34l0 358c0 17-17 34-34 34z"/>
            <glyph glyph-name="breadcrumbs" unicode="&#65;"
                   d="M277 265l-151 183-83 0c-24 0-43-19-43-43l0-277c0-23 19-43 43-43l115 0z m92 183l-156 0 154-179-124-184 147 0 116 162c8 13 8 28-3 39z"/>
            <glyph glyph-name="bs4" unicode="&#66;"
                   d="M250 243l-26 0 0-99c6 0 16 0 29 0 35 0 67 13 67 51-3 32-32 48-70 48z m57 67c0 32-22 42-54 42-16 0-26 0-29 0l0-83 29 0c35-3 54 16 54 41z m45 170l-192 0c-70 0-128-58-128-128l0-192c0-70 58-128 128-128l192 0c70 0 128 58 128 128l0 192c0 70-58 128-128 128z m-22-339c-20-16-48-26-90-26-22 0-42 0-51 3l0 256c16 4 38 7 61 7 32 0 54-7 70-19 13-10 22-26 22-45 0-26-16-48-44-58 25-6 54-25 54-64 0-25-10-41-22-54z"/>
            <glyph glyph-name="burger" unicode="&#67;"
                   d="M341 352c0-6-4-11-10-11-6 0-11 5-11 11 0 6 5 11 11 11 6 0 10-5 10-11z m-234-85c0-6-5-11-11-11-6 0-11 5-11 11 0 6 5 10 11 10 6 0 11-4 11-10z m320-128c0-6-5-11-11-11-6 0-11 5-11 11 0 6 5 10 11 10 6 0 11-4 11-10z m-278 64c0 6-9 10-21 10-12 0-21-4-21-10 0-6 9-11 21-11 12 0 21 5 21 11z m86 21c0 6-10 11-22 11-11 0-21-5-21-11 0-6 10-11 21-11 12 0 22 5 22 11z m-128-43c0 6-10 11-22 11-11 0-21-5-21-11 0-6 10-10 21-10 12 0 22 4 22 10z m106 0c0 6-9 11-21 11-12 0-21-5-21-11 0-6 9-10 21-10 12 0 21 4 21 10z m-42 64c0 6-10 11-22 11-11 0-21-5-21-11 0-6 10-10 21-10 12 0 22 4 22 10z m106-64c0 6-9 11-21 11-12 0-21-5-21-11 0-6 9-10 21-10 12 0 21 4 21 10z m212 175c-5 7-7 13-11 22-2 4-4 10-7 15-2 4-4 10-6 12-4 2-13 0-19 0-7 0-11 0-17 0-15 0-30 0-45 0-21 0-43 0-64 0l0 54c0 6-4 10-11 10l-85 0c-6 0-11-4-11-10 0-7 5-11 11-11l75 0 0-43c-24 0-45 0-69 0-6 0-12 0-19 0-4 0-13 2-15-2-4-2-4-10-6-13-2-6-4-10-9-15-2-6-6-12-8-19-2-2-2-8 0-10 2-3 4-5 8-5l13 0 13-51c0 0 0 0 0-2 0-2 0-2 0-4-15 4-30 6-45 6-15 0-28-2-43-4-6-2-10-7-8-13 2-6 6-11 13-8 13 2 25 4 38 4 13 0 24-2 36-4 7-3 11-3 17-5 22-8 41-17 56-32 13-13 23-32 26-51 0-2 0-4 0-4 0-4 0-7 0-11l-263 0c0 4 0 7 0 11 0 28 15 53 41 70 4 4 6 11 2 15-4 4-11 7-15 2-32-21-51-53-51-87 0-7 2-13 2-19-7-5-13-13-13-24 0-6 2-11 6-17 3-4 5-8 9-11 2-2 4-2 4-4 0-2-2-4-2-6l0-30c0-17 15-32 32-32l224 0c2 0 2 0 4 0 0-7 5-11 11-11l107 0c4 0 8 4 10 9l13 64c2 8-6 13-13 13l-2 0c-30 0-57 0-87 0l0 2c6 6 8 12 8 23 0 9-4 17-10 24 2 6 2 10 2 17 0 4 0 10-2 15l100 0-2-9c0-6 2-11 8-13 7 0 11 5 13 9l34 168 13 0c4 0 6 2 9 5 2 4 2 6 0 10z m-244-239c5-6 11-10 20-15l-39 0c9 5 15 9 19 15z m-10 24c-5-13-15-22-30-22-15 0-26 9-28 22z m-71-24c5-6 11-10 17-12l-34 0c7 2 13 6 17 12z m-15 22c0-13-12-22-27-22-15 0-26 11-30 22z m-68-22c4-6 11-10 17-12l-32 0c7 2 11 6 15 12z m-49 2c-6 3-11 7-11 11 0 9 9 9 9 9l40 0c-2-11-12-20-27-20-2 0-5 0-7 0-2 0-2 0-4 0z m252-55c0-6-5-11-11-11l-224 0c-6 0-11 5-11 11l0 19 246 0z m0 53c-13 0-26 9-28 22 0 0 30 0 32 0 2 2 4 2 4 2 2 0 5 0 7-2 6-2 8-11 2-17-4-5-11-5-17-5z m111-32l-9-42-89 0c4 6 8 12 8 21l0 21c2 0 2 0 4 0z m25 124c-2 0-2 0-4 0l-109 0c-13 30-40 53-74 68l200 0z m-36 132l62 0-9-42-209 0-10 42 59 0c7 0 11 5 11 11 0 6-4 11-11 11-25 0-53 0-79 0l11 21 243 0 11-21-79 0c-6 0-11-5-11-11 0-6 5-11 11-11z"/>
            <glyph glyph-name="button" unicode="&#68;"
                   d="M448 128l-384 0c-36 0-64 30-64 64l0 128c0 36 30 64 64 64l384 0c36 0 64-30 64-64l0-128c0-34-30-64-64-64z"/>
            <glyph glyph-name="button-group" unicode="&#69;"
                   d="M448 363c23 0 43-20 43-43l0-128c0-23-20-43-43-43l-149 0 0 214 149 0m0 21l-171 0 0-256 171 0c36 0 64 30 64 64l0 128c0 34-30 64-64 64z m-213 0l-171 0c-34 0-64-30-64-64l0-128c0-36 30-64 64-64l171 0z"/>
            <glyph glyph-name="calculator" unicode="&#70;"
                   d="M412 495l-312 0c-34 0-59-26-59-58l0-362c0-32 25-58 57-58l314 0c32 0 57 26 57 58l0 362c2 32-25 58-57 58z m40-420c0-22-17-39-38-39l-314 0c-21 0-38 17-38 39l0 362c0 22 17 39 38 39l314 0c21 0 38-17 38-39z m-292 256c0-11-9-20-19-20-11 0-19 9-19 20 0 10 8 19 19 19 10 0 19-9 19-19z m77 0c0-11-9-20-19-20-11 0-20 9-20 20 0 10 9 19 20 19 10 0 19-9 19-19z m79 0c0-11-9-20-19-20-11 0-20 9-20 20 0 10 9 19 20 19 10 0 19-9 19-19z m77 0c0-11-9-20-20-20-10 0-19 9-19 20 0 10 9 19 19 19 11 0 20-9 20-19z m-233-79c0-11-9-19-19-19-11 0-19 8-19 19 0 10 8 19 19 19 10 0 19-9 19-19z m77 0c0-11-9-19-19-19-11 0-20 8-20 19 0 10 9 19 20 19 10 0 19-9 19-19z m-96-60c-11 0-19-9-19-19 0-11 8-19 19-19 10 0 19 8 19 19 0 10-9 19-19 19z m96-19c0-11-9-19-19-19-11 0-20 8-20 19 0 10 9 19 20 19 10 0 19-9 19-19z m79 79c0-11-9-19-19-19-11 0-20 8-20 19 0 10 9 19 20 19 10 0 19-9 19-19z m0-79c0-11-9-19-19-19-11 0-20 8-20 19 0 10 9 19 20 19 10 0 19-9 19-19z m79 79c0-11-9-19-20-19-10 0-19 8-19 19 0 10 9 19 19 19 11 0 20-9 20-19z m-254-139c-11 0-19-8-19-19 0-11 8-19 19-19 10 0 19 8 19 19 0 11-9 19-19 19z m96-19c0-11-9-19-19-19-11 0-20 8-20 19 0 10 9 19 20 19 10 0 19-9 19-19z m79 0c0-11-9-19-19-19-11 0-20 8-20 19 0 10 9 19 20 19 10 0 19-9 19-19z m-175 292l230 0c11 0 22 9 22 21 0 13-9 22-22 22l-230 0c-11 0-22-9-22-22 0-12 9-21 22-21z m232-194c-10 0-19-9-19-19l0-79c0-11 9-19 19-19 11 0 20 8 20 19l0 79c0 10-9 19-20 19z"/>
            <glyph glyph-name="calendar" unicode="&#71;"
                   d="M457 491l-52 0 0 21-21 0 0-21-256 0 0 21-21 0 0-21-52 0c-29 0-55-24-55-54l0-384c0-30 26-53 55-53l402 0c29 0 55 23 55 53l0 384c0 30-26 54-55 54z m-402-22l52 0 0-21 21 0 0 21 256 0 0-21 21 0 0 21 52 0c19 0 34-15 34-32l0-32-470 0 0 32c0 17 15 32 34 32z m402-448l-402 0c-19 0-34 15-34 32l0 331 470 0 0-331c0-17-15-32-34-32z m-350 299c0-12-10-21-22-21-11 0-21 9-21 21 0 12 10 21 21 21 12 0 22-9 22-21z m106 0c0-12-9-21-21-21-12 0-21 9-21 21 0 12 9 21 21 21 12 0 21-9 21-21z m107 0c0-12-10-21-21-21-12 0-22 9-22 21 0 12 10 21 22 21 11 0 21-9 21-21z m107 0c0-12-10-21-22-21-11 0-21 9-21 21 0 12 10 21 21 21 12 0 22-9 22-21z m-320-107c0-11-10-21-22-21-11 0-21 10-21 21 0 12 10 22 21 22 12 0 22-10 22-22z m106 0c0-11-9-21-21-21-12 0-21 10-21 21 0 12 9 22 21 22 12 0 21-10 21-22z m107 0c0-11-10-21-21-21-12 0-22 10-22 21 0 12 10 22 22 22 11 0 21-10 21-22z m107 0c0-11-10-21-22-21-11 0-21 10-21 21 0 12 10 22 21 22 12 0 22-10 22-22z m-320-106c0-12-10-22-22-22-11 0-21 10-21 22 0 11 10 21 21 21 12 0 22-10 22-21z m106 0c0-12-9-22-21-22-12 0-21 10-21 22 0 11 9 21 21 21 12 0 21-10 21-21z m107 0c0-12-10-22-21-22-12 0-22 10-22 22 0 11 10 21 22 21 11 0 21-10 21-21z m107 0c0-12-10-22-22-22-11 0-21 10-21 22 0 11 10 21 21 21 12 0 22-10 22-21z"/>
            <glyph glyph-name="camera" unicode="&#72;"
                   d="M341 75c0-6-4-11-10-11-6 0-11 5-11 11 0 6 5 10 11 10 6 0 10-4 10-10z m-149 234c0-6-5-10-11-10-6 0-10 4-10 10 0 6 4 11 10 11 6 0 11-5 11-11z m256 96c-4 26-26 43-53 43l-64 0c-26 0-47-17-54-43l-128 0c0 24-19 43-42 43-24 0-43-19-43-43-26-6-43-27-43-53l0-235c0-30 24-53 54-53l192 0c6 0 10 4 10 11 0 6-4 10-10 10l-192 0c-17 0-32 15-32 32l0 235c0 17 15 32 32 32l362 0c17 0 32-15 32-32l0-235c0-17-15-32-32-32l-42 0c-7 0-11-4-11-10 0-7 4-11 11-11l42 0c30 0 54 23 54 53l0 235c0 26-20 47-43 53z m-341 22c12 0 21-9 21-22l-43 0c0 13 9 22 22 22z m224 0l64 0c12 0 25-9 30-22l-124 0c4 13 17 22 30 22z m-75-77c-13 0-26-2-38-7-7-2-9-6-7-12 2-7 7-9 13-7 11 2 21 5 32 5 53 0 96-43 96-96 0-54-43-96-96-96-53 0-96 42-96 96 0 12 2 25 6 36 3 6 0 13-6 15-4 2-11 0-13-5-6-14-8-29-8-44 0-64 53-118 117-118 64 0 117 54 117 116 0 64-53 117-117 117z m0-179c36 0 64 27 64 64 0 36-28 64-64 64-36 0-64-28-64-64 0-37 28-64 64-64z m0 106c23 0 43-19 43-42 0-24-20-43-43-43-23 0-43 19-43 43 0 23 20 42 43 42z"/>
            <glyph glyph-name="card" unicode="&#73;"
                   d="M459 469l-406 0c-30 0-53-23-53-53l0-299c0-30 23-53 53-53l406 0c30 0 53 23 53 53l0 299c0 30-23 53-53 53z m32-352c0-17-15-32-32-32l-406 0c-17 0-32 15-32 32l0 182 470 0z m-470 203l0 96c0 17 15 32 32 32l406 0c17 0 32-15 32-32l0-96z m203 64l-128 0c-6 0-11-4-11-11 0-6 5-10 11-10l128 0c6 0 11 4 11 10 0 7-5 11-11 11z m-128-192l299 0c6 0 10 4 10 11 0 6-4 10-10 10l-299 0c-6 0-11-4-11-10 0-7 5-11 11-11z"/>
            <glyph glyph-name="card-group" unicode="&#74;"
                   d="M164 299l-89 0c-7 0-11-5-11-11 0-6 4-11 11-11l89 0c7 0 11 5 11 11 0 6-4 11-11 11z m-89-150l211 0c4 0 11 5 11 11 0 6-5 11-11 11l-211 0c-7 0-11-5-11-11 0-6 4-11 11-11z m239 278l-90 0c-6 0-11-5-11-11 0-6 5-11 11-11l90 0c6 0 10 5 10 11 0 6-4 11-10 11z m145 64l-256 0c-30 0-54-24-54-52l0-76-96 0c-30 0-53-24-53-52l0-174c0-28 23-52 53-52l256 0c30 0 54 24 54 49l0 79 96 0c30 0 53 24 53 52l0 174c0 28-23 52-53 52z m-116-357c0-17-14-29-32-29l-258 0c-17 0-32 12-32 29l0 79 322 0z m0 101l-322 0 0 76c0 18 13 32 32 32l258 0c18 0 32-14 32-32z m150 27c0-17-15-29-32-29l-98 0 0 78c0 28-24 52-52 52l-140 0 0 76c0 18 15 30 32 30l258 0c17 0 32-12 32-30z"/>
            <glyph glyph-name="carousel" unicode="&#75;"
                   d="M141 128l-111 0c-4 0-9 4-9 11 0 6 5 10 9 10l109 0c6 0 10-4 10-10 0-7-4-11-8-11z m341 0l-109 0c-4 0-8 4-8 11 0 6 4 10 8 10l109 0c4 0 9-4 9-10 0-7-5-11-9-11z m-171 0l-110 0c-5 0-9 4-9 11 0 6 4 10 9 10l108 0c5 0 9-4 9-10 0-7-2-11-7-11z m-12 117c0-6-5-10-13-10l-79 0c-4 0-6 2-9 4-2 2-2 4-2 8 0 5 2 9 5 11l46 51c7 7 11 13 13 17 2 5 5 11 5 17 0 7-3 11-7 15-4 3-8 5-15 5-6 0-10-2-17-5-6-2-11-4-17-8-2 0-2-2-4-2-2 0-2 0-4 0-3 0-5 2-7 4-2 0-2 4-2 6 0 3 0 5 2 5 0 2 2 2 4 4 7 4 13 8 22 11 6 4 15 6 23 6 15 0 26-4 34-11 9-6 13-17 13-30 0-8-2-17-6-23-5-6-11-15-19-26l-35-38 56 0c8 0 13-2 13-11z"/>
            <glyph glyph-name="chart-area" unicode="&#76;"
                   d="M501 314c0 2 0 2 0 2 0 0 0 2-2 2 0 0 0 0 0 2 0 0 0 0-2 2 0 0-2 2-2 2 0 0-2 2-2 2 0 0-2 0-2 3 0 0-2 0-2 0 0 0-3 0-3 0 0 0 0 0-2 0 0 0-2 0-2 0 0 0-2 0-2-3 0 0 0 0-2 0l-77-49-49 101c-2 4-6 8-13 8-4 0-10 0-15-4l-143-143-47 47c-4 4-8 4-12 4-5 0-9-2-11-6l-73-96 0 298c0 9-6 17-17 17-10 0-15-8-15-17l0-465c0-8 7-17 17-17l466 0c8 0 17 7 17 17l-5 293c0-3 0-3 0 0z m-377-67l47-44c6-7 17-7 23 0l139 138 49-96c2-4 6-6 11-8 4-2 8 0 12 2l69 43 0-101-71-44-77 115-115-156-83 60-90-120 0 96z"/>
            <glyph glyph-name="chart-area-new" unicode="&#77;"
                   d="M491 36l-455 0 0 269 133-100c6-4 12-4 19 0l87 81 209-122c2-2 5-2 7-2 4 0 10 2 12 7 5 6 3 14-4 19l-217 128c-7 4-13 4-20 0l-85-81-141 106 0 150c0 8-6 15-15 15-8 0-15-7-15-15l0-470c0-8 7-15 15-15l470 0c8 0 15 7 15 15 0 9-7 15-15 15z"/>
            <glyph glyph-name="chart-bar" unicode="&#78;"
                   d="M493 36l-455 0 0 69 205 0c11 0 19 8 19 19 0 10-8 19-19 19l-205 0 0 43 431 0c11 0 20 8 20 19 0 10-9 19-20 19l-431 0 0 77 205 0c11 0 19 8 19 19 0 11-8 19-19 19l-205 0 0 43 431 0c11 0 20 8 20 19 0 11-9 17-20 17l-431 0 0 73c0 8-6 15-15 15-8 0-14-7-14-15l0-470c0-8 6-15 14-15l470 0c8 0 15 7 15 15 0 9-7 15-15 15z"/>
            <glyph glyph-name="chart-composed" unicode="&#79;"
                   d="M425 92c40 42 66 100 66 164 0 64-26 122-69 164 0 0 0 2-2 2 0 0 0 0-2 0-40 43-98 69-162 69-64 0-124-26-164-69-45-42-71-102-71-166 0-64 26-122 69-164 0 0 0-2 2-2 0 0 2 0 2-3 40-40 98-66 162-66 64 0 122 26 164 66 0 0 2 0 2 3 0 0 0 2 3 2z m-13 27l-26 26c24 30 41 68 41 111 0 43-15 81-41 109l26 25c32-36 51-83 51-136 0-49-19-98-51-135z m-194 137c0 21 17 38 38 38 21 0 38-17 38-38 0-21-17-38-38-38-21 0-38 17-38 38z m74 55c-10 7-23 11-36 11-13 0-26-4-36-11l-54 56c26 21 56 32 90 32 34 0 66-13 90-32z m-91-19c-7-10-11-23-11-36 0-13 4-26 11-36l-54-54c-21 26-32 56-32 90 0 34 13 66 32 90z m19-91c10-7 23-11 36-11 13 0 26 4 36 11l54-54c-26-19-56-32-90-32-34 0-66 13-90 32z m91 19c7 10 11 23 11 36 0 13-4 26-11 36l54 54c19-26 32-56 32-90 0-34-13-66-32-90z m82 192l-26-26c-30 24-68 41-111 41-43 0-81-15-111-41l-26 26c37 32 86 51 137 51 51 0 100-19 137-51z m-293-19l26-26c-24-30-41-68-41-111 0-43 15-81 41-111l-26-26c-32 37-51 84-51 137 0 51 19 100 51 137z m19-293l26 26c30-26 68-41 111-41 43 0 81 15 111 41l26-26c-37-32-84-51-137-51-51 0-100 19-137 51z"/>
            <glyph glyph-name="chart-line" unicode="&#80;"
                   d="M491 36l-446 0 55 109 60-51c2-2 6-4 11-4 4 0 8 2 10 6l143 179 49-53c2-2 7-4 11-4 4 0 9 2 11 6l106 130c5 7 5 15-2 21-6 5-15 5-21-2l-94-117-49 53c-2 2-6 5-11 5-4 0-8-3-10-7l-145-181-62 53c-5 2-9 4-13 4-4 0-9-4-11-8l-47-94 0 410c0 8-6 15-15 15-8 0-15-7-15-15l0-470c0 0 0-2 0-2 0 0 0-2 0-2 0 0 0-2 3-2 0 0 0-2 2-2 0 0 2-2 2-2 0 0 0 0 2-2 2 0 4-3 6-3l470 0c8 0 15 7 15 15 0 9-7 15-15 15z"/>
            <glyph glyph-name="chart-pie" unicode="&#81;"
                   d="M218 486c-111-17-197-115-197-230 0-130 105-235 235-235 115 0 213 86 230 197l-268 0z m38 5l0-235 235 0c0 130-105 235-235 235z"/>
            <glyph glyph-name="chart-radar" unicode="&#82;"
                   d="M461 367c0 2 0 4-2 6-2 2-2 5-5 5l-192 111c-2 2-4 2-6 2-2 0-4 0-6-2l-192-111c-3 0-5-3-5-5-2-2-2-4-2-6l0-222c0-2 0-4 2-6 2-2 2-5 5-5l192-111c2-2 4-2 6-2 2 0 4 0 6 2l192 111c3 3 5 3 5 5 2 2 2 4 2 6z m-382-24l72-42 0-90-72-42z m164-283l-149 87 72 43 77-45z m0 115l-51 28 49 27 0-55z m-64 53l0 58 49-28z m64 51l-51 30 49 28 0-58z m0 90l-77-45-72 43 149 87z m26 83l149-87-72-43-77 45z m0-115l51-28-49-27 0 55z m64-53l0-58-49 30z m-64-51l49-28-49-28z m0-173l0 85 77 45 72-43z m164 109l-72 42 0 90 72 42z"/>
            <glyph glyph-name="chart-radial" unicode="&#83;"
                   d="M271 491l0-231 220 0c-2 124-98 222-220 231z m160-391c32 37 53 81 60 130l-197 0z m-190 391c-122-9-220-109-220-235 0-60 24-115 60-156l160 152z m-139-412c41-36 94-58 154-58 60 0 113 22 154 58l-154 147z"/>
            <glyph glyph-name="chart-scatter" unicode="&#84;"
                   d="M491 36l-455 0 0 455c0 8-6 15-15 15-8 0-15-7-15-15l0-470c0-8 7-15 15-15l470 0c8 0 15 7 15 15 0 9-7 15-15 15z m-333 239c0-21-17-38-39-38-21 0-38 17-38 38 0 21 17 39 38 39 22 0 39-18 39-39z m136 139c0-21-17-39-38-39-21 0-38 18-38 39 0 21 17 38 38 38 21 0 38-17 38-38z m0-256c0-21-17-39-38-39-21 0-38 18-38 39 0 21 17 38 38 38 21 0 38-17 38-38z m118 139c0-22-17-39-39-39-21 0-38 17-38 39 0 21 17 38 38 38 22 0 39-17 39-38z"/>
            <glyph glyph-name="chart-tree" unicode="&#85;"
                   d="M348 201c-22 0-37-18-37-37 0-4 0-6 3-10l-43-35 0 131 60 49c4-2 10-5 17-5 21 0 36 17 36 37 0 21-17 36-36 36-22 0-37-17-37-36 0-5 0-7 3-11l-43-34 0 192c-2 6-9 13-15 13-9 0-13-7-13-13l0-117-42 34c2 4 2 8 2 10 0 22-17 37-37 37-19 0-38-17-38-39 0-21 17-36 36-36 7 0 11 2 17 4l60-47 0-130-43 34c3 5 3 9 3 11 0 21-18 36-37 36-19 0-36-17-36-36 0-21 17-36 36-36 7 0 11 2 17 4l60-47 0-122c0-8 6-12 13-12 8 0 13 6 13 12l0 47 59 49c5-2 11-4 17-4 22 0 37 17 37 36 4 20-13 35-32 35z"/>
            <glyph glyph-name="charts" unicode="&#86;"
                   d="M484 43l-411 0c-18 0-30 19-30 34l0 414c0 6 6 10 10 10 5 0 11-6 11-10l0-412c0-6 6-15 9-15l413 0c7 0 11-4 11-11 0-6-6-10-13-10z m-324 106c-6 0-11 7-11 13l0 83c0 5 5 11 11 11 6 0 11-6 11-13l0-83c0-4-5-11-11-11z m107 0c-7 0-11 5-11 11l0 149c0 7 4 11 11 11 6 0 10-4 10-11l0-147c0-8-4-13-10-13z m106 0c-6 0-10 5-10 11l0 192c0 6 4 11 10 11 7 0 11-5 11-11l0-192c0-6-4-11-11-11z"/>
            <glyph glyph-name="chat-app" unicode="&#87;"
                   d="M171 11c-5 0-11 2-15 4-11 6-17 17-17 28l0 62c-60 38-94 100-94 170 0 54 21 105 62 143 42 41 98 62 158 62 110-2 204-92 206-198 3-54-19-107-57-145-39-41-94-64-152-67l-68-53c-11-4-17-6-23-6z m85 448c-51 0-100-20-137-56-36-34-55-79-55-128 0-64 34-121 90-156 2-2 4-6 4-8l0-68c0-7 4-9 6-9 5-2 9-2 13 2l73 56c2 2 4 2 6 2 53 0 105 21 141 60 34 36 53 81 51 130-2 96-85 175-186 177-2-2-4-2-6-2z m-85-182c0-11-10-21-22-21-11 0-21 10-21 21 0 12 10 22 21 22 12 0 22-10 22-22z m106 0c0-11-9-21-21-21-12 0-21 10-21 21 0 12 9 22 21 22 12 0 21-10 21-22z m107 0c0-11-10-21-21-21-12 0-22 10-22 21 0 12 10 22 22 22 11 0 21-10 21-22z"/>
            <glyph glyph-name="chat-app2" unicode="&#88;"
                   d="M256 512c-141 0-256-115-256-256 0-141 115-256 256-256 141 0 256 115 256 256 0 141-115 256-256 256z m139-386l-56 55-162 0c-21 0-38 17-38 39l0 136c0 22 17 39 38 39l177 0c21 0 39-17 39-39l0-230z m-139 109c-26 0-51 10-73 30-4 4-4 10 0 14 5 5 11 5 15 0 32-32 81-32 113 0 5 5 11 5 15 0 5-4 5-10 0-14-17-22-42-30-70-30z"/>
            <glyph glyph-name="chatbull" unicode="&#89;"
                   d="M141 323l61 0 0-61c0-6 3-9 9-12 3 0 3-4 7-4 3 0 6 0 9 4l103 73 41 0c35 0 67 29 67 67l0 36c0 9-6 16-16 16-9 0-16-7-16-16l0-36c0-19-16-35-35-35l-45 0c-6-3-9-3-9-6l-83-58 0 48c0 7-7 13-16 13l-77 0c-19 0-35 16-35 35l0 42c0 9-7 16-16 16-10 0-16-7-16-16l0-39c3-38 32-67 67-67z m368-102l-77 77c-3 3-10 6-13 3-3 0-9-3-9-10l-36-67-80 0c-6 3-9 0-12-6-4-4-4-10 0-16l41-77-13-29-108 0-13 32 41 77c4 3 4 9 0 16-3 3-6 6-12 6l-80 0-32 67c-4 4-7 7-13 7-7 0-10 0-13-3l-77-77c-3-3-3-10-3-16 3-7 6-10 13-10l105 0c0 0 42-83 42-83l16-35c3-7 6-10 13-10l128 0c6 0 9 3 13 10l60 118 106 0c6 0 13 3 13 10 0 6 3 13 0 16z m-458 6l35 35 20-35z m122-67l-19 35 38 0z m166 0l-19 35 38 0z m67 67l20 35 35-35z"/>
            <glyph glyph-name="check" unicode="&#90;"
                   d="M171 126c-2 0-7 2-9 4l-128 143c-4 4-4 11 0 15 4 4 11 4 15 0l122-137 292 233c4 4 11 2 15-2 4-4 2-11-2-15l-299-239c-2 0-4-2-6-2z"/>
            <glyph glyph-name="chevrolet-down" unicode="&#48;"
                   d="M245 192c-2 0-6 0-8 2l-128 128c-2 4-2 13 0 17 2 4 10 4 15 0l119-119 120 119c4 4 10 4 15 0 4-4 4-10 0-15l-128-128c2-4-3-4-5-4z"/>
            <glyph glyph-name="chevrolet-left" unicode="&#49;"
                   d="M171 267c0 2 0 6 2 8l128 128c4 4 10 4 15 0 4-4 4-10 0-15l-120-119 120-120c4-4 4-10 0-15-5-4-11-4-15 0l-128 128c-2-2-2 3-2 5z"/>
            <glyph glyph-name="chevrolet-right" unicode="&#50;"
                   d="M320 267c0-2 0-7-2-9l-128-128c-4-4-11-4-15 0-4 4-4 11 0 15l119 120-121 121c-2 4-2 13 0 17 2 4 10 4 15 0l128-128c4-2 4-6 4-8z"/>
            <glyph glyph-name="chevrolet-up" unicode="&#51;"
                   d="M245 341c2 0 7 0 9-2l128-128c4-4 4-10 0-15-4-4-11-4-15 0l-120 120-119-120c-4-4-11-4-15 0-4 5-4 11 0 15l128 128c-2 2 2 2 4 2z"/>
            <glyph glyph-name="circle-add-o" unicode="&#52;"
                   d="M256 512c-141 0-256-115-256-256 0-141 115-256 256-256 141 0 256 115 256 256 0 141-115 256-256 256z m0-491c-130 0-235 105-235 235 0 130 105 235 235 235 130 0 235-105 235-235 0-130-105-235-235-235z m128 246l-117 0 0 117c0 6-5 11-11 11-6 0-11-5-11-11l0-117-117 0c-6 0-11-5-11-11 0-6 5-11 11-11l117 0 0-117c0-6 5-11 11-11 6 0 11 5 11 11l0 117 117 0c6 0 11 5 11 11 0 6-5 11-11 11z"/>
            <glyph glyph-name="circle-check" unicode="&#53;"
                   d="M256 512c-143 0-256-113-256-256 0-143 113-256 256-256 143 0 256 113 256 256 0 143-113 256-256 256z m117-175l-147-175c-2-4-4-4-8-4-3 0-7 2-9 4l-72 73c-5 4-5 10 0 17 6 4 12 4 17 0l59-62 139 162c4 4 11 4 17 2 6-4 6-13 4-17z"/>
            <glyph glyph-name="circle-check-o" unicode="&#54;"
                   d="M256 512c-141 0-256-115-256-256 0-141 115-256 256-256 141 0 256 115 256 256 0 141-115 256-256 256z m0-491c-130 0-235 105-235 235 0 130 105 235 235 235 130 0 235-105 235-235 0-130-105-235-235-235z m92 322l-128-149-56 58c-4 4-10 4-15 0-4-5-4-11 0-15l64-66c2-2 7-5 9-5 4 0 6 0 8 5l135 160c2 4 2 10-2 15-5 2-11 2-15-3z"/>
            <glyph glyph-name="circle-minus-o" unicode="&#55;"
                   d="M256 512c-141 0-256-115-256-256 0-141 115-256 256-256 141 0 256 115 256 256 0 141-115 256-256 256z m0-491c-130 0-235 105-235 235 0 130 105 235 235 235 130 0 235-105 235-235 0-130-105-235-235-235z m128 246l-256 0c-6 0-11-5-11-11 0-6 5-11 11-11l256 0c6 0 11 5 11 11 0 6-5 11-11 11z"/>
            <glyph glyph-name="circle-o" unicode="&#56;"
                   d="M256 0c-141 0-256 115-256 256 0 141 115 256 256 256 141 0 256-115 256-256 0-141-115-256-256-256z m0 491c-130 0-235-105-235-235 0-130 105-235 235-235 130 0 235 105 235 235 0 130-105 235-235 235z"/>
            <glyph glyph-name="circle-remove-o" unicode="&#57;"
                   d="M256 512c-141 0-256-115-256-256 0-141 115-256 256-256 141 0 256 115 256 256 0 141-115 256-256 256z m0-491c-130 0-235 105-235 235 0 130 105 235 235 235 130 0 235-105 235-235 0-130-105-235-235-235z m102 337c-4 5-10 5-15 0l-87-87-87 87c-5 5-11 5-15 0-5-4-5-10 0-15l87-87-87-87c-5-5-5-11 0-15 4-5 10-5 15 0l87 87 87-87c5-5 11-5 15 0 7 4 7 10 0 15l-87 87 87 87c7 5 7 11 0 15z"/>
            <glyph glyph-name="collapse" unicode="&#33;"
                   d="M503 427l-302 0c-5 0-9 4-9 10 0 7 4 11 9 11l300 0c7 0 11-4 11-11 0-6-4-10-9-10z m-473-43c-2 0-4 0-7 2-2 4-2 9 0 13l43 49-36 49c-2 4-2 11 2 13 4 2 9 2 13-2l40-56c0-4 0-8-2-10l-47-56c-2-2-4-2-6-2z m473-149l-302 0c-5 0-9 4-9 10 0 7 4 11 9 11l300 0c5 0 9-4 9-11 0-6-2-10-7-10z m0-192l-302 0c-5 0-9 4-9 10 0 7 4 11 9 11l300 0c5 0 9-4 9-11 0-6-2-10-7-10z m-439 170c-2 0-4 0-6 2l-56 47c-4 3-4 9 0 13 4 4 9 4 13 0l49-40 49 40c4 2 9 2 13 0 4-4 2-8 0-13l-56-47c-2-2-4-2-6-2z"/>
            <glyph glyph-name="color-picker" unicode="&#34;"
                   d="M483 483c-38 39-96 39-134 0l-61-61-22 26c-20 19-52 19-71 0-9-10-16-22-16-35 0-13 7-26 16-35l23-26-205-205c-7-9-13-19-13-29l0-76c0-4 3-10 6-13l23-23c0-3 6-6 9-6l80 0c10 0 23 3 29 13l205 205 22-23c10-9 23-16 36-16 12 0 25 7 35 16 19 19 19 51 0 71l-23 22 61 61c39 38 39 99 0 134z m-205-288l-230-61 195 196 83-84z m141 26c-6-7-13-7-19 0l-179 182c-3 0-7 3-7 10 0 6 0 6 4 9 3 4 6 4 9 4 3 0 7 0 10-4l179-179c10-6 10-16 3-22z m39 153l-61-60-83 83 60 61c23 22 61 22 84 0 25-23 25-61 0-84z"/>
            <glyph glyph-name="company" unicode="&#35;"
                   d="M448 333l-141 0 0 115c0 8-5 13-13 13l-256 0c-7 0-12-5-12-13l0-384c0-8 5-13 12-13l410 0c8 0 13 5 13 13l0 77c0 7-5 13-13 13-8 0-13-6-13-13l0-64-128 0 0 230 128 0 0-64c0-7 5-13 13-13 8 0 13 6 13 13l0 77c0 8-5 13-13 13z m-397 102l231 0 0-358-52 0 0 77 13 0c8 0 13 5 13 12 0 8-5 13-13 13l-153 0c-8 0-13-5-13-13 0-7 5-12 13-12l12 0 0-77-51 0z m77-358l0 77 77 0 0-77z m-51 333l25 0 0-26-25 0z m256-128l25 0 0-26-25 0z m51 0l26 0 0-26-26 0z m-51-52l25 0 0-25-25 0z m51 0l26 0 0-25-26 0z m-51-51l25 0 0-25-25 0z m51 0l26 0 0-25-26 0z m-256 231l26 0 0-26-26 0z m51 0l26 0 0-26-26 0z m51 0l26 0 0-26-26 0z m-153-52l25 0 0-25-25 0z m51 0l26 0 0-25-26 0z m51 0l26 0 0-25-26 0z m51 0l26 0 0-25-26 0z m-153-51l25 0 0-25-25 0z m51 0l26 0 0-25-26 0z m51 0l26 0 0-25-26 0z m51 0l26 0 0-25-26 0z m-153-51l25 0 0-26-25 0z m51 0l26 0 0-26-26 0z m51 0l26 0 0-26-26 0z m51 0l26 0 0-26-26 0z m231-64c0-7-6-13-13-13-7 0-13 6-13 13 0 7 6 13 13 13 7 0 13-6 13-13z"/>
            <glyph glyph-name="components" unicode="&#36;"
                   d="M211 0c-8 0-15 0-23 4-22 7-41 24-49 47-5 13-7 28-2 41l-62 0c-17 0-32 15-32 32l0 74c0 5 2 7 4 9 2 2 6 2 11 0 23-11 51-2 66 17 10 13 13 32 8 49-4 15-17 28-34 34-13 4-28 4-40-2-5-2-7-2-11 0-2 4-4 6-4 11l0 74c0 17 15 32 32 32l59 0c0 5 0 9 0 15 0 24 11 45 30 60 19 15 45 19 69 11 21-7 40-24 49-47 4-13 6-28 2-41l59 0c18 0 32-15 32-32l0-59c13 2 28 2 43-3 21-8 41-25 47-49 6-23 2-49-13-68-17-23-47-34-77-28l0-59c0-17-14-32-32-32l-59 0c2-5 2-11 2-15 0-24-11-45-30-60-13-11-30-15-45-15z m-147 183l0-59c0-7 4-11 11-11l74 0c5 0 7-2 9-4 2-2 2-7 0-11-7-13-7-28-2-40 6-15 19-28 34-32 17-5 36-3 49 8 15 11 21 26 21 43 0 6-2 15-4 21-2 4-2 7 0 11 2 2 4 4 9 4l74 0c7 0 11 4 11 11l0 74c0 5 2 7 4 9 2 2 7 2 11 0 23-11 51-2 66 17 11 13 13 32 8 49-4 15-17 30-34 34-12 4-27 4-40-2-4-2-7-2-11 0-2 2-4 4-4 9l0 76c0 7-4 11-11 11l-74 0c-5 0-7 2-9 4-2 2-2 7 0 11 6 13 6 28 2 41-6 14-19 27-34 32-15 4-32 2-47-9-15-11-21-26-21-43 0-6 2-15 4-21 2-4 2-6 0-11-2-2-6-4-11-4l-74 0c-7 0-11-6-11-11l0-59c13 2 28 2 43-2 21-11 38-28 44-52 7-23 3-49-12-68-17-21-47-32-75-26z"/>
            <glyph glyph-name="contacts" unicode="&#37;"
                   d="M166 213c54 0 96 43 96 96 0 54-42 96-96 96-53 0-96-42-96-96 0-53 43-96 96-96z m0 171c41 0 75-34 75-75 0-40-34-74-75-74-40 0-74 34-74 74 0 41 32 75 74 75z m5-213c-73 0-135-49-150-118 0-4 2-8 9-10 0 0 2 0 2 0 4 0 9 2 11 8 12 58 66 100 130 100 62 0 115-42 128-98 2-4 6-8 13-6 6 2 8 6 8 11-17 66-81 113-151 113z m217 128c41 0 75 34 75 74 0 41-32 75-75 75-42 0-74-34-74-75 0-40 34-74 74-74z m0 128c30 0 54-24 54-54 0-30-24-53-54-53-30 0-53 23-53 53 0 30 23 54 53 54z m103-222c-17 42-64 72-118 72-53 0-98-30-117-72-2-4 0-11 6-13 7-2 11 0 13 6 15 37 54 60 96 60 43 0 81-23 96-60 2-4 7-6 11-6 2 0 2 0 4 0 7 2 11 9 9 13z"/>
            <glyph glyph-name="contacts-app" unicode="&#38;"
                   d="M166 213c54 0 96 43 96 96 0 54-42 96-96 96-53 0-96-42-96-96 0-53 43-96 96-96z m5-42c-73 0-135-49-150-118 0-4 2-8 9-10 0 0 2 0 2 0 4 0 9 2 11 8 12 58 66 100 130 100 62 0 115-42 128-98 2-4 6-8 13-6 6 2 8 6 8 11-17 66-81 113-151 113z m217 128c41 0 75 34 75 74 0 41-32 75-75 75-42 0-74-34-74-75 0-40 34-74 74-74z m103-94c-17 42-64 72-118 72-53 0-98-30-117-72-2-4 0-11 6-13 7-2 11 0 13 6 15 37 54 60 96 60 43 0 81-23 96-60 2-4 7-6 11-6 2 0 2 0 4 0 7 2 11 9 9 13z"/>
            <glyph glyph-name="courses" unicode="&#39;"
                   d="M422 245l-172 0 0 22 241 0c6 0 10 4 10 10 0 7-4 11-10 11-39 0-71 28-71 62 0 34 32 62 71 62 6 0 10 4 10 10 0 7-4 11-10 11-2 0-5 0-9 0-2 0-2 0-4 0l-388 0c-49-2-90-40-90-85 0-45 41-81 90-81l47 0 0-22-116 0c-6 0-10-4-10-10 0-7 4-11 10-11 39 0 71-28 71-62 0-34-32-60-71-60-6 0-10-4-10-10 0-7 4-11 10-11 2 0 5 0 9 0 2 0 2 0 4 0l388 0c49 0 90 36 90 81 0 45-41 83-90 83z m-264 84l70 0 0-118-32 15c-2 0-2 0-4 0-2 0-2 0-4 0l-32-15 0 118z m-68-43c-39 0-69 28-69 62 0 34 32 62 71 62l341 0c-19-15-32-37-32-62 0-24 13-47 30-62l-181 0 0 51c0 6-5 11-11 11l-92 0c-6 0-10-5-10-11l0-51z m332-184l-341 0c19 15 32 37 32 62 0 24-13 47-30 62l56 0 0-30c0-4 2-6 4-8 2-2 6-2 11 0l40 19 41-19c2 0 2 0 4 0 2 0 4 0 6 2 2 2 5 4 5 8l0 30 172 0c39 0 71-27 71-62 0-34-32-64-71-64z"/>
            <glyph glyph-name="crm" unicode="&#40;"
                   d="M448 169l0 98c0 6-4 10-11 10l-181 0 0 88c38 2 70 34 70 74 0 41-34 75-74 75-41 0-75-34-75-75 0-36 26-64 58-72l0-90-160 0c-7 0-11-4-11-10l0-98c-36-5-64-37-64-73 0-41 34-75 75-75 40 0 74 34 74 75 0 38-27 68-64 73l0 87 342 0 0-87c-37-5-64-37-64-73 0-41 34-75 74-75 41 0 75 34 75 75 0 38-28 68-64 73z m-250 270c0 30 24 54 54 54 30 0 53-24 53-54 0-29-23-53-53-53-30 0-54 24-54 53z m-70-343c0-30-23-53-53-53-30 0-54 23-54 53 0 30 24 53 54 53 30 0 53-23 53-53z m309-53c-30 0-53 23-53 53 0 30 23 53 53 53 30 0 54-23 54-53 0-30-24-53-54-53z"/>
            <glyph glyph-name="crypto" unicode="&#41;"
                   d="M405 326l0 5c0 44-30 74-79 74l-70 0 0 96c0 7-4 11-11 11-6 0-10-4-10-11l0-96-64 0 0 96c0 7-5 11-11 11-6 0-11-4-11-11l0-96-25 0c-7 0-11-4-11-10 0-7 4-11 11-11l25 0 0-107-32 0c-6 0-10-4-10-10 0-7 4-11 10-11l32 0 0-107-32 0c-6 0-10-4-10-10 0-7 4-11 10-11l32 0 0-117c0-7 5-11 11-11 6 0 11 4 11 11l0 117 64 0 0-117c0-7 4-11 10-11 7 0 11 4 11 11l0 117 60 0c42 0 89 23 89 70l0 5c0 30-15 53-38 66 21 10 38 30 38 57z m-21-121l0-4c0-37-34-52-68-52l-145 0 0 107 145 0c6 0 13 0 19 2 30-4 49-21 49-53z m0 124c0-37-34-52-68-52l-145 0 0 107 155 0c37 0 58-19 58-55z"/>
            <glyph glyph-name="customer" unicode="&#42;"
                   d="M314 267c0 0-3 0 0 0-3 0-3 0 0 0 42 21 72 66 72 117 0 70-57 128-128 128-72 0-130-58-130-128 0-51 30-94 70-115-66-24-115-88-115-160l0-96c0-7 4-11 11-11 6 0 11 4 11 11l0 94c0 66 44 126 108 143 0-3 0-5 0-5 0-12 9-25 20-30l-20-138c0-2 0-4 2-7l43-64c2-2 4-4 9-4 4 0 6 2 8 4l43 64c2 3 2 5 2 7l-19 138c10 5 17 13 19 24 51-26 85-77 85-132l0-96c0-7 5-11 11-11 6 0 11 4 11 11l0 96c0 70-45 134-113 160z m-26-32l-43 0c-6 0-10 4-10 10 0 5 2 9 6 11 4 0 11 0 15 0 6 0 13 0 21 2l11 0c6 0 11-4 11-11 0-6-5-12-11-12z m-139 149c0 60 49 107 107 107 60 0 107-49 107-107 0-53-39-98-90-107l-28 0c-2 0-2 0-4 0-51 7-92 52-92 107z m118-354l-32 47 19 136 23 0 20-136z"/>
            <glyph glyph-name="customers" unicode="&#43;"
                   d="M113 267c49 0 88 38 88 85 0 47-39 85-88 85-49 0-87-38-87-85 0-47 40-85 87-85z m0 151c36 0 68-30 68-64 0-34-30-64-68-64-38 0-68 30-68 64 0 34 32 64 68 64z m0-181c-62 0-113-49-113-109l0-60c0-6 4-10 11-10 6 0 10 4 10 10l0 60c0 49 43 90 94 90 51 0 94-41 94-90l0-64c0-6 4-11 11-11 6 0 10 5 10 11l0 64c-2 60-53 109-117 109z m286 30c49 0 87 38 87 85 0 47-38 85-87 85-49 0-88-38-88-85 0-47 39-85 88-85z m0 151c36 0 68-30 68-64 0-34-30-64-68-64-36 0-68 30-68 64 0 34 30 64 68 64z m0-181c-62 0-113-49-113-109l0-60c0-6 4-10 11-10 6 0 10 4 10 10l0 60c0 49 43 90 94 90 51 0 90-41 90-90l0-64c0-6 4-11 10-11 7 0 11 5 11 11l0 64c0 60-51 109-113 109z"/>
            <glyph glyph-name="customizer" unicode="&#44;"
                   d="M122 66c-13 0-24 4-30 13-9 8-13 19-13 32 0 13 4 23 13 32l138 141c-6 15-8 30-8 47 0 64 55 117 119 117 20 0 37-4 54-13l12-6-70-71 30-29 70 70 7-13c8-17 13-36 13-53 0-66-56-120-122-122-15 0-32 2-47 9l-139-141c-4-6-15-13-27-13z m221 361c-55 0-100-45-100-101 0-15 2-29 11-42l2-7-149-149c-5-4-7-11-7-17 0-6 2-13 7-17 4-4 10-7 17-7 6 0 13 3 17 7l149 149 7-4c14-6 27-11 42-11 54 0 98 45 100 101 0 10-2 21-4 29l-64-64-62 62 64 64c-10 7-19 7-30 7z"/>
            <glyph glyph-name="dashboard" unicode="&#45;"
                   d="M480 149l-115 0c-7 0-11 5-11 11 0 6 4 11 11 11l115 0c2 0 6 2 9 4 2 2 2 4 2 8-11 122-111 222-235 222-124 0-224-100-235-224 0-2 0-6 2-8 3 0 5-2 9-2l87 0c5 0 9-5 9-11 0-6-4-11-11-11l-85 0c-9 0-17 5-23 11-7 6-9 15-9 23 13 135 122 244 256 244 134 0 245-109 256-244 0-8-2-17-9-23-4-6-12-11-23-11z m-237-42c-6 0-15 2-21 4-15 6-26 19-30 34-4 15 0 30 9 45l76 109c5 6 17 23 30 17 13-7 9-28 9-34l-24-133c-2-17-13-30-25-36-7-4-15-6-24-6z m54 181c0 0-3-2-3-4l-76-109c-7-9-9-17-7-26 2-8 9-15 19-19 11-4 20-4 28 0 9 4 13 13 15 21l24 131c0 4 0 6 0 6z"/>
            <glyph glyph-name="dashboard2" unicode="&#46;"
                   d="M256 348c-6 0-11-5-11-9l-19-226c0-2 0-2 0-4 2-17 15-28 32-28 17 2 28 15 28 32l-19 224c0 6-5 11-11 11z m181-273c47 47 75 111 75 181 0 70-28 134-75 181-47 47-111 75-181 75-70 0-134-28-181-75-47-47-75-111-75-181 0-70 28-134 75-181 47-47 111-75 181-75 70 0 134 28 181 75z m-339 8l51 51c5 5 5 11 0 15-4 5-10 5-15 0l-51-51c-36 41-60 92-62 149l71 0c6 0 10 5 10 11 0 7-4 11-10 11l-71 0c2 57 26 109 62 149l51-51c0-4 3-4 7-4 2 0 4 0 6 2 4 4 4 10 0 15l-49 49c41 36 92 60 149 62l0-71c0-6 5-10 11-10 7 0 11 4 11 10l0 71c57-2 109-26 149-62l-51-51c-4-5-4-11 0-15 0 0 2 0 4 0 2 0 4 0 7 2l51 51c36-41 60-92 62-149l-71 0c-6 0-10-5-10-11 0-6 4-11 10-11l71 0c-2-57-26-108-62-149l-51 51c-5 4-11 4-15 0-5-4-5-10 0-15l51-51c-43-38-98-62-158-62-62 2-117 26-158 64z"/>
            <glyph glyph-name="dashboard3" unicode="&#47;"
                   d="M512 230c0 69-28 131-75 177-47 45-111 73-181 73-70 0-134-28-181-73-47-46-75-108-75-177 0-66 28-130 75-177 6-6 12-12 21-19 2-2 4-2 6-2 3 0 7 2 9 4 4 5 2 11-2 15-4 4-9 7-13 11l51 49c4 4 4 11 0 15-4 4-10 4-15 0l-51-49c-38 40-60 92-62 145l71 0c6 0 10 4 10 11 0 6-4 10-10 10l-69 0c2 56 26 107 62 145l51-49c3-2 5-2 7-2 2 0 4 0 6 2 4 4 4 11 0 15l-49 45c41 36 92 58 149 60l0-71c0-6 5-10 11-10 7 0 11 4 11 10l0 71c57-2 109-26 149-60l-51-49c-4-4-4-11 0-15 2-2 4-2 6-2 2 0 5 0 7 2l49 49c36-38 60-90 62-145l-71 0c-6 0-10-4-10-11 0-6 4-10 10-10l71 0c-2-56-24-107-62-145l-51 49c-5 4-11 4-15 0-5-5-5-11 0-15l51-49c-4-5-9-7-13-11-4-4-4-11-2-15 4-4 11-4 15-2 8 6 15 13 21 19 49 51 77 113 77 181z m-256 88c-6 0-11-4-11-9l-12-138c0-2 0-2 0-5 2-12 12-21 25-21 13 2 24 13 21 26l-12 140c0 3-5 7-11 7z m-21-258l-60 0c-6 0-11-5-11-11 0-6 5-11 11-11l60 0c6 0 10 5 10 11 0 6-4 11-10 11z m123 0l-61 0c-7 0-11-5-11-11 0-6 4-11 11-11l61 0c7 0 11 5 11 11 0 6-4 11-11 11z"/>
            <glyph glyph-name="datatable" unicode="&#58;"
                   d="M64 416l128 0 0-64-128 0z m192 0l64 0 0-64-64 0z m128 0l64 0 0-64-64 0z m-320-128l128 0 0-64-128 0z m192 0l64 0 0-64-64 0z m128 0l64 0 0-64-64 0z m-320-128l128 0 0-64-128 0z m192 0l64 0 0-64-64 0z m128 0l64 0 0-64-64 0z"/>
            <glyph glyph-name="date-time-picker" unicode="&#59;"
                   d="M448 480l-32 0 0 21-21 0 0-21-256 0 0 21-22 0 0-21-53 0c-30 0-53-11-53-38l0-380c0-28 23-51 53-51l384 0c30 0 53 23 53 53l0 378c0 27-23 38-53 38z m-384-21l53 0 0-22 22 0 0 22 256 0 0-22 21 0 0 22 32 0c17 0 32 0 32-17l0-26-448 0 0 26c0 17 15 17 32 17z m384-427l-384 0c-17 0-32 13-32 32l0 331 448 0 0-331c0-17-15-32-32-32z m-329 297c0-12-9-22-21-22-12 0-21 10-21 22 0 11 9 21 21 21 12 0 21-10 21-21z m105 0c0-12-10-22-21-22-12 0-22 10-22 22 0 11 10 21 22 21 11 0 21-10 21-21z m107 0c0-12-10-22-22-22-11 0-21 10-21 22 0 11 10 21 21 21 12 0 22-10 22-21z m106 0c0-12-9-22-21-22-12 0-21 10-21 22 0 11 9 21 21 21 12 0 21-10 21-21z m-320-105c0-12-9-21-21-21-12 0-21 9-21 21 0 12 9 21 21 21 12 0 21-9 21-21z m107 0c0-12-10-21-21-21-12 0-22 9-22 21 0 12 10 21 22 21 11 0 21-9 21-21z m107 0c0-12-10-21-22-21-11 0-21 9-21 21 0 12 10 21 21 21 12 0 22-9 22-21z m106 0c0-12-9-21-21-21-12 0-21 9-21 21 0 12 9 21 21 21 12 0 21-9 21-21z m-318-107c0-11-9-21-21-21-12 0-21 10-21 21 0 12 9 22 21 22 12 0 21-10 21-22z m105 0c0-11-10-21-21-21-12 0-22 10-22 21 0 12 10 22 22 22 11 0 21-10 21-22z m107 0c0-11-10-21-22-21-11 0-21 10-21 21 0 12 10 22 21 22 12 0 22-10 22-22z m106 0c0-11-9-21-21-21-12 0-21 10-21 21 0 12 9 22 21 22 12 0 21-10 21-22z"/>
            <glyph glyph-name="description" unicode="&#60;"
                   d="M299 309c0 7-5 11-9 11l-173 0c-6 0-10-4-10-11 0-6 4-10 10-10l171 0c6 0 11 4 11 10z m-45-85c0 6-4 11-9 11l-130 0c-4 0-8-5-8-11 0-6 4-11 8-11l132 0c5 0 7 5 7 11z m-137-75c-6 0-10-4-10-10 0-7 4-11 10-11l86 0c6 0 10 4 10 11 0 6-4 10-10 10z m303 15c-6 0-10-4-10-10l0-101c0-17-13-32-28-32l-333 0c-15 0-28 13-28 32l0 406c0 19 13 32 28 32l228 0 0-96c0-17 13-32 30-32l115 0c3 0 3 0 5 2 2 0 2 0 4 0 4 4 4 8 2 13 0 2-2 2-4 4l-132 126c0 0 0 0-3 0 0 0-2 0-2 2-2 0-2 0-4 0l-239 0c-28 2-49-21-49-51l0-406c0-30 21-53 49-53l333 0c28 0 51 23 49 53l0 101c0 6-4 10-11 10z m-121 233l0 79 98-92-90 0c-4 0-8 4-8 13z m162-58l-43-38 53-51 41 38z m-209-205l-11-64 62 13 158 154-54 51z"/>
            <glyph glyph-name="desktop" unicode="&#61;"
                   d="M432 448l-352 0c-26 0-48-22-48-48l0-224c0-26 22-48 48-48l176 0 0-64-160 0 0-32 352 0 0 32-160 0 0 64 144 0c26 0 48 22 48 48l0 224c0 26-22 48-48 48z m16-272c0-10-6-16-16-16l-352 0c-10 0-16 6-16 16l0 224c0 10 6 16 16 16l352 0c10 0 16-6 16-16z"/>
            <glyph glyph-name="diamond" unicode="&#62;"
                   d="M448 303c0 4-2 6-4 8l-75 67c-2 2-4 2-6 2l-214 0c-2 0-4 0-6 0l-75-66c-2-3-4-7-4-9 0-4 0-6 2-8l53-64c5-7 11-7 15-3 7 5 7 11 3 15l-41 47 96 0 49-185-49 64c-4 4-11 6-15 2-4-2-6-11-2-15l81-111c2-2 2-2 4-4 2 0 2 0 5 0 2 0 2 0 4 2 2 0 4 2 4 2l173 247c0 3 2 5 2 9z m-301 49l30-38-72 0z m130 6l77 0-36-44z m11-44l-62 0 30 34z m-87 2l-32 42 68 0z m100-24l-39-192-51 192z m21-2c2 0 2 2 4 2l92 0-132-190z m21 24l28 34 39-34z m-177-116c0-5-4-10-10-10-6 0-11 5-11 10 0 6 5 11 11 11 6 0 10-5 10-11z m101 205c6 0 10 4 10 11l0 45c0 6-4 10-10 10-7 0-11-4-11-10l0-45c0-7 4-11 11-11z m-141 9c2-2 4-2 6-2 2 0 7 0 7 2 4 4 4 10 0 15l-30 32c-4 4-11 4-15 0-4-5-4-11 0-15z m254-2c2 0 4 0 6 4l30 32c4 4 4 11 0 15-4 4-11 4-15 0l-30-32c-4-4-4-11 0-15 2-2 7-4 9-4z"/>
            <glyph glyph-name="dollar" unicode="&#63;"
                   d="M256 390c35 0 64-25 64-57 0-13 10-23 22-23 13 0 23 10 23 23 0 45-32 80-77 96l0 25c0 13-10 23-22 23-10-7-20-13-20-23l0-19c-54-3-96-45-96-99 0-54 48-99 109-99 35 0 64-26 64-58-3-32-32-57-67-57-35 0-64 25-64 57 0 13-10 23-22 23-13 0-23-10-23-23 0-48 42-96 96-99l0-19c0-13 10-23 23-23 12 0 22 10 22 23l0 22c45 13 77 48 77 96 0 55-48 99-109 99-35 0-64 23-64 55 0 32 29 57 64 57z"/>
            <glyph glyph-name="dollar-circle" unicode="&#64;"
                   d="M256 352c26 0 45-19 45-42 0-9 6-16 16-16 9 0 16 7 16 16 0 32-23 58-55 68l0 19c0 9-6 16-16 16-6-3-12-10-12-16l0-13c-39-3-68-32-68-70 0-39 36-71 77-71 26 0 45-19 45-41-3-23-22-42-48-42-26 0-45 19-45 42 0 9-6 16-16 16-9 0-16-7-16-16 0-36 29-68 67-71l0-13c0-9 7-16 16-16 10 0 16 7 16 16l0 16c32 10 55 36 55 68 0 38-35 70-77 70-26 0-45 16-45 38 0 23 19 42 45 42z m0 160c-141 0-256-115-256-256 0-141 115-256 256-256 141 0 256 115 256 256 0 141-115 256-256 256z m0-483c-125 0-227 102-227 227 0 125 102 227 227 227 125 0 227-102 227-227 0-125-102-227-227-227z"/>
            <glyph glyph-name="donut" unicode="&#91;"
                   d="M478 288c-17 109-109 192-222 192-124 0-224-100-224-224 0-77 38-149 105-190 2-2 6-2 8 0 2 0 6 4 6 7 9 21 28 34 50 34 29 0 53-24 53-54 0-6 4-10 11-10 6 0 10 4 10 10 0 30 24 54 54 54 19 0 36-11 44-26 2-2 5-4 7-4 2 0 6 0 8 2 56 43 88 107 88 177 4 11 4 21 2 32z m-425-32c0 111 92 203 203 203 100 0 183-73 201-169-11-17-24-32-41-43-19-12-45-14-77-10 2 6 2 13 2 21 0 47-38 85-85 85-47 0-85-38-85-85 0-2 0-2 0-4l-2 0c-43-13-73-45-99-77-10 26-17 51-17 79z m267 0c0-36-28-64-64-64-36 0-64 28-64 64 0 36 28 64 64 64 36 0 64-28 64-64z m139 2c0-62-26-117-71-156-15 17-34 26-57 26-28 0-52-15-64-36-13 21-37 36-64 36-26 0-52-15-64-36-24 17-43 38-58 64 26 32 56 66 94 77 11-35 43-62 81-62 32 0 60 17 75 44 10-2 21-2 30-2 25 0 46 7 66 17 12 9 23 20 32 30z m-64 19c6 0 10 5 10 11l0 21c0 7-4 11-10 11-7 0-11-4-11-11l0-21c0-6 4-11 11-11z m-288-32l0 22c0 6-5 10-11 10-6 0-11-4-11-10l0-22c0-6 5-10 11-10 6 0 11 4 11 10z m2 77c2 0 6 0 8 2l15 17c5 5 5 11 0 15-4 5-10 5-15 0l-15-15c-4-4-4-10 0-15 3-2 5-4 7-4z m64 64c2 0 6 0 8 2l15 17c5 5 5 11 0 15-4 5-10 5-15 0l-15-15c-4-4-4-10 0-15 3-2 5-4 7-4z m158-23l21 0c6 0 11 4 11 10 0 7-5 11-11 11l-21 0c-7 0-11-4-11-11 0-6 4-10 11-10z m-64 42l21 0c6 0 11 5 11 11 0 6-5 11-11 11l-21 0c-7 0-11-5-11-11 0-6 4-11 11-11z m-118-117c0-6-4-11-10-11-6 0-11 5-11 11 0 6 5 11 11 11 6 0 10-5 10-11z m128 85c0-6-4-10-10-10-6 0-11 4-11 10 0 6 5 11 11 11 6 0 10-5 10-11z m-85-21c0-6-5-11-11-11-6 0-10 5-10 11 0 6 4 11 10 11 6 0 11-5 11-11z m213 0c0-6-4-11-10-11-6 0-11 5-11 11 0 6 5 11 11 11 6 0 10-5 10-11z m-42-43c0-6-5-10-11-10-6 0-11 4-11 10 0 6 5 11 11 11 6 0 11-5 11-11z"/>
            <glyph glyph-name="dot" unicode="&#93;"
                   d="M427 256c0-94-77-171-171-171-94 0-171 77-171 171 0 94 77 171 171 171 94 0 171-77 171-171z"/>
            <glyph glyph-name="dot-o" unicode="&#94;"
                   d="M256 405c83 0 149-66 149-149 0-83-66-149-149-149-83 0-149 66-149 149 0 83 66 149 149 149m0 22c-94 0-171-77-171-171 0-94 77-171 171-171 94 0 171 77 171 171 0 94-77 171-171 171z"/>
            <glyph glyph-name="double-arrow-down" unicode="&#95;"
                   d="M256 117c-2 0-6 0-9 2l-128 128c-4 5-4 11 0 15 5 5 11 5 15 0l120-119 119 119c5 5 11 5 15 0 5-4 5-10 0-15l-128-128c2-2-2-2-4-2z m0 107c-2 0-6 0-9 2l-128 128c-4 4-4 11 0 15 5 4 11 4 15 0l120-119 119 119c5 4 11 4 15 0 5-4 5-11 0-15l-128-128c2-2-2-2-4-2z"/>
            <glyph glyph-name="double-arrow-left" unicode="&#96;"
                   d="M128 245c0 2 0 7 2 9l128 128c4 4 11 4 15 0 4-4 4-11 0-15l-119-120 119-119c4-4 4-11 0-15-4-4-11-4-15 0l-128 128c-2-2-2 2-2 4z m107 0c0 2 0 7 2 9l128 128c4 4 10 4 15 0 4-4 4-11 0-15l-120-120 120-119c4-4 4-11 0-15-5-4-11-4-15 0l-128 128c-2-2-2 2-2 4z"/>
            <glyph glyph-name="double-arrow-right" unicode="&#123;"
                   d="M384 245c0-2 0-6-2-8l-128-128c-4-4-11-4-15 0-4 4-4 10 0 15l119 119-119 120c-4 4-4 10 0 15 4 4 11 4 15 0l128-128c2 2 2-3 2-5z m-107 0c0-2 0-6-2-8l-128-128c-4-4-10-4-15 0-4 4-4 10 0 15l120 119-122 122c-2 4-2 13 0 17 2 4 11 4 15 0l128-128c4-2 4-7 4-9z"/>
            <glyph glyph-name="double-arrow-up" unicode="&#124;"
                   d="M256 373c2 0 6 0 9-2l128-128c4-4 4-10 0-15-5-4-11-4-15 0l-122 120-119-120c-5-4-11-4-15 0-5 5-5 11 0 15l128 128c0 2 4 2 6 2z m0-106c2 0 6 0 9-2l128-128c4-5 4-11 0-15-5-5-11-5-15 0l-122 119-119-119c-5-5-11-5-15 0-5 4-5 10 0 15l128 128c0 2 4 2 6 2z"/>
            <glyph glyph-name="double-check" unicode="&#125;"
                   d="M117 113l-117 117 30 30 87-91 244 215 27-30z m120 0l-36 41 29 29 11-14 245 215 26-30z m-175 175l29 29 59-59-29-28z"/>
            <glyph glyph-name="double-check-circle" unicode="&#126;"
                   d="M256 0c-141 0-256 115-256 256 0 141 115 256 256 256 141 0 256-115 256-256 0-141-115-256-256-256z m0 489c-128 0-233-105-233-233 0-128 105-233 233-233 128 0 233 105 233 233 0 128-105 233-233 233z m-60-308l-66 66 17 18 49-52 139 122 15-17z m69 0l-22 24 17 17 7-9 138 122 15-17z m-99 100l16 17 34-34-17-16z"/>
            <glyph glyph-name="download" unicode="&#92;"
                   d="M496 234c-10 0-16-10-16-16l0-125c0-26-22-45-48-45l-352 0c-26 0-48 19-48 45l0 125c0 6-6 16-16 16-10 0-16-10-16-16l0-125c0-42 35-77 80-77l352 0c45 0 80 35 80 77l0 125c0 6-6 16-16 16z m-237-116c3 0 3 0 0 0 3-3 3-3 7-3 3 0 3 0 6 0 3 0 3 0 6 0 0 0 4 0 4 3 0 0 3 0 3 4l89 86c7 6 7 16 0 22-6 7-16 7-22 0l-64-60 0 278c0 10-6 16-16 16-10 0-16-6-16-16l0-282-64 61c-6 7-16 7-22 0-7-6-7-16 0-22z"/>
            <glyph glyph-name="drag-and-drop" unicode="&#57344;"
                   d="M476 175c-9 0-15-6-15-15l0-34-34 0c-9 0-15-7-15-15 0-9 6-15 15-15l47 0c8 0 15 6 15 15l0 47c2 11-5 17-13 17z m-137-49l-89 0c-9 0-15-7-15-15 0-9 6-15 15-15l89 0c9 0 15 6 15 15 0 8-6 15-15 15z m-226-28l47 0c9 0 15 7 15 15 0 9-6 15-15 15l-34 0 0 34c0 9-7 15-15 15-9 0-15-6-15-15l0-47c2-10 9-17 17-17z m0 137c9 0 15 6 15 15l0 89c0 9-6 15-15 15-8 0-15-6-15-15l0-89c0-9 7-15 15-15z m0 179c9 0 15 6 15 15l0 34 34 0c9 0 15 6 15 15 0 8-8 13-17 13l-47 0c-8 0-15-7-15-15l0-47c0-9 7-15 15-15z m137 49l89 0c9 0 15 6 15 15 0 8-6 13-15 13l-89 0c-9 0-15-7-15-15 0-9 6-13 15-13z m226 28l-47 0c-9 0-15-7-15-15 0-9 6-15 15-15l34 0 0-34c0-9 6-15 15-15 8 0 13 8 13 17l0 47c0 8-7 15-15 15z m0-137c-9 0-15-6-15-15l0-89c0-9 6-15 15-15 8 0 15 6 15 15l0 89c0 9-7 15-15 15z m-135-17l-76 0c-9 0-15-6-15-15 0-8 6-15 15-15l40 0-102-85-167 0c-8 0-15-7-15-15l0-173c0-6 7-13 15-13l173 0c9 0 15 7 15 15l0 167 105 87 0-43c0-8 6-14 14-14 9 0 15 6 15 14l0 75c-2 9-8 15-17 15z m-147-288l-145 0 0 143 143 0 0-143z"/>
            <glyph glyph-name="dropdown" unicode="&#57345;"
                   d="M105 341c-22 0-26-10-11-25l139-135c14-15 36-15 51 0l138 135c13 15 9 25-10 25 0 0-307 0-307 0z"/>
            <glyph glyph-name="editor-ck" unicode="&#57346;"
                   d="M213 75c5 0 9 0 13 2l124 36c13 4 23 13 30 26 4 12 4 27-2 38l-79 130c-5 7-11 13-17 19l-28 22c-2 2-7 4-11 4-2 0-6 0-8-2-7-4-9-11-9-17l2-30c2-13 7-24 13-34l77-126c2-4 6-6 11-6 2 0 4 0 6 2 6 4 8 10 4 17l-77 126c-4 8-6 17-8 25l-2 13 13-11c4-4 8-6 10-12l79-133c2-4 4-10 2-17-2-6-6-10-13-10l-123-37c-2 0-5 0-7 0-8 0-17 7-19 15l-64 222c-2 4-2 11 2 15 2 4 7 9 13 11l111 32 2-2 4-11c5-15 15-30 30-36 9-5 19-9 30-9 7 0 13 0 17 2l2 0c0 0 2-2 2-2l47-166c3-5 7-9 13-9l2 0c7 2 11 9 9 15l-47 166c-2 7-6 13-13 18-4 2-8 4-13 4-2 0-6 0-8-2-4 0-7-2-11-2-6 0-13 2-17 4-8 4-15 13-17 21l-4 11c-2 8-7 15-13 19-4 2-9 4-13 4-2 0-4 0-8 0l-113-34c-24-6-39-32-30-57l64-222c4-20 23-32 42-32z m84 330l2 0c2 0 4 0 6 0 4 0 6 0 11-2 4-2 8-6 10-13 3-4 7-6 13-6l2 0c2 0 7 2 7 6 2 3 2 7 2 9-4 13-11 21-21 28-7 4-15 6-22 6-4 0-8 0-13-2-2 0-6-2-6-6 0-5-2-7-2-9 2-6 6-11 11-11z m192-273l-99 346c-4 19-21 32-40 32-4 0-9 0-11-2l-273-77c-11-4-19-11-25-21-7-11-7-22-5-32l98-346c3-11 11-19 22-26 6-4 15-6 21-6 4 0 9 0 11 2l271 77c10 2 19 11 25 21 7 9 9 22 5 32z m-329-94l-98 346c-2 4 0 9 2 13 0 4 4 8 9 8l270 77c3 0 5 0 5 0 2 0 6 0 8-2 5-2 7-6 9-11l98-345c2-5 0-9-2-13-2-4-7-6-11-9l-269-76c-2 0-4 0-4 0-2 0-6 0-8 2-5 2-7 6-9 10z"/>
            <glyph glyph-name="editor-code" unicode="&#57347;"
                   d="M425 369l-94 98c-5 0-7 2-9 2l-226 0c-6 0-11-4-11-10l0-406c0-6 5-10 11-10l320 0c6 0 11 4 11 10l0 308c0 4-2 6-2 8z m-26-6l-79 0 0 81z m6-299l-298 0 0 384 192 0 0-96c0-6 4-11 10-11l96 0z m-172 209c-5 4-11 6-15 2l-64-42c-3-3-5-5-5-9 0-4 2-6 5-9l64-42c2-2 4-2 6-2 4 0 6 2 9 4 4 4 2 11-3 15l-51 34 51 34c5 2 7 9 3 15z m46 0c-4-4-2-11 3-15l51-34-51-34c-5-4-7-11-3-15 3-2 7-4 9-4 2 0 4 0 6 2l64 42c3 3 5 5 5 9 0 4-2 6-5 9l-64 42c-6 4-12 2-15-2z"/>
            <glyph glyph-name="editor-quill" unicode="&#57348;"
                   d="M177 491c15-5 30-7 45-13 49-19 79-56 94-109 10-43 10-83-5-124-19-51-55-83-104-96-17-4-34-10-47-27 13 0 28 0 41 0 70-3 140-7 211-9 34 0 70 6 104 9-2 0-15-28-17-32-8-11-17-20-28-26-23-15-55-23-83-23-30 2-55 17-83 25-28 11-53 24-81 34-41 17-77 13-107-21-2-2-2-2-6-4-2 4-6 6-9 10 20 17 37 34 54 54-7 4-7 4-7 4-4 0-10 2-15 2-64 11-106 51-125 117-5 13-5 28-9 43 0 9 0 19 0 28 0 4 2 8 2 13 7 66 49 119 109 136 11 2 21 4 34 9 11 0 21 0 32 0z m115-175c0 106-85 162-170 136-105-30-111-164-67-224 35-47 94-66 152-45 53 18 85 69 85 133z"/>
            <glyph glyph-name="editor-typeahead" unicode="&#57349;"
                   d="M405 363l-85 0-58 57c-4 5-8 5-12 0l-58-57-85 0c-24 0-43-20-43-43l0-213c0-24 19-43 43-43l298 0c24 0 43 19 43 43l0 213c0 23-19 43-43 43z m0-235l-298 0 0 43 298 0z m0 107l-298 0 0 42 298 0z"/>
            <glyph glyph-name="editor-wysiwyg" unicode="&#57350;"
                   d="M425 369l-94 98c-5 0-7 2-9 2l-226 0c-6 0-11-4-11-10l0-406c0-6 5-10 11-10l320 0c6 0 11 4 11 10l0 308c0 4-2 6-2 8z m-26-6l-79 0 0 81z m6-299l-298 0 0 384 192 0 0-96c0-6 4-11 10-11l96 0z m-136 162c0 9-7 15-19 15-7 0-11 0-13 0l0-30 8 0c15 0 24 7 24 15z m-24-36l-10 0 0-34c2 0 6 0 10 0 13 0 24 4 24 17 2 13-9 17-24 17z m73 109l-128 0c-24 0-41-24-41-47l0-107c0-23 17-38 41-38l128 0c23 0 45 15 45 38l0 107c0 23-22 47-45 47z m-30-154c-9-6-23-11-49-11-13 0-24 0-30 3l0 121c6 2 21 2 36 2 17 0 28-2 37-6 8-4 15-13 15-26 0-10-7-21-22-25 15-5 26-15 26-30 0-13-7-22-13-28z"/>
            <glyph glyph-name="editors" unicode="&#57351;"
                   d="M316 380l64-62 51 47-66 66z m-222-216l-13-83 79 19 196 194-66 64z"/>
            <glyph glyph-name="error-404" unicode="&#57352;"
                   d="M141 401c0-12-10-21-22-21-11 0-21 9-21 21 0 12 10 21 21 21 12 0 22-9 22-21z m64 0c0-12-10-21-22-21-11 0-21 9-21 21 0 12 10 21 21 21 12 0 22-9 22-21z m62 0c0-12-10-21-22-21-11 0-21 9-21 21 0 12 10 21 21 21 12 0 22-9 22-21z m166 79l-354 0c-32 0-58-26-58-58l0-332c0-32 26-58 58-58l354 0c32 0 58 26 58 58l0 332c0 32-26 58-58 58z m-354-32l354 0c15 0 26-11 26-26l0-68-406 0 0 68c0 15 11 26 26 26z m354-384l-354 0c-15 0-26 11-26 26l0 234 408 0 0-234c-2-15-13-26-28-26z m-243 117l-9 0 0 73c0 4-2 6-4 8-2 3-4 3-8 3-3 0-5 0-7-3-2 0-4-2-4-4l-51-77c-2-2-2-4-2-8 0-2 0-4 2-7 2-2 4-2 6-2l47 0 0-15c0-4 0-6 2-8 2-2 4-2 9-2 4 0 6 0 8 2 2 2 2 4 2 8l0 13 9 0c6 0 11 2 11 9 0 2 0 4-3 6-2 4-4 4-8 4z m-30 0l-34 0 32 47 0-47z m243 0l-8 0 0 73c0 4-2 6-5 8-2 3-4 3-8 3-2 0-4 0-7-3-2 0-4-2-4-4l-53-77c-2-2-2-4-2-8 0-2 0-4 2-7 2-2 4-2 6-2l47 0 0-15c0-4 0-6 2-8 2-2 5-2 9-2 4 0 6 0 8 2 3 2 3 4 3 8l0 13 8 0c6 0 11 2 11 9 0 2 0 4-2 6 0 4-3 4-7 4z m-32 0l-32 0 32 47z m-109 84c-15 0-25-7-34-18-8-10-10-25-10-46 0-22 4-37 10-47 9-11 19-17 34-17 15 0 26 6 35 17 8 10 10 25 10 47 0 21-4 36-10 46-9 11-20 18-35 18z m17-99c-4-6-8-10-17-10-8 0-12 4-17 10-4 7-6 20-6 35 0 14 2 27 6 34 5 6 9 10 17 10 9 0 13-4 17-10 5-7 7-20 7-34-2-15-2-28-7-35z"/>
            <glyph glyph-name="error-500" unicode="&#57353;"
                   d="M147 393c0-11-8-20-19-20-11 0-19 9-19 20 0 10 8 19 19 19 11 0 19-9 19-19z m60 0c0-11-9-20-19-20-11 0-19 9-19 20 0 10 8 19 19 19 10 0 19-9 19-19z m58 0c0-11-9-20-20-20-10 0-19 9-19 20 0 10 9 19 19 19 11 0 20-9 20-19z m157 74l-332 0c-30 0-54-23-54-53l0-314c0-30 24-53 54-53l332 0c30 0 54 23 54 53l0 312c0 30-24 55-54 55z m-332-30l332 0c13 0 24-10 24-23l0-64-380 0 0 64c0 13 11 23 24 23z m332-362l-332 0c-13 0-24 10-24 23l0 222 382 0 0-220c-2-15-13-25-26-25z m-239 140c-6 3-12 5-19 5-8 0-15-2-21-7l0 32 45 0c6 0 10 2 10 9 0 6-4 8-10 8l-56 0c-2 0-6 0-6-2-2-2-2-4-2-6l0-51c0-2 0-5 2-5 2-2 4-2 6-2 2 0 5 0 7 2 4 3 6 5 10 7 5 2 7 2 11 2 6 0 13-2 17-6 4-5 6-9 6-15 0-7-2-13-6-15-4-5-8-7-17-7-4 0-9 0-13 2-4 3-8 5-13 7-2 0-2 2-4 2 0 0-2 0-2 0-2 0-4 0-4-2-2-2-2-4-2-7 0-2 2-6 4-8 4-4 11-7 17-9 6-2 13-4 19-4 9 0 15 2 21 4 7 5 11 9 15 13 5 7 5 13 5 19 0 7-2 13-5 20-6 8-10 12-15 14z m73 50c-13 0-23-5-32-15-6-11-11-26-11-45 0-19 5-34 11-45 6-11 17-15 32-15 15 0 23 4 32 15 6 11 11 26 11 45 0 19-5 34-11 45-9 8-19 15-32 15z m17-92c-4-7-8-11-17-11-9 0-13 4-17 11-4 6-4 17-4 32 0 15 2 25 4 32 4 6 8 10 17 10 9 0 13-4 17-10 4-7 4-17 4-32 0-15-2-26-4-32z m81 92c-13 0-23-5-32-15-6-11-11-26-11-45 0-19 5-34 11-45 7-11 17-15 32-15 13 0 24 4 32 15 7 11 11 26 11 45 0 19-4 34-11 45-8 8-17 15-32 15z m17-92c-4-7-8-11-17-11-8 0-13 4-17 11-4 6-4 17-4 32 0 15 2 25 4 32 4 6 9 10 17 10 9 0 13-4 17-10 4-7 4-17 4-32 0-15-2-26-4-32z"/>
            <glyph glyph-name="etherium" unicode="&#57354;"
                   d="M452 250c-6 0-10-5-13-11-14-85-89-149-177-149-98 0-179 81-179 179 0 98 81 179 179 179 62 0 122-34 154-90 4-6 11-8 17-4 6 4 9 11 4 17-36 62-102 100-175 100-111 0-202-91-202-204 0-113 91-205 202-205 101 0 184 72 201 175 0 6-4 10-11 13z m5 49c0-6-5-11-11-11-6 0-11 5-11 11 0 6 5 10 11 10 6 0 11-4 11-10z m-201 74c-2 0-6-2-9-4l-83-107c-2-4-2-8 0-12l83-107c3-2 5-4 9-4 4 0 6 2 9 4l85 107c2 4 2 8 0 12l-85 107c-3 2-5 4-9 4z m0-27l60-75-58-17-60 17z m0-180l-68 88 68-19 2 0c0 0 2 0 4 0l64 19z"/>
            <glyph glyph-name="etherium2" unicode="&#57355;"
                   d="M256 431c-2 0-9-2-13-6l-124-160c-2-7-2-13 0-20l124-160c2-2 7-6 13-6 6 0 9 2 13 6l128 160c2 7 2 13 0 20l-128 160c-4 4-7 6-13 6z m0-41l90-111-86-25-91 23z m0-268l-102 130 102-28 2 0c0 0 2 0 7 0l96 28z"/>
            <glyph glyph-name="eye" unicode="&#57356;"
                   d="M256 154c-92 0-182 38-248 105l-8 10 8 10c66 67 156 105 248 105 92 0 182-38 248-105l8-10-8-10c-66-67-156-105-248-105z m-220 115c61-57 138-90 220-90 82 0 159 31 220 90-61 59-138 89-220 89-82 0-159-30-220-89z m210-64c-36 0-64 28-64 64 0 36 28 64 64 64 33 0 61-28 61-64 0-36-28-64-61-64z m0 102c-21 0-39-18-39-38 0-21 18-39 39-39 20 0 38 18 38 39 0 20-18 38-38 38z"/>
            <glyph glyph-name="facebook" unicode="&#57357;"
                   d="M169 318l38 0 0 36c0 17 0 41 13 56 10 17 27 27 57 27 47 0 69-6 69-6l-9-56c0 0-15 5-30 5-15 0-28-5-28-19l0-43 60 0-4-53-58 0 0-188-70 0 0 188-38 0z"/>
            <glyph glyph-name="facebook-box" unicode="&#57358;"
                   d="M0 512l0-512 512 0 0 512z m309-211l-2-39-38 0 0-134-49 0 0 132-28 0 0 41 26 0 0 25c0 11 0 30 8 41 9 11 21 17 43 17 34 0 47-4 47-4l-7-39c0 0-10 2-21 2-11 0-19-4-19-14l0-30 40 0z"/>
            <glyph glyph-name="family" unicode="&#57359;"
                   d="M264 461l0 18c0 5-3 7-8 7-5 0-8-2-8-7l0-21c-107-2-202-66-245-161-6-8 5-18 12-13 34 18 75 10 98-20 2-8 10-8 15 0 28 41 87 41 118 2 0 0 0-2 2-2 5-5 13-5 16 0 28 41 89 41 120 0 5-5 13-5 15 0 23 30 64 41 98 20 7-5 18 3 15 13-44 95-138 161-248 164z m-146-182c-26 26-64 36-98 23 39 69 105 120 182 136-43-34-71-103-84-159z m130 5c-30 28-79 31-112 5 15 57 53 146 112 154 0 0 0-159 0-159z m16 0l0 159c59-8 97-95 112-154-33 26-82 26-112-5z m133-5c-16 54-41 123-85 159 77-16 144-67 182-136-36 13-74 3-97-23z m-310-131c21 0 38 18 38 39 0 20-17 38-38 38-20 0-38-18-38-38 0-21 15-39 38-39z m0 64c13 0 23-10 23-23 0-12-10-23-23-23-13 0-23 11-23 23 0 13 8 23 23 23z m154-25c0 20-18 38-39 38-20 0-38-18-38-38 0-21 18-39 38-39 21 0 39 18 39 39z m-62 2c0 13 10 23 23 23 13 0 23-10 23-23 0-12-10-23-23-23-13 0-23 11-23 23z m141-41c20 0 38 18 38 39 0 20-18 38-38 38-20 0-38-18-38-38 0-21 15-39 38-39z m0 64c13 0 23-10 23-23 0-12-10-23-23-23-13 0-23 11-23 23 0 13 8 23 23 23z m115-64c21 0 39 18 39 39 0 20-18 38-39 38-20 0-38-18-38-38 0-21 18-39 38-39z m0 64c13 0 23-10 23-23 0-12-10-23-23-23-13 0-23 11-23 23 0 13 10 23 23 23z m59-161c-5 0-8-2-8-7l0-29c0 0 0-2-2-2l-100 0c0 0-3 0-3 2l0 75c0 12 8 23 21 28l20-28c6-6 13-6 18 0l21 28c13-5 20-16 20-28l0-13c0-5 3-8 8-8 5 0 8 3 8 8 0 0 5 54-34 56-10 3-23 3-41 3-5 0-12 0-15-3-13-2-23-10-31-20-7 10-18 18-30 20-6 0-11 3-16 3-23 0-33 0-41-3-13-2-23-10-30-20-8 10-18 18-31 20-10 3-16 3-41 3-18 0-36-8-46-23-10 12-26 23-46 23-26 0-31 0-41-3-21-5-39-23-39-43l0-75c0-10 8-15 16-15l100 0c2 0 5 0 10 3 5-3 10-3 13-3l99 0c3 0 6 0 11 3 2-3 5-3 10-3l31 0c5 0 7 3 7 8 0 5-2 7-7 7l-31 0c0 0-3 0-3 3l0 74c0 13 8 23 21 28l20-28c5-5 13-5 18 0l21 28c13-5 20-15 20-28l0-74c0 0 0-3-2-3l-31 0c-5 0-8-2-8-7 0-5 3-8 8-8l31 0c2 0 5 0 10 3 0-3 5-3 8-3l99 0c11 0 16 8 16 15l0 29c0 5-3 7-8 7z m-46 69l-13-18-13 18z m-348 0l-13-18-13 18z m36-105l-100 0c0 0-3 0-3 3l0 74c0 13 8 23 21 28l23-30c5-6 13-6 18 0l20 28c13-5 21-16 21-26z m79 105l-13-18-13 18z m36-105l-97 0c0 0-3 0-3 3l0 74c0 13 8 23 21 28l20-28c5-5 13-5 18 0l20 28c13-5 21-15 21-28z m69 87l-13 18 26 0z"/>
            <glyph glyph-name="file-upload" unicode="&#57360;"
                   d="M491 373c0 0 0 2 0 2 0 0 0 3 0 3 0 0 0 0 0 2 0 0 0 2-2 2l-156 128c0 0 0 0-2 0 0 0-2 0-2 2 0 0-3 0-3 0 0 0 0 0-2 0l-226 0c-30 0-55-23-55-53l0-406c0-30 25-53 55-53l113 0c17 0 24 15 24 32l0 107c0 6-5 10-11 10l-38 0c-7 0 0 2-5 9-2 4-2 11 2 13l84 83c4 6 15 6 21 0l81-81c4-4 4-9 2-13-2-4 0-9-4-9l-38 0c-7 0-11-4-11-10l0-107c0-17 6-32 25-32l90 0c30 0 56 24 56 53z m-150 107l109-96-98 0c-6 0-11 4-11 11z m128-427c0-17-15-32-34-32l-89 0c-7 0-5 5-5 11l0 96 28 0c13 0 17 6 24 19 6 13 4 26-7 36l-81 82c-13 14-40 14-51 0l-83-84c-9-10-11-23-5-36 5-8 7-17 20-17l27 0 0-98c0-7 5-11-2-11l-113 0c-19 2-34 15-34 34l0 406c0 19 15 32 34 32l222 0 0-96c0-17 15-32 34-32l115 0z"/>
            <glyph glyph-name="filter" unicode="&#57361;"
                   d="M469 512l-426 0c-17 0-28-21-17-34l151-218c11-17 15-34 15-53l0-186c0-17 19-27 32-19l85 60c7 4 9 11 9 19l0 126c0 19 6 36 17 51l151 218c11 15 0 36-17 36z"/>
            <glyph glyph-name="filter-new" unicode="&#57362;"
                   d="M384 405c-4 26-26 43-53 43-30 0-54-23-54-53 0-30 24-54 54-54 25 0 47 17 53 43l107 0 0 21z m-53-42c-17 0-32 15-32 32 0 17 15 32 32 32 17 0 32-15 32-32 0-17-15-32-32-32z m-308 42l212 0 0-21-212 0z m254-149l214 0 0-21-214 0z m-94 43c-25 0-46-17-53-43l-107 0 0-21 107 0c4-26 26-43 53-43 28 0 54 23 54 53 0 30-24 54-54 54z m0-86c-19 0-32 15-32 32 0 17 15 32 32 32 18 0 32-15 32-32 0-17-12-32-32-32z m-160-106l171 0 0-22-171 0z m265 42c-30 0-53-23-53-53 0-30 23-53 53-53 26 0 47 17 53 42l150 0 0 22-150 0c-6 25-27 42-53 42z m0-85c-17 0-32 15-32 32 0 17 15 32 32 32 17 0 32-15 32-32 0-17-15-32-32-32z"/>
            <glyph glyph-name="filter-o" unicode="&#57363;"
                   d="M448 448c0 43-102 66-203 66-100 0-202-21-202-66 0-11 4-19 15-26l134-211 0-198c0-4 2-7 4-9 2 0 5-2 5-2 2 0 2 0 4 2l85 45c4 2 7 4 7 9l0 153 134 209c11 9 17 17 17 28z m-203 47c111 0 184-28 184-45 0-2-2-6-7-11-2 0-4-2-6-4-23-15-85-32-171-32-89 0-151 17-175 34 0 0-2 2-2 2-4 3-6 7-6 9 0 19 72 47 183 47z m34-275c0-2 0-2 0-2 0 0 0-3 0-3l0-149-66-36 0 183c0 0 0 2 0 2 0 0 0 3 0 3l-121 185c38-15 96-21 153-21 56 0 113 6 152 21z"/>
            <glyph glyph-name="financerate" unicode="&#57364;"
                   d="M237 362c0 57-45 102-103 102-57 0-102-45-102-102 0-58 45-103 102-103 58 0 103 45 103 103z m-173 0c0 38 32 70 70 70 39 0 71-32 71-70 0-39-32-71-71-71-38 0-70 32-70 71z m314-141c-58 0-103-45-103-103 0-57 45-102 103-102 57 0 102 45 102 102 0 58-45 103-102 103z m0-173c-39 0-71 32-71 70 0 39 32 71 71 71 38 0 70-32 70-71 0-38-32-70-70-70z m102 432l-208 0c-6 0-16-6-16-16 0-10 10-16 16-16l163 0-365-371c-6-7-6-16 0-23 4-3 7-3 13-3 7 0 10 0 13 3l368 375 0-173c0-10 6-16 16-16 10 0 16 6 16 16l0 208c0 10-6 16-16 16z"/>
            <glyph glyph-name="findwhat" unicode="&#57365;"
                   d="M509 29l-141 141c32 35 51 83 51 134-3 115-96 208-211 208-115 0-208-93-208-208 0-115 93-208 208-208 51 0 99 19 134 51l141-141c3-3 7-3 13-3 6 0 10 0 13 3 3 4 3 16 0 23z m-301 99c-96 0-176 80-176 176 0 96 80 176 176 176 96 0 176-80 176-176 0-96-80-176-176-176z m0 320c-13 0-22-3-32-6-10-4-16-13-10-23 4-9 13-13 23-6 3 3 9 3 19 3 26 0 48-22 48-48 0-26-22-48-48-48-10 0-16 3-26 6-6 4-9 4-16 0-3-3-6-9-6-16l0-70c0-10 6-16 16-16 10 0 16 6 16 16l0 48c3 0 10 0 16 0 42 0 80 35 80 80 0 45-38 80-80 80z m-16-272c0-9-7-16-16-16-9 0-16 7-16 16 0 9 7 16 16 16 9 0 16-7 16-16z"/>
            <glyph glyph-name="flexile" unicode="&#57366;"
                   d="M416 288l-96 96 128 0 64 128-352 0 0-160 77-64-77 0 0-288 128 32 0 128 64 0z"/>
            <glyph glyph-name="folder" unicode="&#57367;"
                   d="M286 405l164 0c34 0 62-27 62-62l0-236c0-34-28-62-62-62l-388 0c-34-2-62 25-62 60l0 302c0 35 28 62 62 62l143 0c4 0 10-2 15-6l51-51c4-5 8-7 15-7z"/>
            <glyph glyph-name="folder-o" unicode="&#57368;"
                   d="M508 358c-5 3-9 5-13 5l-26 0 0 53c0 6-4 11-10 11l-188 0-41 40c0 0-4 2-6 2l-171 0c-6 0-10-4-10-10l0-96c-5 0-9 0-11 0-11 0-17-5-23-11-7-6-9-15-9-23l30-271c0-9 8-15 17-15l431 0c8 0 15 6 17 15l17 288c0 4-2 8-4 12z m-444 90l156 0 40-41c0 0 5-2 7-2l181 0 0-42-186 0c0 0-123 0-198 0z m407-384l-422 0-28 267c0 2 0 6 2 8 3 2 5 2 9 2 62 0 230 0 230 0l229 0z"/>
            <glyph glyph-name="forgot-pass" unicode="&#57369;"
                   d="M346 326l-17 0 0 73c-3 38-35 70-73 70-38 0-70-32-70-70l0-70-20 0c-49 0-89-41-89-90l0-107c0-49 40-89 89-89l177 0c50 0 90 40 90 89l0 107c0 49-38 87-87 87z m-126 73c0 19 15 36 36 36 21 0 36-15 36-36l0-70-70 0 0 70z m179-267c0-30-24-53-53-53l-180 0c-29 0-53 23-53 53l0 107c0 30 24 53 53 53l177 0c30 0 54-23 54-53l0-107z m-149 128c-15 0-28-4-37-8l7-24c6 5 15 7 21 7 11 0 15-5 15-13 0-7-6-15-13-21-8-11-13-22-13-35l0-6 28 0 0 4c0 9 2 17 11 26 8 8 19 19 19 36 2 19-11 34-38 34z m-3-109c-10 0-19-8-19-19 0-10 9-19 19-19 11 0 20 9 20 19 0 11-9 19-20 19z"/>
            <glyph glyph-name="forms-advanced" unicode="&#57370;"
                   d="M320 309c0 7-4 11-9 11l-187 0c-7 0-11-4-11-11 0-6 4-10 11-10l185 0c7 0 11 4 11 10z m-43-85c0 6-4 11-10 11l-145 0c-7 0-11-5-11-11 0-6 4-11 11-11l145 0c6 0 10 5 10 11z m-160-75c-6 0-10-4-10-10 0-7 4-11 10-11l86 0c6 0 10 4 12 11 0 6-4 10-10 10z m297 15c-7 0-11-4-11-10l0-101c0-17-10-32-25-32l-329 0c-15 0-28 13-28 32l0 406c0 19 13 32 28 32l228 0 0-96c0-17 13-32 30-32l115 0c3 0 3 0 5 2 2 0 2 0 4 0 4 4 4 8 2 13 0 2-2 2-4 4l-132 126c0 0 0 0-3 0-2 2-4 4-6 4l-239 0c-28 0-49-23-49-53l0-406c0-30 21-53 49-53l329 0c27 0 49 23 47 53l0 101c0 6-5 10-11 10z m-115 231l0 81 98-92-90 0c-6 0-8 4-8 11z m162-56l-43-38 53-51 41 38z m-209-205l-11-64 62 13 158 154-54 51z"/>
            <glyph glyph-name="forms-basic" unicode="&#57371;"
                   d="M437 491l-298 0c-30 0-54-24-54-54l0-160-10 0c-30 0-54-23-54-53l0-149c0-30 24-54 54-54l362 0c30 0 54 24 54 54l0 362c0 30-24 54-54 54z m-394-416l0 149c0 17 15 32 32 32l10 0 0-181c0-13 5-24 11-32l-21 0c-17 0-32 15-32 32z m426 0c0-17-15-32-32-32l-298 0c-17 0-32 15-32 32l0 362c0 17 15 32 32 32l298 0c17 0 32-15 32-32z m-74 309l-192 0c-7 0-11-4-11-11 0-6 4-10 11-10l192 0c6 0 10 4 10 10 0 7-4 11-10 11z m0-107l-192 0c-7 0-11-4-11-10 0-7 4-11 11-11l192 0c6 0 10 4 10 11 0 6-4 10-10 10z m0-106l-192 0c-7 0-11-5-11-11 0-6 4-11 11-11l192 0c6 0 10 5 10 11 0 6-4 11-10 11z"/>
            <glyph glyph-name="forward" unicode="&#57372;"
                   d="M13 0c-7 0-9 4-11 9 0 17-2 34-2 51 0 151 98 283 243 328 15 5 26 17 26 34l0 58c0 13 6 23 19 30 11 4 23 2 34-7l179-160c7-6 11-14 11-25 0-9-4-17-11-24l-179-160c-11-8-23-10-34-6-13 4-19 17-19 30l0 43c0 8-4 14-11 19-6 4-15 6-21 4-154-19-211-215-214-218-2-4-4-6-10-6z"/>
            <glyph glyph-name="forward-o" unicode="&#57373;"
                   d="M13 0c-7 0-9 4-11 9 0 17-2 34-2 51 0 151 98 283 243 328 15 5 26 17 26 34l0 58c0 13 6 23 19 30 11 4 23 2 34-7l179-160c7-6 11-14 11-25 0-9-4-17-11-24l-179-160c-11-8-23-10-34-6-13 4-19 17-19 30l0 43c0 8-4 14-11 19-6 4-15 6-21 4-154-19-211-215-214-218-2-4-4-6-10-6z m288 491c-2 0-4 0-4 0-3 0-7-5-7-11l0-58c0-23-15-44-40-53-137-43-229-166-229-309 0 0 0-2 0-2 28 64 92 172 212 187 12 2 27 0 38-8 11-9 17-22 17-36l0-43c0-7 6-11 6-11 3 0 9-2 13 2l179 160c5 2 5 7 5 9 0 4-2 6-5 8l-179 160c-2 5-4 5-6 5z"/>
            <glyph glyph-name="github" unicode="&#57374;"
                   d="M119 393c39 36 84 55 137 55 53 0 98-19 137-55 36-39 55-84 55-137 0-43-13-79-36-113-24-34-56-56-94-68-9-2-13 0-13 8 0 0 0 7 0 19 0 13 0 24 0 35 0 17-4 27-13 34 26 4 47 10 64 25 17 15 24 37 24 71 0 19-7 38-19 51 6 15 6 32-3 49-10 4-27-2-53-19-15 4-32 6-49 6-17 0-32-2-49-6-9 8-19 15-28 17-10 4-15 4-19 4l-4 0c-9-19-9-36-2-51-13-15-20-32-20-51 0-34 9-58 24-71 15-13 36-21 64-25-7-7-11-15-13-26-26-11-43-6-55 17-7 13-17 19-30 19-2 0-2 0-5 0-2 0-2-2-4-2-2 0 0-4 9-8 8-5 15-13 21-30 0 0 2-2 2-4 0-3 2-5 7-9 4-4 6-6 10-9 5-2 11-4 19-6 9-2 18-2 28 2 0-4 0-8 0-15 0-6 0-8 0-13 0-4 0-4 0-6 0-8-4-11-13-8-38 12-70 36-93 68-24 32-41 72-41 115 0 53 19 98 55 137z"/>
            <glyph glyph-name="google-plus" unicode="&#57375;"
                   d="M196 92c-42 0-74 27-74 59 0 32 38 60 81 58 10 0 19-2 27-4 24-17 41-26 45-45 0-4 2-9 2-11 0-32-21-57-81-57m11 194c-30 0-56 32-62 70-4 39 15 66 43 66 30 0 55-32 62-70 6-38-13-68-43-66m60-58c-11 7-30 26-30 34 0 13 4 17 21 32 19 15 32 35 32 60 0 28-13 56-36 64l36 0 26 19-113 0c-52 0-98-38-98-83 0-45 34-81 85-81 4 0 6 0 11 0-5-6-7-13-7-21 0-13 7-24 15-32-6 0-13 0-19 0-62 0-111-41-111-81 0-41 53-66 115-66 71 0 111 40 111 81 2 34-8 53-38 74m164 54l-45 0 0 42-36 0 0-45-45 0 0-36 45 0 0-45 36 0 0 45 45 0z"/>
            <glyph glyph-name="google-plus-box" unicode="&#57376;"
                   d="M252 324c-5 28-24 49-43 49-21 0-34-19-30-47 4-27 24-49 43-49 19 0 34 22 30 47z m-13-102c-6 2-13 2-19 2-30 0-58-19-58-41 0-23 21-42 53-42 43 0 58 17 58 40 0 2 0 7 0 9-6 15-19 21-34 32z m-239 290l0-512 512 0 0 512z m213-384c-44 0-81 17-81 47 0 30 34 58 79 58 4 0 9 0 13 0-6 6-11 12-11 21 0 4 2 11 5 15-3 0-5 0-7 0-38 0-62 25-62 57 0 32 34 58 69 58l79 0-18-13-25 0c17-6 25-25 25-45 0-17-8-32-21-40-13-11-15-15-15-24 0-6 13-19 22-25 21-15 27-28 27-51-2-28-30-58-79-58z m167 122l-30 0 0-30-26 0 0 30-30 0 0 25 30 0 0 30 26 0 0-30 30 0z"/>
            <glyph glyph-name="graduation" unicode="&#57377;"
                   d="M353 74c-5 0-7-2-10-5l-8-33c0-5 3-8 5-10l3 0c3 0 8 2 8 5l7 33c3 5 0 10-5 10z m-100 167l93 38c5 3 5 8 5 10-3 5-8 5-11 5l-87-38-230 95 0 5c0 2-5 8-8 8-5 0-10-6-10-8l0-8c0-2 3-5 5-8l238-99c3 0 3 0 5 0z m98-85c-3 5-8 5-11 3-15-8-40-18-79-18l0 74c0 5-2 8-8 8-5 0-7-3-7-8l0-74c-103 2-136 64-141 74l0 56c0 5-3 11-8 11-5 0-7-6-7-11l0-59c2-2 35-87 163-87 44 0 77 11 95 21 3 0 5 5 3 10z m25-89c-5 0-7-3-7-8l0-26c0-5 2-7 7-7 5 0 8 2 8 7l0 26c0 5-3 8-8 8z m116 297c-6 0-8-3-8-8l0-3-100-41 0 13 110 46c3 0 5 5 5 8 0 2-2 5-5 8l-238 99c-3 0-5 0-5 0l-241-99c-2 0-5-3-5-8 0-3 3-5 5-8l238-100 5 0 87 36c6 3 8 8 8 13-2 5-8 5-10 5l-82-33-220 87 217 89 218-89-95-39-89 34c0 2 0 2 0 5 0 13-16 25-34 25-17 0-33-10-33-25 0-13 16-26 33-26 8 0 16 3 21 5l95-35 0-203c-11-2-16-12-16-23 0-13 11-25 26-25 13 0 25 10 25 25 0 11-7 21-15 23l0 46c23 18 33 41 33 44l0 61c0 5-2 8-7 8-5 0-8-3-8-8l0-56c-3-3-5-15-15-26l0 103 110 46c2 0 5 5 5 8l0 10c-8 2-10 8-15 8z m-239 7c-10 0-15 5-15 8 0 2 8 8 15 8 8 0 16-6 16-8 0-3-5-8-16-8z m123-279c-5 0-7 3-7 8 0 5 2 8 7 8 5 0 8-3 8-8 0-5-3-8-8-8z m34-23c0 5-6 8-11 5-5 0-7-5-5-10l8-33c0-3 5-5 8-5l2 0c5 0 8 5 5 10z"/>
            <glyph glyph-name="grid" unicode="&#57378;"
                   d="M461 512l-410 0c-28 0-51-23-51-51l0-410c0-28 23-51 51-51l410 0c28 0 51 23 51 51l0 410c0 28-23 51-51 51z m-56-21l0-86-85 0 0 86z m-213-214l-85 0 0 107 85 0z m21 107l86 0 0-107-86 0z m-21-128l0-107-85 0 0 107z m21 0l86 0 0-107-86 0z m107 0l85 0 0-107-85 0z m0 21l0 107 85 0 0-107z m-21 214l0-86-86 0 0 86z m-107 0l0-86-85 0 0 86z m-171-30c0 17 13 30 30 30l34 0 0-86-64 0z m0-77l64 0 0-107-64 0z m0-128l64 0 0-107-64 0z m30-235c-17 0-30 13-30 30l0 77 64 0 0-107z m56 0l0 107 85 0 0-107z m106 0l0 107 86 0 0-107z m107 0l0 107 85 0 0-107z m171 30c0-17-13-30-30-30l-34 0 0 107 64 0z m0 98l-64 0 0 107 64 0z m0 128l-64 0 0 107 64 0z m-64 128l0 86 34 0c17 0 30-13 30-30l0-56z"/>
            <glyph glyph-name="grid-advance" unicode="&#57379;"
                   d="M179 282l-77 0c-12 0-25 10-25 25l0 128c0 13 13 26 25 26l77 0c13 0 26-13 26-26l0-128c0-15-13-25-26-25z m231 0l-77 0c-16 0-26 10-26 25l0 128c0 13 10 26 26 26l77 0c15 0 25-13 25-26l0-128c0-15-13-25-25-25z m-231-233l-77 0c-12 0-25 12-25 25l0 131c0 13 13 25 25 25l77 0c13 0 26-12 26-25l0-131c0-13-13-25-26-25z m231 0l-77 0c-16 0-26 12-26 25l0 131c0 13 10 25 26 25l77 0c15 0 25-12 25-25l0-131c0-13-13-25-25-25z"/>
            <glyph glyph-name="growth" unicode="&#57380;"
                   d="M491 375l-143-29 40-45-96-86-87 71c-7 4-15 4-19 0l-160-137c-7-6-9-15-3-21 3-4 9-6 13-6 5 0 7 2 11 4l149 130 88-70c6-5 15-5 19 0l104 93 41-44z"/>
            <glyph glyph-name="heart" unicode="&#57381;"
                   d="M256 43l-194 196c-53 53-53 139 0 192 23 23 57 38 94 38 36 0 70-15 94-38l6-6 6 6c24 23 58 38 94 38 37 0 71-15 94-38 26-26 41-60 41-96 0-36-15-70-39-96z"/>
            <glyph glyph-name="heart-o" unicode="&#57382;"
                   d="M256 0l-211 222c-60 62-60 162 0 224 28 28 66 45 106 45 41 0 77-15 105-45 28 30 66 45 105 45 40 0 78-17 106-47 30-30 45-69 45-111 0-43-15-81-45-111z m-105 467c-34 0-66-15-91-38-51-54-51-139 0-192l196-205 196 205c24 25 39 60 39 96 0 36-13 70-39 96-23 25-57 38-91 38-35 0-67-15-92-38l-13-15-13 15c-25 25-57 38-92 38z"/>
            <glyph glyph-name="home" unicode="&#57383;"
                   d="M499 26l-64 0 0 12c0 8-5 13-13 13-7 0-12-5-12-13l0-12-77 0 0 38c0 8-5 13-13 13-8 0-13-5-13-13l0-38-102 0 0 179 102 0 0-36c0-8 5-13 13-13 8 0 13 5 13 13l0 49c0 7-5 12-13 12l-128 0c-8 0-13-5-13-12l0-192-77 0 0 115c0 7-5 13-12 13-8 0-13-6-13-13l0-115-64 0c-8 0-13-6-13-13 0-8 5-13 13-13l486 0c8 0 13 5 13 13 0 7-5 13-13 13z m5 330l-230 153c-3 3-8 3-13 0l-156-94-100-59c-2-3-5-5-5-10l0-52c0-5 3-7 8-10 2-2 7-2 12 0l57 33 0-74c0-5 5-13 13-13 7 0 12 8 12 13l0 90 167 100 141-95 0-197c0-8 5-13 12-13 8 0 13 5 13 13l0 182 57-39c2-2 5-2 7-2 3 0 5 0 5 2 5 0 8 5 8 10l0 52c0 5-3 7-8 10z m-18-39l-53 36c-3 3-5 5-8 5l-151 100c-3 3-8 3-13 0l-235-141 0 21 243 146 217-146z m-268-61c7 0 12 5 12 13l0 51c0 8-5 13-12 13l-52 0c-7 0-12-5-12-13l0-51c0-8 5-13 12-13z m-39 51l26 0 0-25-26 0z m179-13c0 21-18 39-38 39-20 0-38-18-38-39 0-20 18-38 38-38 20 0 38 18 38 38z m-51 0c0 8 5 13 13 13 8 0 13-5 13-13 0-7-5-12-13-12-8 0-13 5-13 12z m-205-102c0-7-5-13-12-13-7 0-13 6-13 13 0 7 6 13 13 13 7 0 12-6 12-13z m333-102c0-7-6-13-13-13-7 0-12 6-12 13 0 7 5 12 12 12 7 0 13-5 13-12z m-102 25c0-7-6-13-13-13-7 0-13 6-13 13 0 7 6 13 13 13 7 0 13-6 13-13z"/>
            <glyph glyph-name="homeequity" unicode="&#57384;"
                   d="M506 301l-240 208c-7 3-13 3-20 0l-240-208c-6-7-6-13-6-19 3-7 10-10 16-10l77 0 0-224c-3-10 3-16 13-16l300 0c10 0 16 6 16 16l0 224 77 0c7 0 13 3 16 10-3 6-3 12-9 19z m-100 3c-9 0-16-6-16-16l0-224-268 0 0 224c0 10-7 16-16 16l-52 0 202 173 202-173z m-99-61l-38 67c-7 10-19 10-26 0l-38-67c-7-9 0-22 13-22l22 0 0-109c0-6 6-16 16-16 10 0 16 6 16 16l0 109 22 0c13 0 20 13 13 22z"/>
            <glyph glyph-name="horizontal-more" unicode="&#57385;"
                   d="M156 286c8-9 13-19 13-30 0-11-5-21-13-30-9-8-19-13-30-13-11 0-21 5-30 13-11 9-13 19-13 30 0 11 4 21 13 30 6 8 17 13 30 13 13 0 21-5 30-13z m66-60c-9 9-11 19-11 30 0 11 4 21 13 30 9 8 19 13 30 13 11 0 21-5 30-13 8-9 13-19 13-30 0-11-5-21-13-30-9-8-19-13-30-13-11 0-24 5-32 13z m128 0c-9 9-11 19-11 30 0 11 4 21 13 30 9 8 19 13 30 13 11 0 21-5 30-13 8-9 13-19 13-30 0-11-5-21-13-30-9-8-19-13-30-13-11 0-24 5-32 13z"/>
            <glyph glyph-name="icons" unicode="&#57386;"
                   d="M139 299c40 0 74 34 74 74l0 64c0 41-34 75-74 75l-64 0c-41 0-75-34-75-75l0-64c0-40 34-74 75-74z m-118 74l0 64c0 30 24 54 54 54l64 0c30 0 53-24 53-54l0-64c0-30-23-53-53-53l-64 0c-30 0-54 23-54 53z m480 139l-192 0c-6 0-10-4-10-11l0-192c0-6 4-10 10-10l192 0c7 0 11 4 11 10l0 192c0 7-4 11-11 11z m-10-192l-171 0 0 171 171 0z m-86-107c-59 0-106-47-106-106 0-60 47-107 106-107 60 0 107 47 107 107 0 59-49 106-107 106z m0-192c-47 0-85 39-85 86 0 47 38 85 85 85 47 0 86-38 86-85 0-47-39-86-86-86z m-194 167c-4 4-10 4-15 0l-77-77-78 77c-5 4-11 4-15 0-5-5-5-11 0-15l79-77-79-79c-5-4-5-11 0-15 2-2 4-2 6-2 2 0 4 0 9 2l78 79 77-79c2-2 5-2 7-2 2 0 4 0 8 2 4 4 4 11 0 15l-77 79 77 77c4 4 4 10 0 15z"/>
            <glyph glyph-name="important" unicode="&#57387;"
                   d="M256 0c-141 0-256 115-256 256 0 141 115 256 256 256 141 0 256-115 256-256 0-141-115-256-256-256z m0 489c-128 0-233-105-233-233 0-128 105-233 233-233 128 0 233 105 233 233 0 128-105 233-233 233z m0-107l32-96 100 0-81-60 30-96-81 60-81-60 30 96-81 60 100 0z"/>
            <glyph glyph-name="important-o" unicode="&#57388;"
                   d="M166 96c-2 0-4 0-6 2-2 2-4 7-4 11l17 102-75 73c-2 2-4 6-2 10 2 3 6 5 11 7l102 15 47 94c4 6 15 6 19 0l47-94 103-15c4 0 6-4 8-7 2-4 0-8-2-10l-75-73 17-102c0-4 0-9-4-11-2-2-6-2-11 0l-91 49-96-51c0 0-2 0-5 0z m-36 186l64-62c2-2 4-7 2-9l-15-87 79 40c2 2 7 2 9 0l79-40-15 87c0 4 0 7 2 9l64 62-88 12c-4 0-6 3-8 7l-38 79-39-79c-2-2-4-4-8-7z m331-282l-81 0c-7 0-11 4-11 11 0 6 4 10 11 10l81 0c17 0 30 13 30 30l0 410c0 17-13 30-30 30l-410 0c-17 0-30-13-30-30l0-410c0-17 13-30 30-30l81 0c7 0 11-4 11-10 0-7-4-11-11-11l-81 0c-28 0-51 23-51 51l0 410c0 28 23 51 51 51l410 0c28 0 51-23 51-51l0-410c0-28-23-51-51-51z"/>
            <glyph glyph-name="inbox" unicode="&#57389;"
                   d="M510 284c-2 0-2 2-2 2l-88 151c-8 20-30 32-51 32l-224 0c-23 0-43-12-51-32l-88-151c-2 0-2-2-2-2l-2-11c-2-2-2-4-2-6 0 0 0-2 0-2l0-167c0-30 26-55 58-55l396 0c32 0 58 25 60 55l0 164z m-399 145c6 13 19 19 34 21l224 0c13 0 26-8 32-21l85-150 0-2-128 0c-6 0-8-4-10-8-9-43-47-77-92-77-43 0-81 34-92 77-2 4-6 8-10 8l-131 0 0 2z m343-365l-396 0c-22 0-37 15-37 36l0 156 124 0c15-47 60-83 111-83 51 0 96 36 111 83l124 0 0-156c0-21-17-36-37-36z"/>
            <glyph glyph-name="influence" unicode="&#57390;"
                   d="M416 192c-3 0-3 0-6 0l-77 134c13 16 19 36 19 58 0 54-42 96-96 96-54 0-96-42-96-96 0-26 10-48 26-67l-84-125c-3 0-3 0-6 0-54 0-96-42-96-96 0-54 42-96 96-96 54 0 96 42 96 96 0 38-22 70-58 86l77 116c16-7 29-10 45-10 19 0 38 6 51 16l67-122c-32-12-54-48-54-86 0-54 42-96 96-96 54 0 96 42 96 96 0 54-42 96-96 96z m-256-96c0-35-29-64-64-64-35 0-64 29-64 64 0 35 29 64 64 64 35 0 64-29 64-64z m256-64c-35 0-64 29-64 64 0 35 29 64 64 64 35 0 64-29 64-64 0-35-29-64-64-64z"/>
            <glyph glyph-name="info" unicode="&#57391;"
                   d="M105 407c42 41 91 62 151 62 60 0 109-21 151-62 43-42 62-91 62-151 0-60-21-109-62-151-40-43-91-62-151-62-60 0-109 21-151 62-43 40-62 91-62 151 0 60 21 109 62 151z m32-273c32-32 72-49 119-49 47 0 87 17 119 49 32 32 52 75 52 122 0 47-17 87-49 122-35 32-75 49-122 49-47 0-87-17-119-49-35-35-52-75-52-122 0-47 17-87 52-122z m98 186l0 43 42 0 0-43z m0-171l0 128 42 0 0-128z"/>
            <glyph glyph-name="input-group" unicode="&#57392;"
                   d="M21 405l0-128 470 0 0 128z m22-21l341 0 0-85-341 0z m-22-277l470 0 0 128-470 0z m22 106l341 0 0-85-341 0z"/>
            <glyph glyph-name="instagram" unicode="&#57393;"
                   d="M367 437l-222 0c-38 0-70-32-70-70l0-224c0-38 32-70 70-70l222 0c38 0 70 32 70 70l0 224c0 38-32 70-70 70z m21-42l9 0 0-62-62 0 0 62z m-183-103c10 17 30 28 51 28 21 0 41-11 51-26 9-10 13-23 13-36 0-36-28-64-64-64-36 0-64 28-64 64 0 13 4 26 13 34z m196-147c0-19-15-34-34-34l-222 0c-19 0-34 15-34 34l0 149 53 0c-4-10-6-23-6-36 0-55 45-100 100-100 56 0 100 45 100 100 0 13-2 26-6 36l53 0 0-149z"/>
            <glyph glyph-name="intermediate" unicode="&#57394;"
                   d="M435 491l-358 0c-30 0-56-26-56-56l0-358c0-30 26-56 56-56l358 0c30 0 56 26 56 56l0 358c0 30-26 56-56 56z m-51-256l-256 0 0 42 256 0z"/>
            <glyph glyph-name="intermediate-o" unicode="&#57395;"
                   d="M435 491l-358 0c-30 0-56-26-56-56l0-358c0-30 26-56 56-56l358 0c30 0 56 26 56 56l0 358c0 30-26 56-56 56z m34-414c0-19-15-34-34-34l-358 0c-19 0-34 15-34 34l0 358c0 19 15 34 34 34l358 0c19 0 34-15 34-34z m-341 200l256 0 0-42-256 0z"/>
            <glyph glyph-name="invert-color" unicode="&#57396;"
                   d="M363 322l-107 105c-6 6-17 6-23 0l-105-105c-64-64-64-168 0-235 32-32 75-49 117-49 43 0 86 17 118 49 64 64 64 171 0 235z m-212-23l84 94 0-323c-34 0-58 13-84 39-53 53-53 138 0 190z"/>
            <glyph glyph-name="invoice" unicode="&#57397;"
                   d="M58 471c-5 5-11 5-15 0-5-4-5-10-2-14l40-39c2-2 4-2 6-2 3 0 5 0 9 2 4 4 4 11 0 15z m6-72l-53 0c-7 0-11-4-11-11 0-6 4-10 11-10l53 0c6 0 11 4 11 10 0 7-5 11-11 11z m62 40c4 0 11 5 11 9l0 53c0 7-5 11-11 11-4 0-11-4-11-11l0-53c0-4 4-9 11-9z m339-34l-314 0c-6 0-10-4-10-8 0-7 4-11 10-11 0 0 276 0 276 0 0 0-5-4-5-6-2-2-2-5-2-7-2-6-2-15-2-21 0-9 0-15 0-23 0-3 0-3 0-5l0-301-36 22c-9 6-21 6-32 0l-26-17c-2-2-6-2-10 0l-26 17c-11 6-23 6-34 0l-28-17c-2-2-6-2-11 0l-23 15c-11 6-23 6-34 0l-28-20 0 342c0 6-4 10-11 10-6 0-10-4-10-10l0-346c0-10 8-19 19-19 2 0 4 0 6 0l37 23c2 3 6 3 10 0l24-14c10-7 23-7 34 0l28 17c2 2 6 2 10 0l26-15c11-7 23-7 34 0l26 17c2 2 6 2 10 0l43-26c0-2 2-2 4-2 11 0 19 9 19 19l0 339c0 13 13 26 26 26 13 0 26-11 26-26l0-53-15 0c-7 0-11-4-11-11 0-6 4-10 11-10l25 0c7 0 11 4 11 10l0 64c0 26-21 47-47 47z m-222-106l113 0c7 0 11 4 13 10 0 7-4 11-11 11l-113 0c-6 0-10-4-10-11 0-6 4-10 8-10z m-62 0l22 0c6 0 10 4 10 10 0 7-4 11-10 11l-22 0c-6 0-10-4-10-11 0-6 4-10 10-10z m62-64l113 0c7 0 11 4 11 10 0 7-4 11-11 11l-113 0c-6 0-10-4-10-11 0-6 4-10 10-10z m-62 0l22 0c6 0 12 4 12 10 0 7-4 11-10 11l-24 0c-6 0-10-4-10-11 0-6 4-10 10-10z m62-64l113 0c7 0 11 4 11 10 0 7-4 11-11 11l-113 0c-6 0-10-4-10-11 0-6 4-10 10-10z m-62 0l22 0c6 0 10 4 12 10 0 7-4 11-10 11l-24 0c-6 0-10-4-10-11 0-6 4-10 10-10z m62-64l113 0c7 0 11 4 11 10 0 7-4 11-11 11l-113 0c-6 0-10-4-10-11 0-6 4-10 10-10z m-62 0l22 0c6 0 10 4 10 10 0 7-4 11-10 11l-22 0c-6 0-10-6-10-11 0-6 4-10 10-10z"/>
            <glyph glyph-name="invoice-new" unicode="&#57398;"
                   d="M284 171c8 0 15-7 15-13 0-4 4-9 8-9 4 0 9 5 9 9 0 13-11 25-24 28l0 6c0 4-4 9-8 9-5 0-9-5-9-9l0-6c-13-5-23-15-23-28 0-17 15-30 32-30 8 0 15-6 15-13 0-6-7-13-15-13-9 0-15 7-15 13 0 4-4 9-9 9-4 0-8-5-8-9 0-13 10-25 23-28l0-6c0-4 4-8 9-8 4 0 8 4 8 8l0 6c13 5 24 15 24 28 0 17-15 30-32 30-9 0-15 6-15 13 0 6 8 13 15 13z m175 85l-75 0 0 203c0 4-2 6-4 8-5 2-7 2-11 2l-49-21-38 19c-3 2-7 2-9 0l-38-17-39 17c-2 2-6 2-8 0l-39-19-49 21c-4 0-6 0-10-2-3-2-5-4-5-8l0-150c0-6 5-10 11-10 6 0 11 4 11 10l0 135 38-17c2-2 6 0 9 0l38 19 38-19c3-2 7-2 9 0l38 19 39-19c2 0 6 0 8 0l39 17 0-348c0-13 4-23 10-32l-234 0c-17 0-32 15-32 32l0 85c0 7-5 11-11 11-6 0-11-4-11-11l0-85c0-30 24-53 54-53l277 0c30 0 53 23 53 53l0 9c0 6-4 10-10 10-7 0-11-4-11-10l0-9c0-17-15-32-32-32-17 0-32 15-32 32l0 139 64 0 0-24c0-6 4-10 11-10 6 0 10 4 10 10l0 34c0 7-4 11-10 11z m-352-11c0-6-5-10-11-10-6 0-11 4-11 10 0 6 5 11 11 11 6 0 11-5 11-11z m362-85c0-6-4-11-10-11-6 0-11 5-11 11 0 6 5 11 11 11 6 0 10-5 10-11z m-309 139l149 0c7 0 11 4 11 10 0 7-4 11-11 11l-149 0c-6 0-11-4-11-11 0-6 5-10 11-10z m0-64l149 0c7 0 11 4 11 10 0 7-4 11-11 11l-149 0c-6 0-11-4-11-11 0-6 5-10 11-10z m0 128l149 0c7 0 11 4 11 10 0 7-4 11-11 11l-149 0c-6 0-11-4-11-11 0-6 5-10 11-10z m0-214l64 0c6 0 11 5 11 11 0 6-5 11-11 11l-64 0c-6 0-11-5-11-11 0-6 5-11 11-11z m0-42l64 0c6 0 11 4 11 10 0 7-5 11-11 11l-64 0c-6 0-11-4-11-11 0-6 5-10 11-10z"/>
            <glyph glyph-name="jumbo" unicode="&#57399;"
                   d="M406 192c7 19 10 42 10 64 0 32-6 67-22 96-32 67-112 134-202 128-86-6-160-86-160-176 0-80 67-144 150-144l176 0c-32-58-96-96-166-96l0-32c90 0 166 51 202 128l86 0 0 32z m-342 112c0 70 54 131 118 144 7-16 10-32 10-48 0-61-51-112-112-112-6 0-10 0-13 3-3 3-3 10-3 13z m307-112l-189 0c-48 0-86 26-105 67 0 0 3 0 3 0 80-3 144 64 144 141 0 16-3 32-10 48 68-6 125-58 151-109 13-25 19-54 19-83 0-22-3-45-13-64z m-51 128c0-18-14-32-32-32-18 0-32 14-32 32 0 18 14 32 32 32 18 0 32-14 32-32z"/>
            <glyph glyph-name="jumbotron" unicode="&#57400;"
                   d="M461 512l-406-2c-29 0-53-24-53-51l-2-286c0-28 21-47 51-47l77 2 0-81 96 81 230 0c30 0 56 19 56 47l2 286c0 28-23 51-51 51z m-408-21l406 0c19 0 32-13 32-30l0-141-470 0 0 139c0 17 15 32 32 32z m404-342l-237 0-71-59 0 59-96-2c-19 0-32 9-32 26l0 126 470 0 0-124c0-15-17-26-34-26z m-361 256l128 0c6 0 11 5 11 11 0 6-5 11-11 11l-128 0c-6 0-11-5-11-11 0-6 5-11 11-11z m299-170l-299 0c-6 0-11-5-11-11 0-6 5-11 11-11l299 0c6 0 10 5 10 11 0 6-4 11-10 11z"/>
            <glyph glyph-name="label" unicode="&#57401;"
                   d="M373 64l-320 0c-30 0-53 23-53 53l0 235c0 30 23 53 53 53l320 0c28 0 52-12 66-36l58-90c17-27 17-64 0-91l-58-90c-14-21-40-34-66-34z m-320 320c-17 0-32-15-32-32l0-235c0-17 15-32 32-32l320 0c20 0 39 11 49 28l58 90c13 21 13 47 0 66l-58 89c-10 15-29 26-49 26z m305-203c-29 0-53 24-53 54 0 30 24 53 53 53 30 0 54-23 54-53-2-30-26-54-54-54z m0 86c-17 0-32-15-32-32 0-17 15-32 32-32 17 0 32 15 32 32 0 17-15 32-32 32z"/>
            <glyph glyph-name="layout" unicode="&#57402;"
                   d="M459 512l-406 0c-30 0-53-23-53-53l0-406c0-30 23-53 53-53l406 0c30 0 53 23 53 53l0 406c0 30-23 53-53 53z m-406-21l406 0c17 0 32-15 32-32l0-54-470 0 0 54c0 17 15 32 32 32z m118-107l320 0 0-171-320 0z m-150-331l0 331 128 0 0-363-96 0c-17 0-32 15-32 32z m438-32l-288 0 0 171 320 0 0-139c0-17-15-32-32-32z"/>
            <glyph glyph-name="leads1" unicode="&#57403;"
                   d="M422 203c-6 2-10-2-12-7-26-85-103-143-190-143-111 0-199 92-199 203 0 111 90 203 199 203 94 0 177-69 194-162 2-7 6-9 13-9 6 2 8 6 8 13-21 104-111 179-215 179-122 0-220-100-220-224 0-124 98-224 220-224 96 0 181 64 209 158 2 4-2 11-7 13z m-83 91c2-6 9-8 13-6 6 2 9 9 6 13-19 64-74 104-138 104-81 0-147-66-147-149 0-83 66-149 147-149 55 0 104 30 130 81 2 4 0 10-4 15-5 2-11 0-13-5-22-42-64-68-111-68-68 0-126 58-126 128 0 71 53 126 124 126 55 0 102-36 119-90z m-109-6c15 0 28-6 35-19 2-4 8-7 14-2 5 4 7 10 3 15-11 17-32 27-52 27-34 0-61-27-61-64 0-36 27-64 61-64 22 0 41 11 54 30 2 4 2 11-2 15-5 4-11 2-15-2-9-13-22-19-37-19-23 0-42 19-42 42 0 22 19 41 42 41z m282-43c0 7-4 11-11 11l-34 0 41 43c4 4 4 10 0 15-5 4-11 4-15 0l-54-58-198 0c-6 0-11-4-11-11 0-6 5-10 11-10l198 0 56-58c2-2 4-2 6-2 2 0 5 0 7 4 4 4 4 11 0 15l-41 43 34 0c7-2 11 2 11 8z"/>
            <glyph glyph-name="leads2" unicode="&#57404;"
                   d="M224 132l-98 0c-28 0-49 22-49 49l0 75c0 28 21 49 49 49l100 0 0 77-126 0c-55 0-100-45-100-100l0-124c0-56 45-100 100-100l124 0z m26 250l74 0 0-75-74 0z m0-250l74 0 0-74-74 0z m211 299l-100-98 74 0-62-88 137 111-75 0 26 75m0-224l-100-98 74 0-62-88 137 111-75 0 26 75"/>
            <glyph glyph-name="like" unicode="&#57405;"
                   d="M149 294l0-183c0-13 13-26 28-26l205 0c17 0 32 13 34 30l32 141c4 28-17 53-45 53l-83 0c-17 0-30 17-26 34l17 50c9 23-23 42-42 25l-107-98c-8-6-13-15-13-26z m-57-209l-13 0c-9 0-15 7-15 15l0 205c0 9 6 15 15 15l11 0c10 0 17-6 17-15l0-203c0-10-7-17-15-17z"/>
            <glyph glyph-name="link" unicode="&#57406;"
                   d="M192 171l-117 0c-30 0-54 23-54 53l0 85c0 30 24 54 54 54l117 0 0-22-117 0c-17 0-32-15-32-32l0-85c0-17 15-32 32-32l117 0z m245 0l-115 0 0 21 115 0c17 0 32 15 32 32l0 85c0 17-15 32-32 32l-117 0 0 22 117 0c30 0 54-24 54-54l0-85c0-30-24-53-54-53z m-330 106l298 0 0-21-298 0z"/>
            <glyph glyph-name="linkedin" unicode="&#57407;"
                   d="M154 90l-71 0 0 226 71 0z m-37 253c-25 0-42 18-42 39 0 21 17 38 42 38 26 0 43-17 43-38 0-21-17-39-43-39z m320-253l-81 0 0 117c0 30-13 51-40 51-22 0-32-15-39-28 0-4 0-10 0-19l0-121-79 0c0 0 0 207 0 226l79 0 0-37c5 15 30 39 71 39 51 0 89-32 89-103z"/>
            <glyph glyph-name="linkedin-box" unicode="&#57408;"
                   d="M0 512l0-512 512 0 0 512z m183-363l-49 0 0 160 49 0z m-25 180c-19 0-30 12-30 27 0 15 13 28 30 28 19 0 30-13 30-28 0-15-11-27-30-27z m226-180l-58 0 0 84c0 21-8 36-27 36-15 0-24-11-28-19-2-5-2-9-2-13l0-88-56 0c0 0 0 148 0 160l56 0 0-25c4 10 21 25 49 25 36 0 64-23 64-72l0-88z"/>
            <glyph glyph-name="list" unicode="&#57409;"
                   d="M128 405c0-23-19-42-43-42-23 0-42 19-42 42 0 24 19 43 42 43 24 0 43-19 43-43z m0-149c0-24-19-43-43-43-23 0-42 19-42 43 0 24 19 43 42 43 24 0 43-19 43-43z m0-149c0-24-19-43-43-43-23 0-42 19-42 43 0 23 19 42 42 42 24 0 43-19 43-42z m320 320l-256 0c-13 0-21-9-21-22 0-10 8-21 21-21l256 0c11 0 21 9 21 21 0 13-8 22-21 22z m0-150l-256 0c-11 0-21-8-21-21 0-11 8-21 21-21l256 0c11 0 21 8 21 21 0 13-8 21-21 21z m0-149l-256 0c-11 0-21-9-21-21 0-11 8-22 21-22l256 0c11 0 21 9 21 22 0 12-8 21-21 21z"/>
            <glyph glyph-name="list-advance" unicode="&#57410;"
                   d="M77 410l77 0 0-52-77 0z m130 0l228 0 0-52-228 0z m-130-128l77 0 0-52-77 0z m130 0l228 0 0-52-228 0z m-130-128l77 0 0-52-77 0z m130 0l228 0 0-52-228 0z"/>
            <glyph glyph-name="list-group" unicode="&#57411;"
                   d="M457 448l-402 0c-29 0-55-23-55-53l0-256c0-30 26-54 55-54l402 0c29 0 55 24 55 54l0 256c0 30-26 53-55 53z m-436-53c0 17 15 32 34 32l402 0c19 0 34-15 34-32l0-160-470 0z m470-256c0-17-15-32-34-32l-402 0c-19 0-34 15-34 32l0 74 470 0z m-96 202l-278 0c-6 0-10-4-10-10 0-7 4-11 10-11l278 0c6 0 10 4 10 11 0 6-4 10-10 10z m-278-192l278 0c6 0 10 5 10 11 0 6-4 11-10 11l-278 0c-6 0-10-5-10-11 0-6 4-11 10-11z"/>
            <glyph glyph-name="listall" unicode="&#57412;"
                   d="M467 358l-143 150c-4 2-6 4-8 4l-263 0c-6 0-10-4-10-11l0-490c0-7 4-11 10-11l406 0c6 0 10 4 10 11l0 341c0 2 0 6-2 6z m-34 5l-113 0 0 117z m-369-342l0 470 235 0 0-139c0-6 4-11 10-11l139 0 0-320z m288 278l-160 0c-6 0-11-5-11-11 0-6 5-11 11-11l160 0c6 0 11 5 11 11 0 6-7 11-11 11z m0-86l-160 0c-6 0-11-4-11-10 0-7 5-11 11-11l160 0c6 0 11 4 11 11 0 6-7 10-11 10z m0-85l-160 0c-6 0-11-4-11-11 0-6 5-10 11-10l160 0c6 0 11 4 11 10 0 7-7 11-11 11z m-209 160c0 9-7 17-15 17-8 0-15-8-15-17 0-9 7-17 15-17 8 0 15 8 15 17z m0-81c0 9-7 17-15 17-8 0-15-8-15-17 0-9 7-17 15-17 8 0 15 8 15 17z m0-90c0 10-7 17-15 17-8 0-15-7-15-17 0-9 7-17 15-17 8 0 15 8 15 17z"/>
            <glyph glyph-name="listing-dbrd" unicode="&#57413;"
                   d="M435 358l-205 0c-15 0-25 11-25 26 0 13 10 26 25 26l205 0c13 0 26-11 26-26 0-15-10-26-26-26z m0-128l-205 0c-12 0-25 11-25 26 0 13 10 26 25 26l205 0c13 0 26-11 26-26 0-15-10-26-26-26z m0-128l-205 0c-12 0-25 11-25 26 0 13 10 26 25 26l205 0c13 0 26-11 26-26 0-15-10-26-26-26z m-330 256l-28 0c-13 0-26 11-26 26 0 13 10 26 26 26l25 0c13 0 26-11 26-26 3-15-10-26-23-26z m0-128l-28 0c-13 0-26 11-26 26 0 13 10 26 26 26l25 0c13 0 26-11 26-26 3-15-10-26-23-26z m0-128l-28 0c-13 0-26 11-26 26 0 13 10 26 26 26l25 0c13 0 26-11 26-26 3-15-10-26-23-26z"/>
            <glyph glyph-name="litcoin" unicode="&#57414;"
                   d="M452 250c-6 0-10-5-13-11-14-85-89-149-177-149-98 0-179 81-179 179 0 98 81 179 179 179 62 0 122-34 154-90 4-6 11-8 17-4 6 4 9 11 4 17-36 62-102 100-175 100-111 0-202-91-202-204 0-113 91-205 202-205 101 0 184 72 201 175 0 6-4 10-11 13z m5 49c0-6-5-11-11-11-6 0-11 5-11 11 0 6 5 10 11 10 6 0 11-4 11-10z m-252-113c2-3 4-5 8-5l128 0c7 0 11 5 11 11 0 6-4 11-11 11l-113 0 13 57 45 15c6 2 8 7 6 13-2 6-6 9-13 6l-32-10 20 77c0 6-2 10-9 12-6 0-11-2-13-8l-23-92-43-15c-6-2-8-6-6-13 2-4 6-6 10-6 0 0 3 0 3 0l32 11-15-56c0-2 0-6 2-8z"/>
            <glyph glyph-name="litcoin2" unicode="&#57415;"
                   d="M162 119c4-4 7-6 15-6l222 0c11 0 19 6 19 19 0 11-6 19-19 19l-196 0 21 101 77 25c10 5 15 11 10 22-4 10-10 15-21 10l-55-19 34 132c0 11-4 20-15 22-11 0-19-5-21-15l-41-158-75-26c-10-4-15-10-10-21 4-6 10-11 19-11l4 0 56 20-26-96c0-7 0-15 2-18z"/>
            <glyph glyph-name="location" unicode="&#57416;"
                   d="M245 4c-6 0-10 2-12 9l-141 234c-13 26-17 52-17 77 0 101 81 182 181 182 100 0 181-81 181-182 0-25-6-51-17-74 0 0 0-3-2-3l-162-234c0-4-4-9-11-9z m11 470c-83 0-149-69-149-150 0-21 4-42 12-62l128-211 148 214c8 19 12 40 12 59-2 83-68 150-151 150z m151-218z m-151 4c-41 0-75 34-75 75 0 40 34 75 75 75 41 0 75-35 75-75 0-41-34-75-75-75z m0 118c-23 0-43-20-43-43 0-24 20-43 43-43 23 0 43 19 43 43 0 23-20 43-43 43z"/>
            <glyph glyph-name="lockscreen" unicode="&#57417;"
                   d="M437 469l-362 0c-30 0-54-23-54-53l0-320c0-30 24-53 54-53l362 0c30 0 54 23 54 53l0 320c0 30-24 53-54 53z m32-373c0-17-15-32-32-32l-362 0c-17 0-32 15-32 32l0 245 426 0z m0 267l-426 0 0 53c0 17 15 32 32 32l362 0c17 0 32-15 32-32z m-362 42c0-11-10-21-22-21-11 0-21 10-21 21 0 12 10 22 21 22 12 0 22-10 22-22z m64 0c0-11-10-21-22-21-11 0-21 10-21 21 0 12 10 22 21 22 12 0 22-10 22-22z m64 0c0-11-10-21-22-21-11 0-21 10-21 21 0 12 10 22 21 22 12 0 22-10 22-22z m-15-315l96 0c27 0 49 21 49 49l0 57c0 28-22 49-49 49l-11 0 0 39c0 21-17 38-38 38-22 0-39-17-39-38l0-39-10 0c-28 0-49-21-49-49l0-57c2-28 23-49 51-49z m27 192c0 10 9 19 20 19 10 0 19-9 19-19l0-39-39 0z m-57-86c0 15 13 28 28 28l96 0c15 0 27-13 27-28l0-57c0-15-12-28-27-28l-96 0c-15 0-28 13-28 28z m77-68c10 0 19 11 19 19l0 19c0 11-11 20-19 20-9 0-20-11-20-20l0-19c0-8 9-19 20-19z"/>
            <glyph glyph-name="login" unicode="&#57418;"
                   d="M416 491l-213 0c-30 0-54-24-54-54l0-74c0-7 5-11 11-11 6 0 11 4 11 11l0 74c0 17 15 32 32 32l213 0c17 0 32-15 32-32l0-362c0-17-15-32-32-32l-213 0c-17 0-32 15-32 32l0 74c0 7-5 11-11 11-6 0-11-4-11-11l0-74c0-30 24-54 54-54l213 0c30 0 53 24 53 54l0 362c0 30-23 54-53 54z m-158-308c-4-4-4-10 0-14 2-3 4-3 9-3 4 0 6 0 8 3l90 89c4 4 4 11 0 15l-90 90c-4 4-10 4-15 0-4-5-4-11 0-15l73-73-269 0c-6 0-11-4-11-10 0-7 5-9 11-9l267 0z"/>
            <glyph glyph-name="login-page" unicode="&#57419;"
                   d="M395 207c-7 0-11-4-11-11l0-68-128 0 0 256 128 0 0-64c0-6 4-11 11-11 6 0 10 5 10 11l0 75c0 6-4 10-10 10l-139 0 0 32c0 2-2 7-4 9-2 2-5 2-9 2l-213-43c-4-2-9-6-9-10l0-278c0-4 5-8 9-10l213-43c0 0 2 0 2 0 2 0 5 0 7 2 2 2 4 4 4 9l0 32 139 0c6 0 10 4 10 10l0 81c0 5-4 9-10 9z m-160-120l-192 39 0 260 192 39z m264 188l-42 43c-5 4-11 4-15 0-5-4-5-11 0-15l23-24-156 0c-6 0-10-4-10-10 0-7 4-11 10-11l156 0-23-23c-5-5-5-11 0-15 0-7 4-7 6-7 2 0 6 0 9 2l42 43c2 4 2 13 0 17z m-328 24c-24 0-43-20-43-43 0-23 19-43 43-43 23 0 42 20 42 43 0 23-19 43-42 43z m0-64c-13 0-22 8-22 21 0 13 9 21 22 21 12 0 21-8 21-21 0-13-9-21-21-21z"/>
            <glyph glyph-name="logout" unicode="&#57420;"
                   d="M96 21l213 0c30 0 54 24 54 54l0 74c0 7-5 11-11 11-6 0-11-4-11-11l0-74c0-17-15-32-32-32l-213 0c-17 0-32 15-32 32l0 362c0 17 15 32 32 32l213 0c17 0 32-15 32-32l0-74c0-7 5-11 11-11 6 0 11 4 11 11l0 74c0 30-24 54-54 54l-213 0c-30 0-53-24-53-54l0-362c0-30 23-54 53-54z m158 308c4 4 4 10 0 14-2 3-4 3-9 3-4 0-6 0-8-3l-90-89c-4-4-4-11 0-15l90-90c4-4 10-4 15 0 4 5 4 11 0 15l-71 71 267 0c6 0 11 4 11 10 0 7-5 11-11 11l-267 0z"/>
            <glyph glyph-name="loss" unicode="&#57421;"
                   d="M512 107l-19 98-32-28-124 137c-11 12-32 15-45 2l-91-75c-5-4-11-4-15 0l-167 162c-2 2-6 2-8 2-2 0-7 0-9-2-2-4-2-10 0-15l169-160c12-10 30-13 42-2l92 75c4 4 11 2 15-2l124-135-30-25z"/>
            <glyph glyph-name="mail" unicode="&#57422;"
                   d="M459 448l-406 0c-30 0-53-23-53-53l0-278c0-30 23-53 53-53l406 0c30 0 53 23 53 53l0 278c0 30-23 53-53 53z m32-331c0-17-15-32-32-32l-406 0c-17 0-32 15-32 32l0 278c0 17 15 32 32 32l406 0c17 0 32-15 32-32z m-66 265c-5 4-11 4-15 0l-148-145c-4-4-10-4-15 0l-145 145c-4 2-10 2-15 0-4-2-2-11 0-15l148-145c6-7 12-9 21-9 9 0 15 2 21 9l148 145c2 4 2 11 0 15z m-295-152l-64-66c-4-4-4-10 2-13 2-2 5-2 7-2 2 0 6 2 8 5l64 66c4 4 4 10-2 13-4 4-11 2-15-3z m252 0c-4 5-11 5-15 3-4-5-4-9-2-13l64-66c2-3 4-5 8-5 2 0 5 0 7 2 4 5 4 9 2 13z"/>
            <glyph glyph-name="maps" unicode="&#57423;"
                   d="M267 282c17 0 34 6 44 19 26 23 26 64 0 89-23 24-66 24-89 0-26-23-26-64 0-89 11-13 28-19 45-19z m-30 93c8 9 19 13 30 13 10 0 21-4 30-13 17-17 17-42 0-59-15-17-43-17-60 0-17 17-17 42 0 59z m269-311c-7 30-15 62-22 92-10 40-19 83-30 123-2 11-6 20-12 28-11 13-28 11-43 11 8 40-4 85-36 117-26 26-58 39-94 39-36 0-68-13-94-39-32-30-43-74-36-115l-47 0c-17 0-28-19-32-30l-54-226c-2-11 0-19 7-28 6-8 15-13 25-13l436 0c10 0 19 5 25 13 7 9 9 19 7 28z m-316 358c19 22 47 32 77 32 27 0 55-10 76-32 43-42 43-113 0-155l-70-71c-4-4-11-4-15 0 0 0-68 71-68 71-43 42-43 113 0 155z m292-373c-2-2-4-4-8-4l-436 0c-4 0-6 2-8 4-2 2-2 4-2 9l53 226c2 8 9 15 11 15l53 0c6-15 15-30 28-43 0-2 70-75 70-75 7-6 15-8 24-8 8 0 17 2 21 8l68 69c2 0 30 32 37 49l27 0c13-2 64-241 64-241 0-3 0-7-2-9z"/>
            </font>
</defs>
</svg>
