<svg width="1440" height="304" xmlns="http://www.w3.org/2000/svg"><path d="M1178.784 209.55c.114.161.235.328.076.443l-.922 3.129c-.29-.057-1.1.515-1.594.854-1.53-.027-3.104-.704-3.586-.801.007.048.008.076.02.16-.385.041-.668-.058-1.051-.016.019.127.037.256-.096.269-.258.028-.182-.376-.574-.332-.512.06-1.012.248-1.272.273-.26.03-.534-.072-.59-.463-.668-.06-3.53.12-3.603-.394l-1.942.21c-.071-.516-.426-.22-.46-.474-.018-.127.091-.273.314-.557 1.552-.17 5.6.57 8.63.637.005.047.06.047.075.08-1.2-2.058-.577-3.765 1.212-5.015.976-.68 3.49-.936 3.849-.442.236.328.27 1.053.63 1.553.242.335.761.712.884.885zm-19.58 31.578c.612-.177 1.295.09 1.774.755.48.662.303 1.78-.509 2.345-.651.454-1.824.525-2.423-.304-.479-.662-.583-1.827.391-2.507.163-.117.327-.227.767-.29zm-6.518-7.662c.493-.344 1.141-.797 1.746.036.114.162.314.77-.057 1.28-.65.454-1.22.352-1.576-.144-.246-.335-.314-.781-.113-1.172zm30.127 1.664a.428.428 0 0 1 .566.101c.362.495.319.772-.176 1.111-.16.115-.558-.099-.677-.266-.242-.332.122-.836.287-.946zm30.673-41.318c-.024-.72-.434-.935.38-1.508.655-.457 1.26-.633 1.87-.803.77-.29 1.5-.3 2.513-.257-1.47 1.02-3.334 1.83-4.763 2.568zm-39.842-37.02a3.96 3.96 0 0 0-1.2-.725c.003-1.354.765-1.864 1.097-2.501.293.484.534.83.723 1.048.1.396.228.723.38.972-.186.683-.564 1.041-1 1.207zm4.235 37.945c-.266.072-.79.036-1.317-.044.084-.212.211-.388.474-.42.626-.068.402.206.811.258.001.069.031.135.032.206zm-9.807-42.65c-.26.029-.744.342-1.001.37-.176.022-.367-.053-.565-.118-.02-.226-.059-.542-.133-.646-.037-.05-.476-.184-1.074-.314l-.66-1.278c-.056-1.302.922-1.804 2.07-2.056.31 1.273 2.414 3.14 2.694 3.245 2.033-.485.85-2.322 2.016-2.448 1.065-.116 1.752 1.175 2.18 2.66-.373-.396-.975-.756-1.412-.707.32.76.599 1.35.86 1.86-.634.225-.631.939-1.19 1.117-.353-.443-.487-.837-.689-1.142a.581.581 0 0 0 .051-.328c-.12-.168-.241-.332-.4-.22-.06.037-.099.08-.148.123-.426-.208-1.144-.277-2.599-.117zm6.98 42.125c-.04-.059-.004-.136.039-.225.267.178.495.354.67.536-.341-.099-.633-.205-.709-.311zm-19.606-64.668c.024-.027.061-.033.09-.068.01.023.022.034.031.051-.045-.004-.076.022-.121.017zm-14.116 13.254c-.518.056-1.11-.403-1.219-1.172-.072-.523.077-1.323.004-1.839-.074-.518-.144-1.03-.66-.975-1.442.156.43 3.291-1.342 3.977a1.922 1.922 0 0 1-.725-1.195c-.286-1.184-1-1.544-1.786-1.704-.141-.537-.31-.977-.58-1.196.528-.727 1.123-1.616 2.658-1.781 2.09-.227 3.929 1.331 4.814 2.172-.02.233-.05.458-.014.707.037.261.33.485.37.749.145 1.027-.486 2.145-1.52 2.257zm-6.955-3.09c-.15-.02-.3-.042-.438-.078a1.37 1.37 0 0 0 .45-.23l-.012.307zM1157.4 293.2c1.137-.79 2.505-.257 3.46 1.067 1.08 1.492-.395 3.52-1.37 4.202-.654.455-2.383-.584-2.714-.358-.115-.16-.401-.215-.52-.38-.957-1.322-.329-3.508 1.144-4.531zm39.274-72.467c.325-.229 1.007.04 1.248.369.357.501.556 1.108.067 1.453-.488.34-1.127-.208-1.251-.372-.24-.335-.152-.894-.064-1.45zm2.504.747c.158-.113.277.054.277.054.12.165.04.72-.126.835-.164.114-.449.057-.57-.105-.114-.164-.48-.66.17-1.119 0 0 .166-.114.288.055l-.039.28zm-74.51-9.826c-.297.95-.707 1.742-1.685 2.419-.49.34-.819.567-1.42.742-.904 1.13-1.727 2.693-3.201 3.721-.97.681-2.068 1.2-3.442.66-.718-.99-.218-2.338.967-3.406l7.375-5.4c.493-.347 1.132.208 1.372.542.117.16.079.44.034.722zm-44.148-35.972c.015-1.004.63-2.183.848-3.577.163-.112.847.15.969.32-.014 1.003-.273 2.68-1.251 3.362-.164.112-.329.225-.566-.105zm-33.628-15.662l-.282-.047c-.241-.333-.432-.945-.107-1.169.33-.23.61-.18.728-.01.36.491.15.886-.339 1.226zm26.647-26.544c1.14-.8 2.673-.373 3.507.785 1.32 1.822-.677 3.461-.677 3.461-1.47 1.024-2.232.31-3.441-.338-.355-.495-.67-1.277-.544-2.112.085-.562.503-1.345 1.155-1.796zm56.2 121.469c.566.107.847.157 1.084.49.48.659.384 2.222-.348 3.238-.495.342-.712 1.733-1.195 2.078-.167.11-.447.063-.61.177-.552-2.111-.883-4.62 1.069-5.983zm2.448-34.584c.484-.345 1.22-.345 1.572.144.36.495.638 1.55-.018 2-.33.233-1.5.307-1.86-.19-.475-.664-.187-1.616.306-1.954zm20.508 69.394c.447-.069.85.155.969.323.12.163.318.773-.013 1.002-.324.226-.891.12-.891.12-.358-.495-.389-1.223-.065-1.445zm-103.166-122.143c.797.048 1.593.091 2.492-.008.057.39 1.2 1.05 1.736 2.04-.516.055-.795 1.79-2.478 1.97-.778.084-3.122-.709-3.248-1.612-.072-.514 1.59-1.74 1.498-2.39zm16.866.402c-.645.071-1.658-.608-1.735-1.125-.072-.514.411-.827.745-1.259.793.046 1.831-.066 2.01 1.223.091.646-.368 1.087-1.02 1.161zm60.335-55.26c-.646.07-1.053-.016-1.166-.79-.053-.387.024-.787.926-.883.262-.03.426.212.742.57.129.907.014 1.048-.502 1.103zm-27.292 28.89c.033.26-.206.414-.576.587-.056-.388.04-.659.11-1.063.297.235.447.35.466.477zm-42.684 25.97c.521-.054.61.59.667.98-.5.18-1.132.383-1.65.438-.015-.13-.039-.261-.055-.387-.02-.13-.02-.13-.273-.1.033-.66.26-.943.515-.972.26-.03.538.07.796.041zm36.462 32.991c.39-.043.795.042 1.143.656-.255.03-.643.07-.772.085-.519.055-.796-.043-1.016-.673.257-.03.517-.054.645-.068zm19.524 5.213s.128-.012.164.247c-1 1.288.624 3.471-1.41 3.952.094-1.19.577-1.503.45-2.405-.023-.133.537-1.763.796-1.794zm-33.132-35.438c.254-.03.426.216.46.472.037.26-.136 2.768-4.92 3.283-.02-.126-.428-.214-.684-.188-.389.045-.627.203-.612.333-2.196.239-8.13 1.01-8.37-.667-.4-2.84 4.016-2.271 3.945-2.786.146.112.274.102.404.087 0 0 3.142-.995 3.107-1.251l4.82-.26c.498.731 1.24.387 1.85.977z" fill="#6B74A2" fill-rule="evenodd" fill-opacity=".32"/></svg>