<svg width="2389" height="765" xmlns="http://www.w3.org/2000/svg" xmlns:xlink="http://www.w3.org/1999/xlink"><defs><linearGradient x1="45.614%" y1="-2.833%" x2="13.272%" y2="100%" id="a"><stop stop-color="#FFF" stop-opacity=".64" offset="0%"/><stop stop-color="#FFF" stop-opacity="0" offset="100%"/></linearGradient><filter x="-.9%" y="-.3%" width="101.9%" height="100.7%" filterUnits="objectBoundingBox" id="b"><feGaussianBlur stdDeviation="-0.5 -6.123234e-17" in="SourceGraphic"/></filter><circle id="c" cx="48" cy="48" r="48"/><filter x="0%" y="0%" width="100%" height="100%" filterUnits="objectBoundingBox" id="d"><feGaussianBlur in="SourceGraphic"/></filter><filter x="-16.7%" y="-16.7%" width="133.3%" height="133.3%" filterUnits="objectBoundingBox" id="e"><feGaussianBlur stdDeviation="16" in="SourceAlpha" result="shadowBlurInner1"/><feOffset in="shadowBlurInner1" result="shadowOffsetInner1"/><feComposite in="shadowOffsetInner1" in2="SourceAlpha" operator="arithmetic" k2="-1" k3="1" result="shadowInnerInner1"/><feColorMatrix values="0 0 0 0 0.2 0 0 0 0 0.505882353 0 0 0 0 1 0 0 0 1 0" in="shadowInnerInner1"/></filter><radialGradient cx="48.392%" cy="0%" fx="48.392%" fy="0%" r="117.062%" gradientTransform="scale(-1 -.84319) rotate(-86.229 0 .517)" id="f"><stop stop-color="#0062FF" stop-opacity="0" offset="0%"/><stop stop-color="#0062FF" stop-opacity=".32" offset="68.708%"/><stop stop-color="#00C2BE" offset="100%"/></radialGradient><filter x="0%" y="0%" width="100%" height="100%" filterUnits="objectBoundingBox" id="g"><feGaussianBlur in="SourceGraphic"/></filter><radialGradient cx="47.914%" cy=".603%" fx="47.914%" fy=".603%" r="110.819%" gradientTransform="scale(-1 -.84319) rotate(-56.212 -.012 .897)" id="h"><stop stop-color="#0062FF" offset="0%"/><stop stop-color="#00F5F0" offset="36.832%"/><stop stop-color="#00F5F0" stop-opacity="0" offset="66.454%"/><stop stop-color="#00A7FF" stop-opacity=".24" offset="100%"/></radialGradient><filter x="0%" y="0%" width="100%" height="100%" filterUnits="objectBoundingBox" id="i"><feGaussianBlur in="SourceGraphic"/></filter><radialGradient cx="52.101%" cy="-25.108%" fx="52.101%" fy="-25.108%" r="112.467%" id="k"><stop stop-color="#00A7FF" stop-opacity=".24" offset="0%"/><stop stop-color="#00F5F0" stop-opacity=".72" offset="44.314%"/><stop stop-color="#00F5F0" stop-opacity="0" offset="100%"/></radialGradient><circle id="j" cx="199.723" cy="200.238" r="199.501"/><filter x="0%" y="0%" width="100%" height="100%" filterUnits="objectBoundingBox" id="l"><feGaussianBlur in="SourceGraphic"/></filter><linearGradient x1="88.451%" y1="97.066%" x2="48.181%" y2="39.462%" id="m"><stop stop-color="#00A7FF" offset="0%"/><stop stop-color="#0062FF" stop-opacity="0" offset="100%"/></linearGradient><radialGradient cx="48.392%" cy="0%" fx="48.392%" fy="0%" r="111.725%" gradientTransform="scale(-1 -.8427) rotate(-56.228 0 .906)" id="n"><stop stop-color="#00C2BE" stop-opacity="0" offset="0%"/><stop stop-color="#0062FF" offset="37.439%"/><stop stop-color="#0062FF" stop-opacity="0" offset="65.522%"/><stop stop-color="#111325" stop-opacity="0" offset="100%"/></radialGradient><filter x="-5%" y="-4.2%" width="110%" height="108.4%" filterUnits="objectBoundingBox" id="o"><feGaussianBlur stdDeviation="10" in="SourceGraphic"/></filter><circle id="p" cx="16" cy="16" r="16"/><filter x="0%" y="0%" width="100%" height="100%" filterUnits="objectBoundingBox" id="q"><feGaussianBlur in="SourceGraphic"/></filter><filter x="-18.8%" y="-18.8%" width="137.5%" height="137.5%" filterUnits="objectBoundingBox" id="r"><feGaussianBlur stdDeviation="6" in="SourceAlpha" result="shadowBlurInner1"/><feOffset in="shadowBlurInner1" result="shadowOffsetInner1"/><feComposite in="shadowOffsetInner1" in2="SourceAlpha" operator="arithmetic" k2="-1" k3="1" result="shadowInnerInner1"/><feColorMatrix values="0 0 0 0 0 0 0 0 0 0.384313725 0 0 0 0 1 0 0 0 1 0" in="shadowInnerInner1"/></filter><linearGradient x1="65.533%" y1="39.002%" x2="20.072%" y2="102.251%" id="s"><stop stop-color="#00F5F0" stop-opacity=".64" offset="0%"/><stop stop-color="#00A7FF" stop-opacity="0" offset="100%"/></linearGradient></defs><g fill="none" fill-rule="evenodd"><path d="M303.299 220.774c-2.02 28.062-6.027 56.073-13.073 83.35-3.558 13.618-7.873 27.062-13.46 39.956-2.784 6.444-5.91 12.742-9.481 18.759-3.583 6-7.603 11.756-12.33 16.832-4.714 5.049-10.197 9.454-16.465 12.064-3.135 1.258-6.437 2.102-9.79 2.257-3.35.166-6.727-.231-9.946-1.246-6.486-1.954-12.227-6.062-17.166-10.865-4.951-4.845-9.158-10.476-12.892-16.388-7.431-11.887-13.012-24.922-17.646-38.222-4.613-13.33-8.21-27.016-11.131-40.837-5.788-27.668-8.893-55.885-10.015-84.137-1.083-28.26-.233-56.6 2.815-84.686 1.534-14.04 3.62-28.017 6.412-41.846 2.784-13.828 6.257-27.517 10.69-40.881 4.464-13.337 9.85-26.416 16.99-38.483 3.595-6.003 7.63-11.761 12.384-16.85 4.746-5.056 10.268-9.497 16.63-12.115 3.635-1.461 6.53-2.011 8.463-2.29.966-.167 1.7-.21 2.189-.286.489-.07.735-.135.735-.192-.001-.057-.25-.104-.747-.141-.5-.031-1.25-.086-2.247-.003-1.988.109-5.007.557-8.744 2.043-6.56 2.67-12.207 7.19-17.045 12.308-4.847 5.149-8.946 10.958-12.598 17.005-7.254 12.15-12.72 25.289-17.264 38.675-4.51 13.413-8.056 27.142-10.91 41.006-2.862 13.865-5.015 27.877-6.617 41.949-3.183 28.15-4.164 56.553-3.206 84.892.998 28.333 3.985 56.649 9.682 84.478 2.878 13.903 6.435 27.687 11.033 41.152 4.622 13.439 10.199 26.644 17.735 38.82 3.789 6.059 8.076 11.87 13.213 16.954 2.57 2.535 5.356 4.877 8.395 6.889 3.029 2.02 6.334 3.687 9.858 4.778a31.182 31.182 0 0 0 10.938 1.453c3.708-.127 7.35-1.045 10.768-2.39 6.844-2.783 12.645-7.454 17.586-12.684 4.948-5.267 9.1-11.172 12.79-17.301 3.67-6.147 6.873-12.548 9.718-19.086 5.707-13.08 10.089-26.665 13.706-40.413 7.152-27.536 11.204-55.762 13.223-84.053.956-13.68 1.023-23.971.849-30.823-.182-6.854-.618-10.276-.998-10.276-.413-.001-.77 3.415-1.184 10.233-.422 6.817-.89 17.038-1.847 30.64" filter="url(#b)" transform="rotate(-59 1262.8 -1005.539)" fill="url(#a)"/><g filter="url(#d)"><use filter="url(#e)" xlink:href="#c" opacity=".16" fill="#000" transform="translate(614.837 668.992)"/></g><path d="M463 820.585c165.685 0 300-134.315 300-300s-255.488-620.379-300-300-300 134.315-300 300 134.315 300 300 300z" filter="url(#g)" transform="rotate(44 1836.714 2015.613)" fill="url(#f)"/><path d="M454 820.585c165.685 0 300-134.315 300-300s-255.488-620.379-300-300-300 134.315-300 300 134.315 300 300 300z" filter="url(#i)" transform="rotate(-37 472.675 -1582.476)" fill="url(#h)" fill-opacity=".32"/><use fill="url(#k)" filter="url(#l)" xlink:href="#j" transform="translate(1688.837 156.992)"/><ellipse cx="200.223" cy="200.238" rx="200" ry="199.501" transform="translate(1437.837 171.992)" fill="url(#m)"/><path d="M381.788 685.903c165.685 0 300-134.393 300-300.175s-255.488-620.741-300-300.175-300 134.393-300 300.175 134.314 300.175 300 300.175z" filter="url(#o)" transform="rotate(-85 869.78 -488.593)" fill="url(#n)" fill-opacity=".48"/><g filter="url(#q)"><use filter="url(#r)" xlink:href="#p" opacity=".16" fill="#000" transform="translate(1439.837 105.992)"/></g><path d="M1582.91-12.78c-2.006-.734-6.265-.117-6.801-1.747.163-2.394 8.44-.771 6.802 1.748zm55.987 9.155c3.106-1.146 7.71 5.137 5.72 6.948-2.76-1.803-3.697-4.68-5.72-6.948zm48.005 15.275c2.6-.25 1.44 4.959-1.207 2.987-.324-1.869 1.283-1.421 1.207-2.987zm175.951 34.08c-1.803 2.538-4.898 3.507-8.652 3.691.787-3.476 5.587-5.702 8.652-3.69zm-369.26-62.027c-.379 3.229-3.032 3.661-6.666 2.948.942-2.219-2.176-1.91-.658-4.495 3.866.192 4.78-.231 7.323 1.547zm197.961 36.79c-1.601 2.075-3.722 3.468-5.53 5.289-4.302-1.582 1.76-8.595 5.53-5.289zm-207.602-33.782c2.726.678 3.345 2.549 4.185 4.32a471.11 471.11 0 0 1-4.546-1.035c.126-1.089.24-2.184.361-3.285zm321.065 65.32c-.167 3.257-6.002.83-4.955-1.605 1.087-.671 5.197-.207 4.955 1.605zm8.233 3.037c.407 2.302-2.11 1.027-3.627 1 .038 2.71 2.685 3.814 3.01 6.34-.569.517-1.112 1.04-1.288 2.047-1.427.911-5.687.308-6.664-.932 1.167-3.24.823-5.55-1.19-6.837 2.332-1.642 5.537-2.259 9.759-1.618zm-33.488-5.684c-.605 2.784-5.065 4.073-6.94 2.619.958-2.518 3.526-3.09 6.94-2.619zm97.179 20.079c1.826.187 3.578.432 4.314 1.31-.998 1.937-3.638 1.885-5.806 2.414-.142-2.025 1.218-2.215 1.492-3.724zm-81.51-13.852c-2.728 2.486-7.635 2.341-12.765 1.9 2.05-3.313 7.09-2.988 12.764-1.9zm-276.795-49.84c-.444 3.134-1.803 5.162-5.308 4.564.718-2.807 1.777-5.194 5.308-4.564zm218.115 42.952c3.6 1.266 6.494 2.953 6.815 6.03-2.849.12-6.828-2.574-6.815-6.03zm131.2 26.42c-2.506 6.053-15.96-1.155-18.305 5.132-2.515-.413-2.082-2.572-1.797-4.677 7.186.889 15.15-1.363 20.103-.455z" fill="#FFF" fill-opacity=".24"/><path d="M1880.207 469.368c-.133.148-.268.303-.415.173l-3.257-.194c-.01-.295-.749-.955-1.19-1.36-.318-1.497-.013-3.184-.027-3.675-.045.018-.072.025-.15.056-.128-.366-.095-.665-.222-1.029-.12.048-.24.094-.284-.032-.086-.246.325-.262.195-.634-.175-.486-.47-.931-.552-1.178-.088-.247-.05-.537.318-.678-.093-.665-.911-3.415-.427-3.6l-.64-1.846c.486-.185.117-.464.357-.554.12-.046.286.027.613.18.515 1.474.705 5.586 1.321 8.552-.044.016-.033.07-.061.092 1.736-1.632 3.539-1.41 5.159.052.883.798 1.697 3.19 1.297 3.651-.267.304-.966.5-1.371.963-.272.312-.524.902-.664 1.06zm-35.174-11.974c.31.556.203 1.281-.337 1.898-.538.616-1.666.695-2.399.032-.589-.533-.922-1.66-.25-2.43.538-.615 1.65-.979 2.531-.183.151.133.296.268.455.683zm5.999-8.075c.446.403 1.033.933.358 1.71-.133.147-.68.479-1.26.232-.59-.532-.617-1.11-.215-1.569.272-.314.691-.481 1.117-.373zm5.156 29.73c.154.14.168.419.029.573-.402.464-.68.485-1.123.079-.148-.13-.029-.566.108-.72.268-.31.841-.069.986.067zm47.159 20.591c.697-.185.813-.633 1.554.032.593.535.901 1.085 1.203 1.642.457.684.63 1.393.817 2.39-1.324-1.203-2.534-2.838-3.574-4.064zm27.108-47.148c.223-.43.38-.873.437-1.332 1.32-.302 1.989.326 2.684.506-.406.395-.688.706-.86.94-.362.187-.652.385-.86.59-.708-.029-1.142-.316-1.401-.704zm-36.02 12.662c-.13-.243-.213-.762-.253-1.293.226.034.426.119.516.367.207.595-.11.438-.069.849-.067.016-.125.06-.193.077zm39.35-19.15c-.085-.247-.5-.648-.584-.892-.061-.167-.031-.37-.012-.577.215-.07.514-.18.599-.275.04-.047.073-.505.064-1.117l1.098-.93c1.255-.348 1.964.492 2.468 1.555-1.17.588-2.517 3.058-2.556 3.354.93 1.872 2.454.305 2.839 1.413.353 1.012-.75 1.972-2.1 2.723.3-.453.516-1.12.37-1.535-.668.482-1.18.887-1.618 1.256-.363-.566-1.057-.404-1.357-.907.352-.444.706-.663.958-.929.108.021.222.02.331-.024.136-.154.27-.31.124-.44-.049-.049-.1-.078-.153-.116.107-.462.013-1.177-.47-2.558zm-39.474 16.278c.048-.053.132-.035.228-.014-.113.301-.234.562-.372.775.02-.356.058-.663.144-.761zm58.6-33.651c.032.017.046.052.087.072-.02.016-.029.03-.043.042-.006-.045-.038-.07-.043-.114zm-16.09-10.773c-.17-.492.144-1.172.869-1.451.492-.189 1.306-.223 1.792-.41.488-.19.971-.372.801-.863-.476-1.37-3.11 1.159-4.176-.413.18-.39.48-.74 1.001-.975 1.09-.545 1.28-1.322 1.258-2.123.492-.259.882-.522 1.036-.834.827.35 1.826.73 2.333 2.19.691 1.984-.414 4.126-1.034 5.178-.231.033-.458.054-.692.145-.246.095-.398.432-.646.53-.969.371-2.2.008-2.541-.974zm1.448-7.472a3.675 3.675 0 0 1-.024-.444c.087.15.195.283.326.387l-.302.057zm-144.38 56.963c1.025.93.813 2.384-.262 3.61-1.211 1.39-3.519.409-4.403-.389-.59-.534.034-2.452-.26-2.724.13-.148.118-.44.252-.592 1.073-1.23 3.344-1.11 4.673.095zm79.444 21.966c.296.266.187.99-.079 1.3-.408.46-.954.79-1.4.392-.443-.4-.052-1.145.08-1.303.273-.31.837-.349 1.399-.389zm-.164 2.608c.145.129.009.283.009.283-.134.153-.693.2-.842.064-.148-.134-.156-.424-.026-.579.134-.148.536-.616 1.128-.086 0 0 .149.136.012.293l-.281.025zm-7.188-74.81c-.992-.076-1.856-.298-2.736-1.098-.44-.4-.736-.67-1.042-1.218-1.304-.625-3.012-1.076-4.346-2.28-.882-.792-1.635-1.746-1.417-3.206.803-.922 2.229-.739 3.536.176l6.921 5.971c.448.402.052 1.15-.22 1.46-.129.15-.41.174-.696.194zm25.12-51.109c.98-.211 2.268.122 3.675.022.147.133.044.859-.093 1.015-.98.213-2.673.338-3.558-.462-.146-.134-.293-.27-.024-.575zm7.695-36.29l-.018-.285c.27-.31.824-.633 1.115-.367.299.27.313.554.173.707-.397.461-.829.346-1.27-.054zm31.858 19.994c1.037.93.965 2.52.024 3.593-1.478 1.697-3.525.119-3.525.119-1.328-1.202-.803-2.105-.444-3.429.402-.457 1.093-.94 1.936-1.005.566-.043 1.423.188 2.009.722zm-105.713 82.084c.022.576.037.86-.234 1.167-.534.614-2.079.873-3.233.388-.445-.404-1.85-.303-2.294-.697-.145-.137-.162-.42-.31-.555 1.933-1.012 4.303-1.899 6.07-.303zm34.248-5.395c.445.394.61 1.111.213 1.565-.401.462-1.366.97-1.953.432-.3-.268-.636-1.392-.232-1.855.539-.613 1.531-.546 1.972-.142zm-63.003 35.593c.168.42.041.863-.096 1.017-.132.153-.681.484-.98.213-.292-.265-.317-.841-.317-.841.403-.46 1.105-.654 1.393-.389zm95.806-127.998c.133.787.27 1.572.568 2.427-.366.143-.753 1.405-1.597 2.15-.17-.49-1.923-.372-2.477-1.972-.257-.738-.011-3.201.84-3.527.485-.186 2.054 1.158 2.666.922zm3.402 16.524c-.215-.612.22-1.752.706-1.943.485-.187.898.214 1.394.443.133.782.477 1.769-.74 2.232-.608.235-1.141-.114-1.36-.732zm67.417 46.358c-.214-.614-.222-1.03.507-1.314.365-.139.772-.154 1.069.704.088.248-.111.462-.389.851-.855.33-1.018.25-1.187-.24zm-34.29-20.093c-.245.09-.45-.108-.7-.43.364-.141.65-.109 1.06-.131-.163.341-.24.514-.36.56zm-34.906-35.749c.17.496-.437.728-.804.871-.29-.447-.629-1.017-.798-1.509.123-.044.245-.097.365-.141.12-.048.12-.048.035-.289.652-.116.978.041 1.063.284.088.246.053.54.14.784zm-23.943 42.949c.13.37.138.785-.382 1.261-.087-.241-.214-.61-.257-.733-.17-.493-.136-.785.428-1.14.086.243.169.49.21.612zm-.688 20.197s.04.122-.204.215c-1.48-.685-3.241 1.388-4.167-.484 1.18-.177 1.594.223 2.445-.104.124-.052 1.838.127 1.926.373zm27.077-40.256c.087.242-.115.465-.356.555-.245.094-2.728.49-4.306-4.055.118-.048.113-.466.03-.709-.132-.369-.34-.566-.463-.521-.726-2.087-2.813-7.695-1.233-8.305 2.678-1.03 3.117 3.401 3.602 3.216-.076.168-.037.29.006.414 0 0 1.677 2.837 1.919 2.746l1.338 4.638c-.601.649-.1 1.294-.537 2.021z" fill="#252B45" fill-opacity=".48"/><circle cx="199.723" cy="200.238" r="199.501" transform="rotate(18 1804.613 5815.555)" fill="url(#s)"/><path d="M1752.356 132.987c.027.07.082.157.172.27a1.639 1.639 0 0 0-.303-.244 1.579 1.579 0 0 0-.527.252 3.05 3.05 0 0 0 .342-.373c-.705-.45-1.824-1.085-1.809-2.041-.76.101-1.452.692-2.322.146.857-.496.61-1.36 1.678-1.69.303.311-.317.854.386 1.08.262-.074.7-1.442 1.571-.67-.137.237-.28.334-.464.273.43.834.62.717-.026.625.087.054.175.105.263.156-.102.131-.147.246-.146.348.21.102.357.222.089.686.514.372.852.052 1.311.269.361-.603.67-1.032 1.433-.675-.548.494-.022.798-.59 1.326 1.065.435 1.811-1.161 2.95-.323-.534.547-.093.847.106 1.186-.214.598-1.571-.546-1.107.397-1.23-.003-2.018-1.134-3.007-.998zm52.958 32.201c.033-.053.106-.08.196-.099a.993.993 0 0 0 .273-.404.533.533 0 0 0-.027.364c.217-.037.435-.103.474-.354.386 1.079.952 1.315 2.255 2.022-.717.938-.862.809-1.716 1.757-.37-.349-.805-.735-.198-1.33-.422-.334-.584.023-.812.342-.466-.18-.396-.454-.633-.726.262-.074.518-.062.82.023.312-.49-.21-.68-.541-.657a.942.942 0 0 0-.232.16c0 .003.002.005.003.007a.127.127 0 0 1-.003-.006c-.214.195-.41.485-.63.699-.33-.19-.606-.395-.949-.638-.049-.523.919-1.136-.17-.998-.369-.349.42-.119.154-.722.463-.498 1-.593 1.665-.3-.288.194-.635.264-.91.51.352.231.694.422.981.35zm-33.361-22.387c.295-.248.649-.331 1.247-.1-.3.142-.608.37-.848.862.562.775.74-.293 1.215.251-1.377 1.322-1.723-.815-2.486.05.042-.05.082-.1.12-.149-.092.046-.184.1-.274.174-.78-1.081-.79-.456-1.59-.513-1.015-.676-.576-2.044-2.058-1.909.214-.371.442-.69.65-.975-.835-.528-1.294.874-2.143.293.07-.5.172-.981.412-1.473-.382-.175-.588.561-.877.53-.67-.207-.14-.667-.569-.914.255-.214.605.168.934.358.403-.622-.76-.888-.775-1.393.436-.604.657 1.37 1.234.218.186 1.503 1.394 1.615 2.564 2.02-.117.203-.267.386-.404.623.677.12.92.306 1.376.884-.014-.278-.324-.502-.024-.87 1.527.158 1.375 1.118 2.296 2.033zm26.688 14.913c.074.214.226.47.123.723.67.207-.26-.69.454-1.09.974.518.834 1.293 1.545 1.884.394.002.162-.357.699-.678.263.152.54.357.803.509.141.667-.366.33-.731.658.525.079.997-.054 1.482-.135.493.285.43.7.42 1.098-.337.887-1.856.325-1.66 1.203-.55.268-.754-.975-.743-1.374-.822-.25-1.533.376-2.45-.469.108-.346.072-.665.051-.974-.251.2-.53.09-.8.332-.069-.715-1.2-1.188-1.545-1.883.53-.234 1.055-.382 1.571-.669l.002.006c.047-.081.115-.167.21-.259.33.19.639.414.948.638-.407.075-.45.228-.397.421.022.012.045.023.069.034a2.735 2.735 0 0 0-.05.025zm-.147.898c.054.073.102.15.13.234-.001-.058 0-.115.004-.173a.38.38 0 0 0-.134-.061zm44.393 29.896c-.39-.014-.818-.18-.175.315-1.25-.496-1.852-1.655-3.027-1.748.214-.372.497-.254.711-.625-.653-.693-.882.616-1.543-.216.405-.396 1.024.051 1.341-.802-.48-.232-1.003.142-1.216-.477.657.154 1.187-.08 2.206.283-.405.397.056.663-.473 1.123.184.061.314-.088.492.06.313-.315.103-.482-.089-.683 1.204-.565.87 1.763 2.108 1.442.325.263-.248.7-.107 1.005.425-.322 1.308-.507 1.615-.866.042.61.937 1.036.842 1.657 3.269-.95 4.553 2.449 7.524 3.308-.693.591.123.927-.393 1.44-.45.325-1.098-.454-1.468.188-.26-.69-.415-1.41.053-2.221-1.125-.56-1.134 1.281-1.265 1.431-.235.18-1.08-.714-.136-.98-.483-.683-.588.562-1.07-.122.214-.372.55-.268.73-.659-.322-.276-.544-.044-.867-.32-.287.42.318.588-.145 1.087-.848-.355-.045-1.062-.114-1.552-.321-.05-.597-.03-.811.342-.24-.498-.183-1.051-.645-1.543-.394-.002-.7.226-1.013.766-.16-.633-1.422-.956-1.498-1.585-.815-.336-.285.646-1.046.747-.417-.338-.554-.592-.52-.795zm-96.262-60.621c.237.074.485.219.723.4v.05c.296-.14.604-.226 1.025.256-.394.397-.844.57-1.315.626a3.085 3.085 0 0 1-.15.21 1.63 1.63 0 0 1-.28-.187 6.926 6.926 0 0 1-.83-.065c.851-.183.33-.8-.4-1.131-.035-.245.246-.579-.012-.817.639-.802.568.688 1.235.217.128.12.092.278.004.44zm41.652 24.915c.228-.318.442-.69.65-.975.121.475-.125 1.053.762 1.34-.195.338-.442.69-.67 1.01-.383-.402-.241-.95-.742-1.375zm-7.65-6.015c-.258.751-.732.433-1.107.397-.01.625.676 1.11.194 1.868-.798-.821-1.373-1.649-.73-2.763.545.044 1.071.348 1.643.498zm-3.044-.094c.502-.566-.34-1.007.44-1.142.187.739.423.56.714 1.043-.316 1.078-.984.107-1.36.836-.744-.385-1.041-.781-.428-1.463.034.245.272.517.634.726zm-17.299-10.162c.796-.846 1.687.118 2.019.76-.212.823-.77-.264-.929.545-.181-.826-.613-.534-1.09-1.305zm3.889 1.161c.823.701-.18.842-.332 1.79-.244-.185-.54-.356-.784-.542.372-.416.772-.5 1.116-1.248zm-24.68-14.057c1.485-.673.292.71.972 1.508-.376.728-1.064-.21-1.562-.182-.161-.633.025-1.336.25-2.107-.325 1.704-3.683.756-3.96-.665-.38-.175-.573.615-.948.579-.381-.176-.83-.84-1.037-.104-.62-.673.491-1.383 1.065-.78.122-.516-1.073-.801-.466-1.396 1.167 1.17 3.112.536 3.817 2.204-.015-.279-.291-.484.041-.832.713.817 1.103.141 2.54 1.15-.243.04-.517.288-.712.625zm237.877 156.307c.396-1.38 2.067-2.113 3.008-3.357-.612-.174-.275-.605-.815-.827-3.103 1.514-6.668.662-10.312-.593-.549.488-.066.81-.562 1.284-.764-.53-1.299.01-1.78.535.25.414.47.808.913 1.198.825-.194.325-1.644 1.28-1.137.428.649-.62.535-.763 1.168 1.274.958 1.624 1.742 3.458 2.89 1.856-.359 3.647-1.067 5.573-1.161zm-.444-33.048c3.502 1.887 6.24 1.235 9.464 1.443 1.657.063 2.594.604 3.528-.242 1.646-1.462 1.793-3.879 1.028-4.946-1.931-2.679-7.064-.505-9.232-.997-1.349 2.26-5.177 1.479-4.788 4.742zm-32.964-3.977c1.964-1.859 5.686-5.294 4.407-7.865-1.543.048-3.146-.342-4.675-.242-2.147 4.569-6.198 6.876-9.558 10.61 3.65.857 6.47-2.25 9.826-2.503zm-12.124.461c1.287-3.233 6.816-4.24 7.118-8.623-4.55.546-8.67 3.126-13.089 4.372-.62 2.233-2.89 1.995-4.09 4.072.508 1.053.737 2.123 2.313 2.944 2.509-1.411 4.922-2.966 7.748-2.765zm-4.027-19.971c2.777.441 2.23 4.012 4.456 5.253.322 1.526-1.22 2.423-2.193 4.184 3.593.109 7.007-3.102 10.377-1.604.552-1.11.874-2.131 1.545-3.218-2.22-5.883-9.96-9.771-14.884-5.644.905.21.02.815.7 1.029zm-7.697 15.57c1.351-.872 3.414-2.362 4.257-3.126.063-.187.021-.345-.232-.447-1.165.087-1.967 2.17-3.327 1.207-1.019.528-1.173 1.645-.698 2.367zm-.35-3.33c2.482-.13 5.365-2.575 6.884-4.513-2.213.822-4.678.382-6.919 1.099.334 1.042-.07 2.282.034 3.415zm2.261-9.013c-.95 1.104-.932 2.231-1.83 2.785 1.474 1.074 3.846.21 5.67.37.43-1.673-2.617-2.494-3.84-3.155zm-20.306 1.276c.143-3.49 4.586-2.847 3.87-5.852-2.62-.172-5.444 1.861-5.255 5.008.468.27.917.574 1.385.844zm97.497 26.625c.158.807.556-.036 1.08.445-1.843 1.572-3.134 3.73-4.989 3.777.027 2.115-1.347 2.796-.943 4.414-.859 1.023.057-.95-.783-.497-2.684 3.722-9.727 9.976-8.813 14.57-.215.68-.762.006-1.03.701-.956 1.503-1.132 2.965-2.076 3.983-.444-.39-.681.099-1.1-.411-.044 1.002-.448 1.394-1.379 1.616-.487-.237-.677-.525-.498-.913-1.518.777-4.034.039-4.757 1.677-2.07-.66-3.422-1.485-5.057-2.205.54-.627.684.127.848-.851-.496-.376-.824-.118-1.23-.263-.287-1.82-3.48-3.082-1.931-5.226-1.01-.18-1.814.517-2.776.408-.68-1.062-2.104-2.688-.436-3.647-.91-2.67 2.717-5.4 2.043-8.247-4.494-.093-2.732-5.151-5.472-5.348-.603-.036-3 .1-3.993.509-4.024 1.564-12.04 9.58-14.15 2.195 1.062-2.38 4.229-2.383 5.585-3.343.125-.062-.025-.729.336-.967.946-.481 1.72-.124 2.459-1.172.714-.928 2.29-2.654 2.427-4.049.307-2.771-4.546-7.182-.734-10.387 1.535-1.347 5.684-.426 4.756-3.374-1.302-1.065-2.838-.566-2.81-2.159-1.225-.35-.885.606-1.715.038-.021 2.043-1.94 2.588-2.925 4.834-.352.377.602.347.732.199-1.549 5.54-7.797 3.004-11.158 7.05-2.539-.08-5.099-.665-7.25 1.13-5.124-1.394-14.386 3.221-15.22-4.676 1.13-1.493 1.25-1.78 1.877-3.25-1.294-2.624-1.98-5.298-1.68-8.208-1.333-.859-2.31.14-3.444.559-1.402-1.123-2.403-.316-3.592-.109-.827-.343-.743-.876-1.412-1.262.512-.732 1.15-.988 1.761-1.35.866.276.224 1.156 1.049.962.769-.405 3.791-1.162 3.242.175.898-.242 1.885-.253 2.66-1.056-.028-1.803.94-3.79 1.579-5.745-1.91-1.326-5.318-3.607-7.517-1.883-.705-.63-.716-.458-1.082-.982-.656.828-1.662 1.72-1.811 2.752-1.87.305-4.745 2.89-3.674 5.205 1.043.2 2.106.367 3.158.707-.016.259-.026.431.169.633-1.448 1.041-3.077 1.083-4.907.16-1.3 2.02-.743 3.682-1.43 5.564.937.54 2.128 1.72 3.012 2.275-2.393 1.21-3.136-2.213-5.355-3.851-.384-1.652 1.095-3.21 1.74-4.714-.202-1.502-1.902-1.724-2.525-2.575-.913-1.197-.774-2.904-1.865-4.026 1.71-2.497 3.553-3.22 4.84-4.755-.963-3.505-5.702-1.55-6.753-4.748-1.41-.724-4.2.48-4.792-1.739-2.116-.194-4.602-1.138-6.403-3.116-.376-.351-.563.435-.964.203-2.391-1.649-4.395-.572-6.04-2.817-.74.199-5.437-.235-4.688-2.304-.436.06-.78.577-1.249.619-.093-1.305-1.428.158-1.897-.961.241-.263.621.313.848-.002.108-.34-.121-.562.02-.883-.388-.179-.695.046-.933.534-.289-1.507 1.761-1.351 2.544-.854-.17.527-.556.036-.816.333.03.642 1.397 1.208 1.633.183.343.332-.014.796.05 1.146.858.138 1.621-.181 2.545-.005.807.377.023 1.04.116 1.497.583-.468 1.244-.533 1.826-1.001.428.649 1.844.126 1.283 1.098 2.474-.27 4.464 1.996 6.621 1.812.78.271-.139.858.099 1.219.822.43 1.692-.23 1.928-.406.424.424 1.601.701 1.484 1.214 2.517-.423 4.374 1.766 6.052 2.333 1.18-.034 2.363-.155 3.593.108.362.299.553.587.498.913 3.853.661 8.068 3.63 11.344 3.824 1.034.062 1.66-.56 2.744-.738 2.518-.423 5.372.733 7.833-.75.267.155.515.342.783.497 2.698-1.972 5.965-1.068 9.062-1.335 1.824-1.538 4.7 1.82 6.603.685.992.751 1.855.802 2.66.642.372.438 1.76.658 1.114 1.313 1.564-.392 6.174 2.046 7.303 3.412.357.385.228 1.07.5 1.45.737.962 2.21 1.5 2.86 2.456 1.275 1.808.612 3.883 1.615 5.31 3.616 2 9.474 3.281 9.797 7.354 2.141.924 3.062 3.421 2.63 5.405 4.006 1.554 7.359-.084 10.48-3.018.478.097.93-.222 1.56.23 2.263-3.92 7.732-2.505 11.41-4.938 1.4.585 2.741.734 3.955.407 2.19 1.533 3.998 1.415 6.106 2.319 2.155 1.825 4.557 4.15 5.44 6.715-.091 3.477-2.116 5.748-4.238 9.347zm-160.692-69.416c.02-.034-.014-.053.039-.068-.02.034.033.02.046.072-.033-.019-.033-.019-.085-.004zm-52.318-33.565c.512.026.854-.948 1.482-.135-.637.038-1.27.754-.59 1.326-.42-.108-1.82-.42-1.09-1.305a1.12 1.12 0 0 0-.957.213c-.102-.734.561-.667.707-1.528.816.336-.073 1.039.448 1.43zm-43.492-24.8c-1 .818.71-1.077 1.144-.917 1.078.488 1.214 1.241 1.217 1.919-.373.19-.865.13-1.271.302-.468-.406-.15-1.033-1.09-1.305zm51.92 29.275c.089.682 1.397 1.077.705 1.894-.632-.5-1.088.137-1.76-.296 1.006-.905-.909-.705-1.465-1.566.163-.357.445-.239.582-.475-.948-.638-1.434-.557-2.094-1.39.345-.52.69-1.042 1.054-1.597.579.29 1.547.893 1.897 1.275-.215.372-.517.287-.732.659.963.916.39-.676 1.398.086-.339.435-.759.327-.65.975.69.174 1.19-.618 2.074.207-.185.93-.75-.297-1.01.228zm-20.82-12.494c1.64.047 2.268.86 3.244 1.829-.483.532-1.014.54-1.51 1.02-1.006-.311-1.31-.847-2.046-1.092.927-.77-.078-1.081.312-1.757zm10.135 6.698c.402.367.724.418 1.037.103.27.291.194.652-.178 1.068-1.185-.684-2.71-.169-2.7-1.784.505 1.102.825-.289 1.502-.168.123-.29-.212-.393-.404-.594.773-.274 1.267.01 1.652.864-.288.194-.602.283-.91.51zm-24.561-14.98c.884-.164 1.237 1.886.24 2.166-.437-.838-.583-1.192-1.412-.365-1.268-.462-.094-1.585-1.465-1.566.233-.632.708-1.303.68-1.86.552.41.752-.24 1.74.33-.978.02-.355 1.146-.462 1.94.217.08 1.099-.537.679-.645zm-31.843-14.41c.54.356 1.068.886 1.413.365.541.582-.55 1.484.063 2.018-.241.266-.612-.308-.859.044-.906-1.243-1.525-2.907-3.386-3.711.835-.914-.41-.507-.367-1.113 1.6-1.327 1.663.465 3.036.898-.358.468-.664.922-.275 1.237.5.198-.036-.471.581-.475.211.167-.07.5-.206.736z" fill="#FFF" opacity=".64"/></g></svg>