<svg width="1345" height="356" xmlns="http://www.w3.org/2000/svg"><path d="M257.903 7.253c-1.422.371-2.864.675-2.977-1.113 1.663-.804 3.48-1.835 6.734-2.04.059 1.476-.531 2.592-2.493 2.863-.615-.115-.429-1.625-1.232-1.504-.889.328.867.99-.032 1.794zm-62.367 15.873c-2.619 1.151-6.512 2.304-9.377 2.215 2.85-1.618 5.689-3.27 8.788-4.777.174.86.382 1.71.59 2.562zm5.04-1.768c-.348-.956-.295-1.663-.06-2.24 5.038-.462 8.046-1.652 11.503-.896-3.21 1.758-7.507 1.753-11.444 3.136zm11.759-3.167c.572.346 3.25.16 3.412-.796-1.504.722-3.213-1.3-3.412.796zM158.34 30.554c-.139.404-.278.807-.147 1.39 1.495-.248 3.417-1.163 4.379-.601-3.522 2.066-9.502 2.797-13.112 3.541.853-3.12 4.967-4.01 8.88-4.33zm-26.156 9.882c1.198-3.694 7.694-2.243 9.753-6.365 1.592.599 3.544.55 5.208 1.019-4.584 2.807-9.678 5.36-14.961 5.346zm44.57-12.918c.712.451 1.996-.026 3.092-.268-.521-1.816-3.242-1.4-3.092.268zM115.96 43.963c2.261-2.906 6.553-4.319 10.468-3.366-1.262 2.583-3.703 4.484-7.202 5.742-1.971-.527.069-3.951-3.266-2.376zm10.707-2.03c1.073.31 5.068-.107 5.032-1.626-2.116-.777-3.942-.544-5.032 1.625zM104.46 48.09c2.8-2.55 7.089-2.324 11.204-2.194-1.767 1.709-9.575 6.35-11.204 2.194zm151.689-33.866c2.261-2.906 5.601-4.082 7.033-.742-3.375.421-7.54 3.036-11.067.77-.198-1.327 1.956-1.18 3.205-1.647.419.317.684.86.829 1.62zm-9.747 2.183c.46-.679.281-2.448-1.232-1.504.465-1.044 4.21-1.062 6.378-1.501 1.19 3.008-3.17 2.911-5.146 3.005zm26.186-8.594l.623 2.553c-1.298.3-2.552.622-3.85.922-.108-1.9 1.016-3.059 3.227-3.475zm4.429-.09c1.94-1.612 3.432-.73 5.404.053 2.153-.873 2.459-2.854 5.626-3.107-.216 4.832-6.732 3.57-10.086 5.077-.481-.408-.833-1-.944-2.023zm19.567-2.964c1.437.062.277-1.572.849-1.99 5.322-.107 9.665-2.736 12.584-2.08-2.982 3.44-12.975 5.796-17.583 3.695-.903.914-1.46 2.02-3.56 2.186.555-2.89 6.453-4.035 7.71-1.81zM99.236 50.567c.235-1.087 2.649-.796 3.735-1.326.452.817 1.366.955 1.473 2.345-2.46.814-3.246-1.036-5.208-1.02zm-23.027 7.55c-.397 1.79-3.233 3.076-4.907 2.063-.267-2.836 2.816-1.863 5.229-2.592 2.458-2.853 6.536-2.092 9.916-1.86-2.401 2.545-6.676 1.987-9.939 3.687-.091-.447-.207-.85-.299-1.297zm-6.66 4.366c-6.23 1.386-7.286 2.781-14.319 4.288-1.04-2.36 1.858-3.3 2.667-2.003 3.107-3.512 7.404-4.271 12.409-4.723.06 1.986-2.707.084-.758 2.438zm67.583-17.842c-.035-1.01 2.187-.882 2.586-.632.135.98-.86 1.193-1.941 1.358-.034-.5-.28-.721-.645-.726zM45.888 69.793c1.233-2.43 4.783-4.904 7.492-2.695-1.238 2.54-5.137 2.02-7.492 2.695zm-.881-1.727c1.026 2.437-4.553 5.456-5.032 1.625 2.654.113 3.42-2.292 5.032-1.625zm-5.34 4.102c-6.759 1.574-15.92 8.097-22.202 5.238 7.671-1.69 15.281-7.15 22.201-5.238zm226.551-52.013l-.381-1.712c3.231.858 7.685-2.021 10.849-1.654-2.056 1.463-7.651 2.522-10.468 3.366zM80.884 65.68c-.849-2.451 2.676-2.224 2.582-4.2 1.742 1.249 3.451-1.171 5 .169.333 1.033-.316 1.437-.32 2.312-2.385-.7-4.796 1.303-7.262 1.719zM7.009 81.11c-2.64.32-5.577.362-6.652 2.454C3.16 82.543 6.183 82.55 7.01 81.11zm72.104-14.32c-7.517 2.739-18.022 6.48-24.017 7.033l-.507-2.148c3.23-1.69 10.498-1.991 13.789-4.61 1.292-.698.91 1.269 2 .883 1.575-3.146 6.805-3.19 9.41-4.009.506 1.384-1.72 1.112-.675 2.852zm187.67-41.021c1.657-1.203 4.177-.542 6.815-1.627-1.386-1.532-6.01-.133-6.815 1.627zm-4.674-.654c-1.653.329-3.134.753-4.138 1.442 1.112 1.465 3.308-.148 4.138-1.442zm4.032.31c-1.17-.648-3.048.546-3.735 1.326 1.16.614 3.274-.393 3.735-1.326zM81.167 72.099c.563.057.982.374 1.117 1.1-1.768.943-2.729 2.42-5.642 2.673.004-.875.653-1.28.354-2.322 1.515.84 3.317-.369 4.171-1.451zm-36.59 10.693c.11.769.731.773.818 1.585-.408.736-1.754.867-2.874 1.152-.645-1.744.575-2.313 2.056-2.737zm-27.932 7.763c3.515.449 8.865-5.018 13.996-3.758-1.83 1.617-3.531 2.287-6.286 1.948-1.192.67-.365.76-.056 1.837-7.43 3.04-11.483 3-19.118 6.72.612-3.453 9.626-2.87 11.464-6.747zm67.43-13.56c.237 1.462.094 2.74-1.493 3.05.436-1.654-.506-2.149-1.91-2.22-.074-1.653 2.743-1.478 3.403-.83zm-11.709 7.51c.808.533 1.895.513 3.207.137.106.625.213 1.25.737 1.172-.787 1.828-6.272 2.381-7.493 2.695 1.047-.92.757-2.693 2.906-2.945-1.367-1.21-.751-1.096.344-2.356-.265-.543-1.15-.071-1.818.011.598-3.376 6.81-3.3 8.501-4.258-.444 2.895-6.06 2.611-6.384 5.544zm9.3-4.326c-1.21.347-3.038.325-2.791 1.565 1.167-.371 3.004-.315 2.791-1.565zm-2.65 3.936c3.028-1.123 7.6-.796 9.4-4.043-2.706.849-8.057.854-9.4 4.043zm-14.142 4.94c-.43-1.624 3.958-3.72 3.86-.888-1.86-.012-2.498 1.7-3.86.888zM41.552 99.893c.477 1.538 5.327.038 4.619-1.543-1.885.54-3.07 1.863-4.62 1.543zm196.098-89.21c.472.883-.911 1.644.737 1.171-2.263 1.123-5.835 1.237-9.824 2.308 1.176-1.102 1.704-2.564 3.766-3.12.933.716-.139.915.795 1.63 1.167-.88 3.36-1.109 4.526-1.99zM10.611 81.212c-.57-2.24-.164-.318-1.38-.115-.012-2.326 3.387-2.536 5.997-3.212.628 3.206-3.455 1.537-4.617 3.327zm268.692-64.549c2.457.06 5.566-1.16 7.71-1.81-2.904.031-6.39.193-7.71 1.81zM42.414 75.807c2.463-2.235 4.829-2.259 8.699-3.405.843.778 1.745 1.503 2.097 3.113-3.104 1.145-7.624 3.97-11.234 2.202-.68.559-.342 1.736-1.325 2.127-8.988 1.121-16.688 6.096-26.65 7.642-.714-3.764 3.268-2.357 4.737-4.744 9.138-.727 14.712-6.367 23.676-6.935zM1302.39 305.531c2.914-.756-1.004-2.485-2.806-3.258 3.752.3 8.7 3.346 11.345 6.816 3.389.928 9.057 2.067 7.658 6.404-6.459-2.739-10.028-8.305-16.197-9.962zm34.531 37.844c-2.978 2.32-6.076-4.194-9.34-3.03-.253-.946-.236-1.965.543-3.116 3.712 2.677 5.67 4.303 8.797 6.146zm-27.91-17.09c-.545 4.296 5.891 3.401 7.386 5.217 2.302-1.49 3.362-.04 6.31 1.623-1.513 1.832 1.71 2.626 1.783 4.078-6.598-3.428-13.829-6.612-20.758-10.384 1.058-.913.204-1.406-.11-2.045-.797-.46-1.32.38-1.82 1.312-3.742-1.208-5.953-3.361-7.514-4.338-.312-.905 1.571-1.341.105-2.417 4.75 1.828 7.11 4.448 11.286 5.297-.847 1.797.219 2.908 2.224 3.38l1.108-1.723zm17.368 18.047c5.947 3.692 14.613 6.522 18.2 11.65-7.275-1.99-17.543-8.213-23.142-12.44-4.362-.603-9.84-4.245-13.455-6.737 5.583-2.376 13.458 7.991 18.397 7.527zm-79.85-69.38c3.854 1.857 10.607 4.401 12.603 8.557-5.197-1.499-8.81-4.428-12.467-8.004-1.991-.16-4.483.086-4.93-2.223 1.355-1.232 3.412.98 4.795 1.67zm60.758 69.823l-.883 1.332c.894.442 1.388-.746 2.41.139-.412.646-1.258-.21-1.57.861-4.142-2.98-11.89-5.023-14.152-9.533-1-.061-2.187-.858-3.071-.52-8.002-5.32-15.259-8.81-22.15-13.268.192-.331.428-.674.62-1.005-7.318-1.13-15.668-8.899-21.534-11.88-.664-1.304 1.948-.386 1.12-1.674 1.794.078 3.911 1.522 6.016 2.92-.284.426-.556.896-.855 1.349.344.199.73.459 1.03.669.943 1.023 1.214-.773 1.932-.69 5.061 3.843 13.828 5.847 14.548 11.235.322-.624 1.146-.259 2.122-1.021 1.112.862 1.613 1.852 1.582 2.902 5.032 3.495 11.387 2.375 14.897 7.643 3.834.262 6.224 4.551 9.183 4.934.907.486.786 1.227.742 1.901 1.35-.215 3.802.98 3.87 2.455 1.969.106 2.132.09 4.143 1.251z" fill="#6B74A2" fill-rule="evenodd" fill-opacity=".4"/></svg>