<svg width="1440" height="274" xmlns="http://www.w3.org/2000/svg" xmlns:xlink="http://www.w3.org/1999/xlink"><defs><circle id="c" cx="1174.485" cy="238.836" r="36"/><filter x="0%" y="0%" width="100%" height="100%" filterUnits="objectBoundingBox" id="a"><feGaussianBlur in="SourceGraphic"/></filter><filter x="-16.7%" y="-16.7%" width="133.3%" height="133.3%" filterUnits="objectBoundingBox" id="b"><feGaussianBlur stdDeviation="12" in="SourceAlpha" result="shadowBlurInner1"/><feOffset in="shadowBlurInner1" result="shadowOffsetInner1"/><feComposite in="shadowOffsetInner1" in2="SourceAlpha" operator="arithmetic" k2="-1" k3="1" result="shadowInnerInner1"/><feColorMatrix values="0 0 0 0 0.2 0 0 0 0 0.505882353 0 0 0 0 1 0 0 0 1 0" in="shadowInnerInner1"/></filter></defs><g fill="none" fill-rule="evenodd"><path d="M905.39 49.531c2.914-.756-1.004-2.485-2.806-3.258 3.752.3 8.7 3.346 11.345 6.816 3.389.928 9.057 2.067 7.658 6.404-6.459-2.739-10.028-8.305-16.197-9.962zm34.531 37.844c-2.978 2.32-6.076-4.194-9.34-3.03-.253-.946-.236-1.965.543-3.116 3.712 2.677 5.67 4.303 8.797 6.146zm-27.91-17.09c-.545 4.296 5.891 3.401 7.386 5.217 2.302-1.49 3.362-.04 6.31 1.623-1.513 1.832 1.71 2.626 1.783 4.078-6.598-3.428-13.829-6.612-20.758-10.384 1.058-.913.204-1.406-.11-2.045-.797-.46-1.32.38-1.82 1.312-3.742-1.208-5.953-3.361-7.514-4.338-.312-.905 1.571-1.341.105-2.417 4.75 1.828 7.11 4.448 11.286 5.297-.847 1.797.219 2.908 2.224 3.38l1.108-1.723zm17.368 18.047c5.947 3.692 14.613 6.522 18.2 11.65-7.275-1.99-17.543-8.213-23.142-12.44-4.362-.603-9.84-4.245-13.455-6.737 5.583-2.376 13.458 7.991 18.397 7.527zm-79.85-69.38c3.854 1.857 10.607 4.401 12.603 8.557-5.197-1.499-8.81-4.428-12.467-8.004-1.991-.16-4.483.086-4.93-2.223 1.355-1.232 3.412.98 4.795 1.67zm60.758 69.823l-.883 1.332c.894.442 1.388-.746 2.41.139-.412.646-1.258-.21-1.57.861-4.142-2.98-11.89-5.023-14.152-9.533-1-.061-2.187-.858-3.071-.52-8.002-5.32-15.259-8.81-22.15-13.268.192-.331.428-.674.62-1.005-7.318-1.13-15.668-8.899-21.534-11.88-.664-1.304 1.948-.386 1.12-1.674 1.794.078 3.911 1.522 6.016 2.92-.284.426-.556.896-.855 1.349.344.199.73.459 1.03.669.943 1.023 1.214-.773 1.932-.69 5.061 3.843 13.828 5.847 14.548 11.235.322-.624 1.146-.259 2.122-1.021 1.112.862 1.613 1.852 1.582 2.902 5.032 3.495 11.387 2.375 14.897 7.643 3.834.262 6.224 4.551 9.183 4.934.907.486.786 1.227.742 1.901 1.35-.215 3.802.98 3.87 2.455 1.969.106 2.132.09 4.143 1.251z" fill-opacity=".4" fill="#6B74A2"/><g filter="url(#a)"><use filter="url(#b)" xlink:href="#c" opacity=".16" fill="#000" transform="translate(-.485 -.836)"/></g></g></svg>