<svg width="1868" height="1008" viewBox="0 0 1868 1008" xmlns="http://www.w3.org/2000/svg"><title>Back Shapes</title><g fill="none" fill-rule="evenodd"><path d="M814.602 670.333c1.904.017 3.383 2.003 5.652.345-.622-2.934 2.499-5.64 6.556-8.288-1.445-2.67-4.169.655-6.031-.066-1.226-.985-.73-1.845-1.616-2.808-6.777.037-8.326 7.271-4.561 10.817m7.902 1.69c-.415-1.062-1.252-.086-1.756-.71-.537.965-2.397 1.852-1.894 2.878 1.224-.74 3.193-.48 3.65-2.168m22.988-9.378c-1.3-.35-2.631-.568-4.397 1.233 1.33 3.086 4.376.783 4.397-1.233m-85.931 69.943c-2.027.516-4.786.043-6.156 2.021.602 1.128 1.563.614 2.127 1.932 1.922-1.82 5.433-1.293 4.029-3.953m87.936-67.418c-1.98 1.076-2.139 2.265-2.658 3.432 1.44 1.159 3.379.046 5.024.311.699-1.55-.483-3.599-2.366-3.743m-26.075 26.568c-.143.696.457 1.424 1.12 2.167.828-.39 1.49-.013 2.388-.75.102-1.547-2.07-2.394-3.508-1.417m-42.66 38.74c.207.512-.063.994.624 1.534.581-.27 1.065-.08 1.753-.786-.647-.956-1.315-1.76-2.378-.748m14.308-3.016c.713 1.105 1.65 1.192 2.759.47.463-1.79-2.546-1.808-2.759-.47m8.44 58.083c-1.175-.98-3.088.583-3.904 1.866 1.102 2.131 5.477.211 3.904-1.866M767.52 682.408c1.865-1.077.921-2.336 1.397-3.506 1.719-1.143 3.004-.18 4.645-.916 1.126-2.399 2.594-2.99 4.286-5.129 2.49 1.13 2.824 3.206 3.86 5.634-3.913 2.757-4.6 5.713-6.303 8.6.658 1.374 1.714.888 2.378 2.254-1.605-.396-2.748 1.757-3.527 3.078 1.988 1.521 1.155 2.867 1.617 4.296.259-2.082 2.587-4.035 3.534-6.08 3.362 2.551 9.39 5.677 5.478 9.935-1.682-.481-3.211-1.148-3.751-3.227-2.77.24-3.41 3.17-1.016 4.73-.825 1.365-1.573 1.326-3.019 2.212 5.1 2.986 1.203 5.976 6.357 10.296-1.664 2.685 1.29 5.672.09 8.396 1.252 2.068 3.081 1.435 4.257 3.855 6.275 1.721 5.004-4.218 9.682-8.088 1.01-2.036-2.311-4.349-2.103-6.424.558-.368 1.109-.734.887-1.153 2.429-.956 4.192 1.169 6.772-.483-1.123-2.258-.676-4.43 2.66-6.427.863.413 1.7.965 2.633 1.057.087-1.086 1.312-2.115 2.885-3.116 1.851-.22 3.407.92 5.397.034.787-2.244 1.947-4.474.525-6.862-1.043-.538-2.343.092-3.758 1.264-1.42-1.006-2.315-1.114-2.882-2.87.203-1.296 1.992-2.478 2.4-3.752-.34-.42-.666-.84-.995-1.262-1.307-.826-3.022.239-4.269-.864-1.695-2.8 1.423-5.31-.472-8.12-1.053-1.475-2.952.936-3.879-1.147 1.703-2.58 5.008-.885 7.408-1.936 2.355-5.612-3.865-9.986.181-15.583 2.947-2.308 5.5-2.911 8.047-3.4.282 1.03 1.186 2.993 2.49 3.155 1.614-4-4.093-8.451 2.309-12.148 1.022.646 2.24.398 3.127 1.685-1.257.927-2.516 1.848-3.776 2.769-.815.95.431 2.027-.01 3.001 4.932-1.275 10.176-3.972 15.195-5.655.965.855.447 1.62.747 2.44.757.906 1.791.538 2.75.477 3.284-4.4 4.698-8.905 6.711-13.38-.421-1.043-1.265-.042-1.881-.122.781-2.587 3.444-1.295 4.76-1.502 1.875-.983-.593-2.236 1.026-3.237 2.222.706 2.448 3.062 4.999 3.312 1.718-1.092 3.668-3.253 5.028-2.688.25.312.498.634.744.945-2.885 3.537-8.983 2.962-11.937 6.753 1.294 1.865 3.009 1.813 5.018.314 1.217.676.608.69 1.499 1.888.74-2.91 5.292-.874 7.533-1.03.763.842-.212 1.586-1.142 2.33-.918.822-1.584.466-2.13-.433-.022 1.41-1.821 3.934-3.785 4.269-1.464-.993-.17-1.816-.98-2.762-3.214 3.076-9.155 2.765-4.799 6-.952 1.132-1.84 2.286-1.393 3.514 2.295-.247 3.722-4.46 6.424-4.708 1.557 2.62-3.208 5.833-5.546 5.055-.382 1.458.004 2.597 1.629 2.802 1.31-.724.877-1.547 2.384-2.252 2.967 1.451 2.605 5.105 2.234 7.336 1.52 1.28 3.458.655 4.75 2.99-1.205 1.15-2.149 1.156-3.006.716-.856 1.24-1.203 2.521-1.15 3.823 4.078 1.228 8.59.465 13.174-.68 1.816 1.412 3.81 1.965 6.013 1.561 1.966-3.471 6.275-6.807 7.322-10.336 1.668 1.03 1.771 2.265 3.743 3.229-1.023 2.052-5.474 2.272-5.781 4.739 1.963 4.672 5.663 1.264 8.779.541.223 1.819-4.246 3.339-2.41 5.248.407.107.805.221 1.125.671 2.058-1.067 1.231-2.32 3.285-3.397 1.33 1.227 2.745 1.992 4.124 2.955-3.001 1.24-4.52 4.494-7.048 3.164-2.074 3.41-.516 7.079 3.236 8.591-1.466 1.432-2.544 1.021-4.018 2.453.107 2.57 1.705 5.967 4.373 6.266-2.262.828-2.996 2.564-4.411 4.226.571 1.278 1.799-.5 2.505.154.27 4.717 5.7 4.521 4.736 8.994 1.58.54 3.838-2.067 5.788-3.246 1.76-.325 3.15 1.09 5.138-.282.089 2.19 1.97 1.791 3.245 2.603-.952.64-1.856 1.28-2.01 1.97 2.137 1.382 5.22-1.585 7.146.744-1.894 2.075-3.587 4.173-2.03 6.467-1.7.351-2.72.82-4.021 2.447-.713-.138-1.285-.91-2.127-.43-2.1 1.173-1.726 2.501-2.4 3.75-2.962 1.482-5.593 1.336-8.67 3.362-.701-1.335-.825-2.276-2.371-2.245-.765 1.256-1.581 2.501-3.655 3.67.87.877 2.06.27 2.756 1.978-2.82 3.436-4.212 1.194-7.415 3.428.144 1.137 2.55 2.286 4.129 1.46.23.508-.73.956-1.258 1.425.618 2.138 2.804 1.637 4.38 3.267 1.696-.997.93-2.146 2.902-3.126.89.28 1.58 2.548 2.994 3.786-.553 1.369-2.05 2.675-2.154 4.07 1.182.889 2.866-.519 3.76 1.723 2.287.654 5.28-1.883 7.407-.44-2.054 2.922-7.009 3.344-8.804 5.454.545.92 1.43.237 2.258-.157-3.465 4.468-8.593 10.902-15.354 13.74-.688.956 1.584.305 1.88 1.612-4.21 4.366-8.696 11.8-14.844 8.382-4.944 3.33-8.792 1.499-13.045 1.595a265.878 265.878 0 0 1-2.245-2.844c-4.895 4.707-10.21 4.674-15.463 6.844-1.538 1.198-.457 2.568-.513 3.866-2.024-.89-2.931.26-4.271 2.136-.875-.839-1.887-1.081-3.009-.788-2.079 1.073-.397 2.37-2.021 3.473-3.2.81-5.962 1.37-8.788 3.951-1.498-1.09.454-1.968-.62-3.03-.745-.499-1.6-.445-2.378-.752-2.03 2.01 1.273 3.494 1.61 4.292-3.28 3.617-8.618 6.33-11.304 3.802-2.034-1.917-.756-7.317-5.5-5.432-1.66 1.092-1.37 2.312-3.267 3.39-1.307-2.873-4.338-2.035-5.775.25-3.89.33-8.465 3.894-12.053 2.845-1.635 1.304-1.919 2.687-2.146 4.065-3.663 2.422-7.085.342-10.184 4.47-1.318-1.208-3.11-.26-4.51-1.175 1.998-1.87 3.358-.82 5.02-1.19 1.822-2.188 3.467-4.39 5.557-6.553 1.37-.483 2.234 1.39 3.758.232-.745-1.95-1.475-3.89.265-5.684 1.335.88.01 1.605.115 2.408.61 1.12 1.667.191 2.51.155 2.192-2.159-1.39-4.69 1.783-6.784-.59-1.132-1.796-.629-1.501-1.886 2.92-2.963 4.203-6.797 1.039-9.238.74-1.5 1.695-2.207 3.402-2.487 1.038.763.522 1.434 1.123 2.165 1.365-.714 1.582-1.497 2.389-2.244-3.38-.254-2.015-4.802-5.252-5.126-1.26.922-2.519 1.845-3.778 2.761-1.691-.49-3.401-.914-5.258-.627-2.703 2.448 1.356 5.485 3.618 5.326 2.282 3.635-4.113 6.745-1.917 10.37-1.625.374-1.799-.344-2.511-1.65 2.711-1.976 1.817-9.966-3.105-7.69-2.458-1.645-.41-3.021-1.863-4.608 1.954-.769 2.87-1.837 2.65-3.436-4.222-3.504-10.606 3.026-15.946 4.713-1.384-3.925-4.118-1.562-6.136-2.473.636-1.883 3.532-1.77 4.269-3.642-1.063-1.949-2.756-.957-3.884-2.638.1-1.455 1.576-1.872 3.029-2.208-.424 2.987 3.551 3.355 2.353 6.74 1.47.36 2.518-1.817.887-2.644 3.728-1.478 4.787 3.164 8.41.82 1.9-1.232.245-2.225 3.022-3.714.564-.758-1.49-1.686-.742-2.439 1.801-1.612 3.256-.044 3.502 1.416 1.388.468 1.65-.657 2.891-1.62-.622-1.531-1.88-.129-2.5-1.66.357-1.37 1.218-2.715 3.396-3.976.812-1.557-.441-3.23-.86-4.864-1.347-.6-3.111.687-4.775 1.514-.882-3.114-3.105-.46-5.008-.313-2.14.16-6.19-2.856-7.644.128-1.25 1.517 2.625 3.357.224 4.811-1.866-4.596-5.245-2.209-7.765-3.776-3.28 2.76-9.073 4.428-8.059 7.895.698 1.394 2.743.39 2.378 2.244-6.716-1.266-14.4 1.971-20.564-1.868 1.106-1.736 4.628-3.311 3.652-5.17 5.766-2.988 13.549-2.565 15.722-9.526.217 2.07 2.61 1.157 4.262.864 2.292-3.155.692-6.555-.094-9.902-1.153-1.498-2.79-.782-4.262-.859-1.04 1.634 2.741 3.563 1.74 5.2-3.324 1.673-5.783-.676-9.296 1.833-1.377-1.09-1.013-2.065-.603-3.044-1.334-1.682-3.687 1.37-5.019-.306 1.104-1.592 2.338-.927 4.156-3.045 1.205-.22 2.018 1.405 3.13 1.693 2.04-1.37-1.593-3.098-1.244-4.57 2.938-1.355 6.145-4.384 5.914-6.826 2.808-.136 3.4-2.168 4.033-3.953.387 1.122 1.182.422 1.624 1.293 1.917-1.674 3.797-3.36 4.915-5.086 3.129 1.166 7.417-2.98 10.798-2.932 2.143-1.569.877-3.344 2.029-4.974-1.688-1.056-3.7-.52-5.906.84-.704-.645-.893-1.262-.867-1.86-3.702.456-7.11-.437-10.408-1.835-2.597 2.228-4.383.682-6.524.795-.757-.647.15-1.19-.872-1.85 1.633-1.69 2.757-1.01 4.147-1.547.7-.652.083-1.39.132-2.09-1.312-.314-2.751-.025-4.394 1.226-1.396-1.863-3.331-1.246-4.753-2.993 2.312-.967 2.931-3.264 6.162-5.008.528 3.561 5.738-1.638 5.153-3.279 3.08.19 8.228.67 10.297-3.57-4.648-4.28-10.154 4.137-15.312 3.247-1.097-1.463 1.822-2.68-.362-4.219 1.665-1.325 2.575.862 3.886 1.148 2.361-2.104 4.322-2.37 6.663-4.387 1.253.132 2.37.818 3.508 1.414.968-.642 1.438-1.311 1.383-2.013 2.417-1.167 4.628 2.275 3.876 4.142-.9.732-1.558.356-2.374.749.116 1.087.743 3.193 2.11 3.424 3.416-3.686 5.377-7.454 2.172-11.555-2.725.358-5.096-.908-7.764-.774-1.507-2.902 5.552-5.263 2.41-8.253 2.555.162 4.917-.435 7.151-2.252 1.455 2.587-1.153 4.926-.652 7.448" fill-opacity=".32" fill="#252B45"/><path d="M929.01 693.681c-1.886-1.006-6.19-.988-6.493-2.677.494-2.348 8.464.411 6.493 2.677zm54.167 16.858c3.235-.703 6.92 6.16 4.698 7.676-2.483-2.17-3.01-5.149-4.698-7.676zm45.412 21.807c2.61.115.736 5.11-1.61 2.79-.062-1.896 1.467-1.23 1.61-2.79zm169.496 58.237c-2.139 2.261-5.339 2.79-9.082 2.45 1.263-3.333 6.327-4.869 9.082-2.45zM841.05 677.768c-.824 3.144-3.511 3.203-7.01 1.99 1.24-2.065-1.89-2.193-.027-4.542 3.802.729 4.766.436 7.037 2.552zm190.915 63.982c-1.874 1.832-4.17 2.917-6.213 4.468-4.04-2.165 2.94-8.267 6.213-4.468zm-200.88-62.346c2.605 1.05 2.958 2.99 3.542 4.862a471.11 471.11 0 0 1-4.357-1.66c.276-1.06.542-2.129.815-3.202zm308.85 109.368c-.62 3.203-6.06-.014-4.684-2.279 1.17-.513 5.176.519 4.683 2.28zm7.73 4.153c.083 2.337-2.234.724-3.73.486-.34 2.688 2.126 4.15 2.096 6.697-.634.433-1.244.876-1.559 1.848-1.54.704-5.675-.486-6.47-1.85 1.607-3.046 1.587-5.381-.226-6.936 2.537-1.302 5.797-1.467 9.889-.245zm-32.371-10.288c-.987 2.672-5.583 3.327-7.238 1.626 1.3-2.36 3.922-2.569 7.238-1.626zm93.438 33.407c1.782.44 3.483.926 4.09 1.897-1.258 1.78-3.865 1.361-6.086 1.584.141-2.026 1.515-2.024 1.996-3.48zm-78.79-25.06c-3.046 2.082-7.885 1.255-12.904.105 2.491-2.996 7.437-1.973 12.905-.106zm-267.164-87.878c-.875 3.042-2.503 4.861-5.891 3.78 1.102-2.679 2.482-4.895 5.891-3.78zm210.015 72.89c3.39 1.754 6.02 3.828 5.91 6.92-2.838-.277-6.404-3.5-5.91-6.92zm126.247 44.422c-3.325 5.645-15.644-3.365-18.841 2.535-2.433-.76-1.705-2.837-1.13-4.882 6.994 1.88 15.193.759 19.971 2.347z" fill-opacity=".4" fill="#6B74A2"/></g></svg>