<svg width="1056" height="638" xmlns="http://www.w3.org/2000/svg"><defs><linearGradient x1="100%" y1="0%" x2="0%" y2="100%" id="a"><stop stop-color="#00F5F0" offset="0%"/><stop stop-color="#00C2BE" offset="100%"/></linearGradient><linearGradient x1="100%" y1="0%" x2="0%" y2="100%" id="b"><stop stop-color="#3381FF" offset="0%"/><stop stop-color="#0062FF" offset="100%"/></linearGradient></defs><g fill="none" fill-rule="evenodd"><path d="M682.045 110.264c.073.03.144.07.21.123.254-.494.191-1.165.87-1.435-.062.726.546.963.3 1.74-.306.04-.37-.566-.791-.252-.064.188.558 1.054-.253 1.224-.083-.185-.08-.313.03-.395a4.062 4.062 0 0 0-.078-.013c-.029.159-.134.3-.366.428-.055-.507-.423-.362-.511-.845a.287.287 0 0 1-.041-.036c-.643.446-.066 1.523-1.01 1.822-.092-.541-.449-.413-.728-.442-.256-.376.97-.677.231-.808.104-.143.227-.257.36-.352-.02-.242.027-.359-.368-.35.324-.024 1.086-.496 1.752-.485.12-.154.195-.352.197-.627.03.255.11.489.196.703zm-41.98 17.865c.511-.182.202-.73.13-1.197.248-.11.481-.182.764-.276.328.203.289 1.046.656.343.356-.064-.103.3.36.41.102.495-.063.854-.508 1.116.004-.256.106-.492.074-.763-.456.171-.839.373-.505.923-.21-.36-.68-.134-.973-.343-.737-.21-1.114.018-2.032.457-.255-.839-.12-.867-.324-1.792.356-.063.761-.148.86.474.37-.101.227-.355.134-.63.297-.197.429-.033.686-.052a1.022 1.022 0 0 1-.35.473c.234.594.835-.181.603-.237.098.02.366.821.36.475.474.035.102.333.065.619zm27.358-10.978c.17.533.267.911-.328 1.301.04-.24.033-.522-.157-.882-.685-.013-.132.566-.647.605-.142-.955.462-.911.799-1.053-.274-.029-.578-.058-.948.026-.274-.481-.025-.719-.055-1.118.954.02.592-.264.955-.711.812-.298 1.434.567 1.964-.367.13.292.223.568.305.817.653-.26.019-1.151.709-1.395.264.263.505.537.694.897.26-.147-.087-.596.05-.752.397-.304.45.212.77.07.02.245-.348.281-.594.391.2.515.833-.053 1.135.161.175.526-1.073-.22-.635.632-.957-.558-1.52.105-2.238.616-.07-.16-.117-.33-.2-.515-.348.346-.557.407-1.083.42.17.115.428.031.52.371-.368.424-.678.498-1.016.486zm-11.942 6.68c.123-.383-.06-.875-.594-.744.237-.198 1-.874 1.207-.078a.8.8 0 0 0 .275-.643c.466.252.152.606.588 1.056-.533.329-.57-.482-1.011-.347-.213.266.139.816-.409.903.028.073.054.144.076.212-.328-.14-.566-.542-1.1-.146a10.037 10.037 0 0 1-.315-.843c.392-.048.656.28 1.11.172.052.151.114.307.173.458zm-44.443 15.621c.153-.249.552-.484-.06-.304.807-.513 1.727-.37 2.27-1.01.125.28-.06.394.065.675.671-.084.01-.77.766-.8.06.401-.455.57-.095 1.114.334-.179.336-.64.782-.5-.362.314-.448.72-1.081 1.155-.061-.402-.406-.248-.452-.75-.112.081-.08.22-.24.26.052.315.236.264.432.238-.175.936-1.38-.244-1.71.608-.185.05-.257-.148-.347-.307.014.393-.24.995-.155 1.335-.376-.245-.993.093-1.318-.238-.787 2.35-3.308 1.6-5.032 2.97-.062-.67-.594-.339-.683-.87-.006-.41.717-.447.493-.95.512.153.997.381 1.28 1.017.79-.415-.285-1.238-.32-1.381-.008-.219.863-.32.631.354.6.018-.087-.596.512-.577.13.291-.069.443.086.723.295-.067.25-.301.545-.37-.13-.355-.477-.073-.578-.567.556-.343.64.444.956.622.162-.168.263-.34.133-.631.39.08.692.359 1.17.304.163-.23.156-.513-.033-.937.437.186 1.145-.415 1.545-.18.532-.332-.261-.455-.008-.949.189-.05.335-.065.446-.054zm75.193-30.433c-.142.107-.329.19-.532.25a1.24 1.24 0 0 1-.03-.023c-.039.237-.116.457-.57.491a1.59 1.59 0 0 1 .172-1.053 2.398 2.398 0 0 1-.061-.182 1.11 1.11 0 0 1 .224-.082c.114-.162.246-.314.38-.461-.243.584.333.55.827.266.158.088.239.402.484.356.208.733-.637.03-.635.632-.122.023-.2-.07-.26-.194zm-38.577 18.44c.149-.86-.472-.33-.785-.635-.02-.245.165-.36.133-.631.448.277 1.19-.18 1.74-.076-.081.417-.21.791-.254 1.224-.243-.082-.5-.063-.834.117zm13.173-6.279c-.326-.467.055-.606.231-.807-.356-.27-.922-.08-1.159-.68.806-.113 1.524-.096 1.9.748-.253.297-.647.472-.972.74zm2.02-1.647c.126.547.73.246.49.766-.511-.217-.502.001-.906-.041-.503-.665.341-.628.07-1.174.53-.268.885-.267 1.033.397-.158-.089-.415-.07-.686.052zm12.736-5.703c.158.82-.77.926-1.279.846-.387-.472.473-.333.072-.768.553.244.564-.128 1.207-.078zm-2.34 1.89c-.748.18-.413-.46-.897-.95.21-.062.431-.161.64-.223.085.39-.032.658.256 1.173zm19.264-8.359c-.23 1.145-.531-.13-1.275-.075-.264-.527.563-.527.755-.827.433.175.761.58 1.112 1.037-.848-.91 1.097-2.45 2.032-2.008.26-.146-.116-.592.06-.793.26-.146.832-.125.492-.556.647-.073.594.87.008.947.246.288.909-.282 1 .32-1.161.18-1.605 1.574-2.861 1.275.167.11.4.036.463.376-.769.066-.541.578-1.721.98.078-.157.049-.42-.065-.676zm-190.982 71.52c.64.83.372 2.125.706 3.214.357-.283.468.101.823-.119.408-2.472 2.39-4.19 4.64-5.78-.055-.532-.445-.39-.514-.885.627-.217.535-.764.429-1.274-.347-.031-.667-.074-1.08.017-.23.566.824.902.13 1.241-.556-.03-.053-.595-.363-.952-1.09.33-1.693.197-3.127.773-.564 1.242-.897 2.597-1.644 3.765zM521 192.928c-2.56 1.232-3.32 3.118-4.785 4.915-.727.943-1.432 1.257-1.328 2.17.168 1.597 1.517 2.729 2.46 2.743 2.367.03 3.236-3.917 4.426-4.973-.757-1.768 1.293-3.67-.773-4.855zm16.05-17.576c.267 1.954.722 5.62 2.755 5.984.615-.924 1.51-1.693 2.088-2.632-1.772-3.234-1.431-6.605-2.212-10.188-2.02 1.767-1.38 4.762-2.631 6.836zm4.78-7.297c1.351 2.153-.364 5.826 2.069 7.9 1.576-2.9 1.786-6.429 2.9-9.555-1.046-1.33.039-2.556-.674-4.157-.826-.159-1.546-.488-2.681.08-.222 2.079-.32 4.165-1.614 5.732zm13.334 6.288c-1.414 1.434-3.27-.432-4.922.335-1.025-.473-.906-1.764-1.529-3.096-1.56 2.057-1.107 5.445-3.385 6.77.418.803.88 1.433 1.234 2.297 4.359 1.247 9.852-1.6 9.494-6.27-.5.44-.484-.341-.892-.036zm-5.882-11.246c-.053 1.169-.044 3.021.052 3.845.082.118.192.162.357.058.435-.72-.448-2.091.682-2.47.115-.825-.472-1.4-1.091-1.433zm2.09 1.236c-.958 1.51-.732 4.256-.234 5.984.442-1.651 1.726-2.904 2.241-4.526-.747-.255-1.303-1.029-2.008-1.458zm4.319 5.226c-.25-1.034-.915-1.512-.863-2.277-1.242.398-1.725 2.16-2.578 3.16.797.975 2.545-.453 3.44-.883zm7.712-12.44c1.978 1.595-.248 3.917 1.804 4.799 1.192-1.46 1.18-3.992-.735-5.244-.352.157-.717.288-1.07.445zm-56.147 45.549c-.537-.256-.21.341-.71.44-.15-1.76-.872-3.45-.126-4.555-1.246-.9-1.072-2-2.184-2.464-.24-.945.53.445.616-.243-1.054-3.183-1.771-10.013-4.833-11.466-.308-.42.313-.449.02-.906-.48-1.21-1.26-1.946-1.46-2.94.412-.09.225-.441.697-.466-.566-.46-.627-.866-.369-1.507.341-.183.589-.169.74.104.18-1.225 1.658-2.378 1.003-3.51 1.248-.927 2.292-1.361 3.393-2.006.141.587-.359.345.144.864.426-.128.412-.43.666-.606 1.181.62 3.248-.703 3.854 1.132.526-.513.454-1.286.918-1.802.903.062 2.446-.067 2.31 1.324 1.938.623 2.021 3.928 3.963 4.766 1.926-2.59 4.145.63 5.4-.888.273-.338 1.192-1.8 1.367-2.558.763-3.033-.577-11.195 4.612-9.234.947 1.652-.37 3.507-.375 4.716-.016.1.436.302.425.616-.113.762-.645 1.06-.34 1.947.243.82.594 2.49 1.352 3.173 1.49 1.38 6.085.448 6.368 4.067.147 1.482-2.119 3.512-.011 4.245 1.163-.302 1.512-1.416 2.43-.71.714-.566.015-.781.693-1.021-1.184-.897-.703-2.256-1.604-3.805-.074-.37-.453.202-.42.342-2.589-3.304 1.493-5.864.532-9.583 1.104-1.452 2.512-2.697 2.36-4.734 2.947-2.396 4.11-9.816 9.068-6.885.4 1.307.518 1.503 1.115 2.506 2.07.378 3.917 1.134 5.49 2.569 1.057-.408.881-1.413 1.109-2.258 1.24-.335 1.185-1.27 1.56-2.056.544-.335.82-.055 1.324-.28.214.617.098 1.102.055 1.616-.522.387-.768-.37-.999.197-.084.625-.9 2.722-1.452 1.823-.233.63-.638 1.212-.492 2.014 1.065.764 1.82 2.191 2.696 3.411 1.569-.544 4.32-1.552 4.23-3.585.661-.14.565-.221 1.023-.209-.21-.742-.312-1.718-.851-2.251.6-1.227.289-4.029-1.508-4.404-.552.524-1.092 1.074-1.728 1.543-.145-.122-.241-.203-.44-.176-.005-1.298.649-2.27 1.95-2.942-.638-1.635-1.84-2.028-2.652-3.245-.706.314-1.89.501-2.582.778.29-1.924 2.597-.878 4.478-1.467 1.124.49 1.417 2.03 2.026 3.06.961.53 1.799-.368 2.555-.365 1.08-.016 2.018.804 3.127.65.746 2.083.4 3.475.76 4.893 2.446.954 3.279-2.667 5.583-1.898 1.01-.511 1.47-2.666 3.01-2.052.996-1.155 2.582-2.202 4.486-2.4.362-.068-.019-.517.283-.652 1.959-.686 2.165-2.325 4.16-2.316.192-.519 2.402-3.081 3.298-1.747.146-.282-.013-.706.159-.999.8.51.503-.905 1.35-.694.054.255-.441.227-.351.497.154.21.378.172.507.393.265-.15.263-.426.076-.777 1 .483.056 1.616-.56 1.86-.237-.329.21-.342.145-.623-.387-.26-1.287.295-.787.877-.336.057-.458-.353-.69-.467-.437.443-.57 1.028-1.056 1.492-.557.31-.618-.437-.923-.58.031.544-.207.96-.176 1.503-.557-.031-.842 1.024-1.175.275-.873 1.565-3.025 1.75-3.816 3.092-.483.338-.443-.453-.752-.47-.593.295-.571 1.09-.566 1.304-.424.065-1.076.634-1.327.343-.801 1.657-2.852 1.796-3.882 2.534-.471.704-.894 1.45-1.56 2.056-.325.083-.573.07-.74-.104-1.99 1.97-5.48 3.151-6.957 4.985-.466.58-.365 1.215-.712 1.927-.801 1.656-2.665 2.827-2.824 4.91-.202.089-.415.153-.616.243.026 2.433-1.862 3.954-2.995 5.883.138 1.733-3.02 1.963-3.15 3.569-.853.255-1.241.738-1.483 1.279-.41.028-1.118.745-1.23.083-.423 1.086-3.766 2.73-5.034 2.798-.373.043-.72-.33-1.054-.335-.869.015-1.796.645-2.626.612-1.586-.037-2.52-1.323-3.772-1.354-2.672 1.252-5.86 4.126-8.372 2.552-1.43.853-3.272.311-4.25-.8-2.575 1.672-3.016 4.344-2.603 7.441-.256.238-.258.641-.785.814 1.346 3.022-1.757 5.61-1.87 8.817-.924.567-1.57 1.287-1.884 2.14-1.807.618-2.49 1.727-3.896 2.57-1.964.471-4.321.871-6.185.277-1.992-1.558-2.474-3.726-3.691-6.527zm136.986-74.301c-.262.275-.377.612-.53.934-.37.165-.586-.056-.816-.24-.382-.592.572-1.239-.023-1.513.068-.444.881-.012 1.11.172.484-.374.41-1.072 1.282-1.238.228.312.544.425.785.635.308-.105.045-.496.499-.54.157.82.827.33.948 1.134-.247.11-.505.193-.764.276.267-.595-.386-.336-.6-.684-.397.303.511.153.452.75-.703.345-1.1-.081-1.74.076-.162.232.143.254.111.713-.197.088-.43.16-.628.248-.45-.212-.043-.362-.086-.723zm44.313-21.284c-.07-.953.34.896.067 1.08-.729.42-1.227.166-1.625-.133.041-.304.278-.568.345-.883.43-.097.667.37 1.213-.064zm-38.506 18.163c-.436-.25-1.205.346-1.4-.424.553-.151.367-.703.896-.907.118.995.787-.224 1.521-.17.143.255-.043.37.04.555.763-.277.915-.599 1.675-.62.164.436.328.87.504 1.332-.408.213-1.16.516-1.527.553-.13-.292.044-.432-.086-.724-.933.162.236.53-.625.786-.116-.392.12-.593-.305-.816-.385.33-.127.977-.974 1.132-.468-.522.483-.31.281-.697zm16.252-6.669c-.702.947-1.436.957-2.406 1.103-.113-.52.1-.838.023-1.343.595-.456 1.035-.398 1.481-.723.07.889.666.433.902.963zm-8.602 3.117c-.38.074-.542.242-.486.566-.283.03-.463-.175-.554-.579.888-.395 1.213-1.524 2.156-.8-.854-.192-.17.614-.518.96.119.2.317.05.513.025-.156.578-.526.743-1.185.591.005-.256.082-.48.074-.763zm19.048-7.974c-.273.581-1.603-.083-1.351-.778.666.102.932.168.799-.662.795-.538.954.617 1.514-.184.267.402.457.961.791 1.18-.467.147-.174.538-.914.867.394-.574-.515-.69-.928-1.088-.137.091-.148.862.089.665zm21.731-11.723c-.431.16-.959.236-.795.671-.564.06-.644-.983-1.21-.858-.056-.26.433-.224.328-.526 1.101.017 2.331.39 3.568-.351.193.898.465-.017.803.277.121 1.534-.956.775-1.774 1.393-.128-.42-.268-.801-.612-.711-.322.206.29.188.04.553-.185.05-.265-.263-.348-.448z" fill="#808AB8" fill-rule="nonzero" opacity=".32"/><path fill="url(#a)" transform="rotate(-34 262.635 241.635)" d="M214.635 193.635h96v96h-96z"/><path fill="#1A1F34" d="M264 193h496v234H264z"/><path fill="url(#b)" transform="rotate(34 728.011 455.011)" d="M661.011 388.011h134v134h-134z"/><path fill="url(#b)" opacity=".24" transform="rotate(34 517.765 532.765)" d="M497.765 512.765h40v40h-40z"/><path fill="#808AB8" fill-rule="nonzero" opacity=".08" d="M422 493.42L441.897 480l13.42 19.897-19.896 13.42z"/></g></svg>